<svg width="292" height="291" viewBox="0 0 292 291" fill="none" xmlns="http://www.w3.org/2000/svg">
<g clip-path="url(#clip0_313_6359)">
<path d="M3.58799 237.83C12.2093 258.601 32.2672 268.408 45.1112 274.713C95.7133 299.477 172.602 296.605 227.919 251.526C240.869 240.983 304.667 185.711 289.782 110.824C276.586 44.5891 210.5 6.13005 154.831 1.01618C108.733 -3.25705 48.5246 13.4506 27.2703 53.8011C13.8984 79.1953 29.9799 87.2514 19.0712 144.8C9.64054 194.608 -6.93358 212.436 3.58799 237.83Z" fill="#8A9CC0"/>
<path d="M17.5942 216.989C17.4887 216.989 17.3831 216.954 17.3127 216.919C17.0664 216.743 16.996 216.428 17.172 216.183L18.6851 213.906C18.861 213.661 19.1777 213.591 19.4241 213.766C19.6704 213.941 19.7408 214.257 19.5648 214.502L18.0517 216.779C17.9461 216.919 17.7702 216.989 17.5942 216.989Z" fill="#171F39"/>
<path d="M14.1118 222.278C14.0062 222.278 13.9007 222.243 13.8303 222.208C13.584 222.032 13.5136 221.717 13.6895 221.472L15.2027 219.195C15.3786 218.95 15.6953 218.88 15.9416 219.055C16.188 219.23 16.2583 219.546 16.0824 219.791L14.5693 222.067C14.4285 222.172 14.2877 222.278 14.1118 222.278Z" fill="#171F39"/>
<path d="M15.0964 217.514C14.9908 217.514 14.8852 217.479 14.8149 217.444L12.5276 215.938C12.2812 215.763 12.2109 215.448 12.3868 215.202C12.5627 214.957 12.8794 214.887 13.1258 215.062L15.4131 216.568C15.6594 216.744 15.7298 217.059 15.5538 217.304C15.4131 217.409 15.2723 217.514 15.0964 217.514Z" fill="#171F39"/>
<path d="M20.4089 220.982C20.3033 220.982 20.1977 220.947 20.1274 220.912L17.8401 219.406C17.5937 219.23 17.5234 218.915 17.6993 218.67C17.8752 218.425 18.1919 218.355 18.4383 218.53L20.7256 220.036C20.9719 220.211 21.0423 220.526 20.8663 220.772C20.7256 220.912 20.5496 220.982 20.4089 220.982Z" fill="#171F39"/>
<path d="M277.045 124.519C276.552 124.519 276.024 124.414 275.567 124.239C274.511 123.819 273.667 123.013 273.244 121.997C272.329 119.861 273.279 117.374 275.391 116.428C276.411 115.973 277.537 115.938 278.558 116.358C279.614 116.778 280.458 117.584 280.88 118.6C281.795 120.736 280.845 123.223 278.734 124.169C278.206 124.414 277.608 124.519 277.045 124.519ZM275.778 117.374C274.194 118.074 273.491 119.966 274.159 121.577C274.511 122.348 275.109 122.978 275.919 123.258C276.693 123.573 277.537 123.538 278.276 123.188C279.86 122.488 280.564 120.596 279.895 118.985C279.543 118.214 278.945 117.584 278.136 117.304C277.397 117.024 276.552 117.024 275.778 117.374Z" fill="#171F39"/>
<path d="M244.987 154.922C242.277 152.47 224.437 135.938 222.22 122.172C221.903 120.246 221.41 117.268 222.747 114.081C225.387 107.671 231.756 108.617 234.008 103.783C236.964 97.4084 227.392 92.2945 227.076 78.2489C227.005 74.8864 226.865 69.6324 230.208 65.3242C233.938 60.4905 238.16 61.7865 242.102 57.5483C247.028 52.2593 243.544 46.9353 246.43 38.4589C249.456 29.5271 258.887 19.1242 269.901 19.5446C279.508 19.8948 286.651 28.3712 289.572 35.1313C293.9 45.1139 291.155 56.3924 285.982 63.5378C278.522 73.8006 266.382 75.0265 266.945 79.5099C267.473 83.678 278.03 82.8024 280.88 89.7026C282.886 94.5012 280.423 101.401 276.2 104.974C270.323 109.913 263.637 106.27 260.717 110.368C257.655 114.676 263.567 120.701 263.813 128.652C263.989 135.167 260.365 144.029 244.987 154.922Z" fill="#8A9CC0"/>
<path d="M243.439 152.961C243.192 152.961 242.981 152.82 242.911 152.575C239.462 139.265 238.653 125.255 240.518 110.964C242.031 99.5452 245.198 87.8814 250.019 76.3226C258.218 56.6728 268.388 43.9582 268.493 43.8531C268.669 43.6429 269.021 43.6079 269.232 43.783C269.444 43.9582 269.479 44.3084 269.303 44.5186C269.197 44.6587 259.098 57.2682 250.969 76.778C243.474 94.7816 236.154 122.488 243.896 152.33C243.967 152.61 243.791 152.891 243.509 152.961C243.544 152.961 243.509 152.961 243.439 152.961Z" fill="#8A9CC0"/>
<path d="M237.704 155.377C208.778 126.341 204.907 110.263 207.617 100.771C208.426 97.9341 210.749 92.3298 210.362 84.3088C209.869 73.9059 205.329 69.5276 202.69 61.7517C197.517 46.5502 202.937 28.0212 212.402 16.4625C219.018 8.37136 233.305 -3.18738 246.395 0.875696C251.92 2.59199 258.747 7.56575 258.711 13.0299C258.676 20.8758 243.826 22.2418 240.976 33.8706C239.428 40.2104 243.369 41.6115 241.645 48.3015C238.97 58.8795 227.921 60.3156 228.202 67.0057C228.449 73.4506 238.97 73.7658 240.519 81.5767C242.278 90.5085 230.349 96.3929 232.918 104.659C234.466 109.598 239.006 108.512 241.398 114.011C244.319 120.701 239.181 125.92 237.281 138.215C236.296 145.045 237 150.929 237.704 155.377Z" fill="#8A9CC0"/>
<path d="M235.91 152.47C235.699 152.47 235.523 152.365 235.417 152.155C228.098 136.638 222.643 120.211 219.195 103.328C216.204 88.6869 214.937 74.4311 215.535 62.1368C216.415 43.2575 221.447 29.8424 225.494 21.9264C229.892 13.3099 234.045 9.24681 234.221 9.07168C234.432 8.86152 234.748 8.86152 234.96 9.07168C235.171 9.28184 235.171 9.59708 234.96 9.80724C234.924 9.84226 230.737 13.9754 226.409 22.4518C222.397 30.2627 217.471 43.5377 216.591 62.1718C215.324 89.2473 222.714 122.733 236.367 151.7C236.508 151.945 236.367 152.26 236.121 152.4C236.086 152.47 236.015 152.47 235.91 152.47Z" fill="#8A9CC0"/>
<path d="M197.721 227.766C252.109 192.647 267.401 119.988 231.875 65.4772C196.35 10.9668 123.46 -4.75295 69.0713 30.3662C14.6826 65.4854 -0.609046 138.145 34.9165 192.655C70.4421 247.165 143.332 262.885 197.721 227.766Z" fill="white"/>
<path d="M55.9141 51.4189C55.9141 52.2595 58.4125 53.4854 60.8054 51.9442C63.1982 50.4031 64.1483 49.2122 66.8227 51.1737C69.4971 53.1352 73.8606 62.8025 77.3091 65.1142C80.7928 67.426 84.4877 67.8463 85.1211 64.904C85.7545 61.9618 82.4115 57.2683 83.8191 54.6763C85.2267 52.0493 90.0828 42.1018 87.8659 37.8636C85.6489 33.6254 80.9336 32.3995 73.4031 36.1123C65.8726 39.8251 56.0196 45.0791 55.9141 51.4189Z" fill="#8A9CC0"/>
<path d="M81.6745 160.701C80.9708 161.892 81.0059 163.293 81.7449 164.344C84.1026 167.602 88.1142 176.849 86.8825 181.437C85.299 187.287 90.683 192.506 92.2313 194.992C95.3983 200.071 97.3689 201.963 104.97 200.492C112.535 199.02 114.999 197.619 118.553 202.138C122.107 206.656 134.881 224.73 139.807 228.373C144.698 232.015 153.566 237.374 156.768 237.865C159.935 238.355 165.284 236.359 157.965 231.42C150.645 226.481 146.775 224.45 147.654 218.495C148.534 212.541 148.358 200.141 146.599 196.464C144.839 192.786 145.543 189.493 147.056 187.952C148.569 186.411 151.596 182.768 151.912 180.842C152.229 178.915 147.795 176.954 145.191 174.397C142.552 171.84 141.391 170.019 145.402 164.029C149.414 158.039 142.306 152.961 133.543 156.078C124.781 159.16 117.638 158.39 116.054 154.011C114.471 149.633 108.7 153.941 103.985 154.432C99.234 154.922 97.5097 152.05 92.6536 153.276C86.1084 154.887 83.0469 158.39 81.6745 160.701Z" fill="#8A9CC0"/>
<path d="M202.408 77.8991C199.065 76.463 196.672 72.3299 197.306 64.1337C197.798 57.6888 190.268 56.4629 187.031 56.2177C186.432 56.1827 186.221 55.4471 186.679 55.0618C189.177 52.9953 196.039 49.8779 207.933 62.0671C223.311 77.8641 220.636 70.6136 221.164 67.2861C221.692 63.9586 215.569 62.3123 216.484 55.9725C217.047 51.9795 215.745 47.4961 214.337 44.0635C188.473 19.9653 153.39 8.89695 119.151 13.1001C121.227 16.2175 127.631 27.7062 111.866 31.454C111.866 31.454 101.415 32.82 113.309 46.9707C125.203 61.1214 121.016 40.4908 121.86 39.0547C122.705 37.6187 125.52 34.6064 130.763 45.8499C130.763 45.8499 132.874 49.5627 125.977 53.1354C119.045 56.7081 119.854 60.6661 120.945 62.3473C122.036 64.0286 125.555 68.0567 124.042 73.5208C122.529 78.9849 128.933 86.5156 131.959 80.6662C135.021 74.8168 132.734 64.0286 136.604 60.3158C140.475 56.638 148.146 59.7204 151.384 55.5522C154.621 51.3841 148.076 45.4296 150.187 44.0635C152.299 42.6975 159.442 44.0635 160.85 47.6362C162.293 51.2089 156.733 56.8832 160.885 59.5803C165.037 62.2773 167.782 58.7046 170.492 60.561C173.201 62.4174 168.803 69.4227 161.694 69.5278C154.586 69.6329 156.768 74.7817 152.897 74.3264C148.991 73.836 145.93 69.5628 143.29 73.3457C140.686 77.1285 140.51 81.4368 137.238 86.5156C134 91.5945 131.995 96.7784 133.895 99.7206C135.83 102.663 139.56 104.729 141.742 109.913C143.924 115.097 150.68 128.652 164.158 116.358C177.635 104.064 180.802 113.066 181.365 113.906C181.928 114.747 188.825 125.815 191.535 126.761C194.244 127.707 201.177 130.999 201.001 141.297C200.825 151.56 213.141 166.341 216.167 161.402C219.193 156.463 218.279 145.395 220.988 137.654C223.698 129.913 219.334 106.726 212.472 103.083C205.61 99.4404 210.15 89.9132 208.742 85.4648C207.37 80.9814 205.716 79.3702 202.408 77.8991Z" fill="#8A9CC0"/>
<path d="M15.3066 117.374C17.6643 120.806 22.9427 113.766 23.0131 118.81C23.2242 134.011 26.9543 139.265 33.3235 150.474C39.6928 161.682 67.1052 170.999 72.1372 170.579C77.1693 170.159 74.6708 165.045 72.1724 161.227C69.7092 157.444 65.1346 153.906 60.0673 150.929C55.0001 147.952 53.1702 145.15 52.6776 142.943C52.1497 140.701 54.4018 138.425 57.3577 139.09C60.2784 139.756 65.5568 138.6 66.8588 136.183C68.4423 133.206 63.9733 128.407 63.6566 126.06C63.3751 123.678 67.4219 119.37 66.9292 114.291C66.4366 109.212 68.6887 105.5 71.4686 101.121C74.2486 96.778 77.2748 93.6957 77.1341 92.0845C77.0285 90.4733 74.3189 88.2316 73.3336 84.3086C72.3483 80.3856 72.5243 74.8865 70.3777 74.0108C68.2312 73.1352 63.2343 72.6448 59.6802 80.6308C56.1261 88.6169 54.5778 89.5976 50.8829 87.7412C47.1529 85.8848 45.8157 75.6571 53.5221 70.7183C61.2286 65.7446 61.1934 62.347 60.2433 60.4205C59.2931 58.4941 55.5631 58.0387 52.6776 59.3347C49.7921 60.6307 50.2495 62.312 41.8393 73.4154C36.2442 80.841 28.4322 83.7482 24.491 85.2893C21.7111 91.8743 16.9253 110.543 15.3066 117.374Z" fill="#8A9CC0"/>
<path d="M238.829 86.2703C237.14 86.9007 239.814 90.3333 238.266 92.2598C236.718 94.1862 236.542 95.7274 239.392 99.0549C242.278 102.382 244.565 107.706 243.756 110.824C242.946 113.941 241.011 117.059 243.756 121.647C246.5 126.235 245.163 133.206 243.685 136.288C242.172 139.37 239.885 144.169 242.383 147.952C243.967 150.404 245.973 153.591 248.119 155.623C252.94 134.397 251.849 111.805 244.283 90.5435C242.313 88.3718 239.814 85.885 238.829 86.2703Z" fill="#8A9CC0"/>
<path d="M236.33 187.077C236.259 187.077 236.154 187.042 236.083 187.007C235.837 186.867 235.731 186.551 235.872 186.306C256.88 148.443 255.191 102.243 231.438 65.7801C196.566 12.2247 126.645 -3.92255 72.2424 29.0023C71.996 29.1425 71.6793 29.0724 71.5034 28.8272C71.3626 28.582 71.433 28.2668 71.6793 28.0917C97.9657 12.1546 129.073 7.21587 159.195 14.1511C189.387 21.0864 215.357 39.2301 232.283 65.1847C256.247 101.963 257.971 148.583 236.752 186.797C236.717 186.972 236.541 187.077 236.33 187.077Z" fill="#293560"/>
<path d="M26.0738 81.7169C26.0034 81.7169 25.9331 81.7169 25.8627 81.6818C25.5812 81.5768 25.4756 81.2615 25.5812 80.9813C35.0823 59.8954 50.4248 41.7517 68.7935 29.9127C69.0398 29.7376 69.3565 29.8076 69.5325 30.0528C69.7084 30.298 69.6381 30.6132 69.3917 30.7884C51.1989 42.5222 35.9972 60.4908 26.5665 81.4016C26.4609 81.6118 26.285 81.7169 26.0738 81.7169Z" fill="#293560"/>
<path d="M17.5245 108.687C17.4893 108.687 17.4541 108.687 17.4189 108.687C17.1374 108.617 16.9615 108.372 16.9966 108.057C18.7913 98.8098 21.6768 89.7029 25.618 80.9813C25.7236 80.7011 26.0403 80.596 26.3218 80.7011C26.6033 80.8062 26.7089 81.1214 26.6033 81.4016C22.6973 90.0532 19.847 99.09 18.0523 108.232C17.9819 108.512 17.7708 108.687 17.5245 108.687Z" fill="#293560"/>
<path d="M183.722 234.152C178.127 230.965 169.822 218.39 172.778 211.385C174.749 206.622 179.887 201.823 184.391 202.453C188.825 203.084 190.267 208.618 193.364 208.233C196.109 207.883 195.37 202.488 198.642 199.826C203.78 195.623 217.011 198.916 218.7 204.555C219.263 206.446 219.58 209.459 217.574 211.735C210.22 220.107 201.563 228.058 191.71 232.506C189.599 233.452 185.622 235.203 183.722 234.152Z" fill="#8A9CC0"/>
<path d="M46.0974 207.742C45.9566 207.742 45.8158 207.672 45.7103 207.567C41.6283 203.013 37.8279 198.075 34.4849 192.926C28.7843 184.169 24.2801 174.782 21.0778 164.975C20.9723 164.694 21.1482 164.414 21.4297 164.309C21.7112 164.204 21.9928 164.379 22.0983 164.659C25.2654 174.397 29.7696 183.714 35.3998 192.365C38.7428 197.479 42.4729 202.348 46.5196 206.866C46.7308 207.076 46.6956 207.427 46.4844 207.602C46.3437 207.707 46.2029 207.742 46.0974 207.742Z" fill="#293560"/>
<path d="M193.471 230.895C193.295 230.895 193.119 230.789 193.013 230.649C192.872 230.404 192.943 230.089 193.189 229.914C194.597 229.073 196.039 228.197 197.412 227.322C201.775 224.52 205.963 221.402 209.869 218.075C210.08 217.9 210.432 217.9 210.608 218.145C210.784 218.355 210.784 218.705 210.537 218.88C206.596 222.243 202.373 225.395 197.975 228.233C196.567 229.143 195.16 230.019 193.717 230.859C193.647 230.859 193.576 230.895 193.471 230.895Z" fill="#293560"/>
<path d="M232.178 71.2094C232.213 71.2094 232.213 71.2094 232.178 71.2094C232.459 71.2094 227.392 71.1393 227.392 71.1393C225.175 71.1043 219.897 72.4353 219.897 74.1866C219.861 75.9029 225.069 77.4091 227.322 77.4441C227.322 77.4441 231.931 77.5492 232.072 77.5842C233.163 77.5842 234.078 76.1832 234.113 74.4318C234.113 72.6805 233.269 71.2444 232.178 71.2094Z" fill="white"/>
<path d="M230.243 74.3614C230.208 76.1127 231.053 77.5488 232.108 77.5488C233.164 77.5488 234.044 76.1477 234.079 74.3964C234.114 72.6451 233.27 71.209 232.214 71.209C231.158 71.209 230.278 72.61 230.243 74.3614Z" fill="#293560"/>
<path d="M230.383 75.552L226.547 75.4819C225.034 75.4469 222.325 74.5712 220.354 73.2402C220.073 73.5204 219.897 73.8007 219.897 74.1159C219.861 75.8322 225.069 77.3383 227.322 77.3733L231.791 77.4434C231.122 77.2683 230.594 76.5327 230.383 75.552Z" fill="#8A9CC0"/>
<path d="M232.073 78.0742C231.932 78.0742 227.498 77.9691 227.287 77.9341C225.316 77.899 219.334 76.498 219.369 74.1512C219.369 73.1354 220.495 72.2248 222.642 71.4892C224.225 70.9638 226.196 70.5785 227.392 70.6135L231.439 70.6836C231.686 70.6836 231.897 70.6836 232.073 70.7186C232.108 70.7186 232.143 70.7186 232.178 70.7186C233.551 70.7887 234.606 72.4349 234.571 74.4314C234.606 76.463 233.48 78.0742 232.073 78.0742ZM227.322 71.6643C226.196 71.6643 224.437 72.0146 222.994 72.505C221.234 73.1004 220.425 73.8009 220.425 74.1862C220.425 75.3071 224.824 76.8833 227.322 76.9183C228.906 76.9533 231.967 77.0234 232.073 77.0584C232.776 77.0584 233.551 75.9726 233.551 74.4314C233.586 72.8552 232.847 71.8044 232.143 71.7694C232.143 71.7694 232.143 71.7694 232.108 71.7694L227.392 71.6994C227.392 71.6643 227.357 71.6643 227.322 71.6643Z" fill="#171F39"/>
<path d="M229.01 81.9981L217.046 54.8525L214.336 55.0627C214.336 55.0627 215.498 74.1171 215.357 76.569C215.181 79.0558 213.879 83.1539 213.879 83.1539L229.01 81.9981Z" fill="white"/>
<path d="M228.483 80.8422L217.011 54.8525L215.463 54.9576C216.448 59.3359 219.404 72.7861 219.474 74.8527C219.545 77.3395 218.63 81.5427 218.63 81.5427L228.483 80.8422Z" fill="#293560"/>
<path d="M213.844 83.7139C213.668 83.7139 213.527 83.6438 213.421 83.5037C213.316 83.3636 213.281 83.1885 213.316 83.0133C213.316 82.9783 214.618 78.9503 214.759 76.5685C214.899 74.1516 213.773 55.3074 213.738 55.0972C213.738 54.817 213.949 54.5718 214.231 54.5368L216.94 54.3267C217.152 54.2916 217.363 54.4317 217.468 54.6419L229.433 81.7874C229.503 81.9275 229.503 82.1377 229.397 82.2778C229.292 82.4179 229.151 82.523 228.975 82.523L213.844 83.6788C213.879 83.7139 213.879 83.7139 213.844 83.7139ZM214.864 55.5526C215.04 58.6699 215.99 74.3268 215.85 76.6385C215.744 78.53 214.97 81.297 214.583 82.593L228.201 81.5422L216.694 55.4125L214.864 55.5526Z" fill="#171F39"/>
<path d="M209.516 91.1049C204.202 91.1049 198.853 90.5445 193.645 89.4587L174.573 85.4656L174.502 82.9087L177.564 82.3483L163.699 68.688L169.505 68.5479L188.93 79.9665L251.004 79.8614C251.039 79.8614 256.669 79.5462 260.188 83.329C260.61 83.5742 263.496 85.3956 263.285 86.8317C262.968 89.1434 259.906 90.4044 253.96 90.7196C248.364 90.9998 223.767 91.1049 209.621 91.1399C209.621 91.1049 209.551 91.1049 209.516 91.1049ZM174.925 85.1854L193.716 89.1434C198.888 90.2293 204.202 90.7897 209.516 90.7897C209.551 90.7897 209.621 90.7897 209.656 90.7897C223.802 90.7547 248.4 90.6846 253.995 90.3694C262.51 89.914 262.862 87.5672 262.968 86.7967C263.109 85.7809 260.892 84.1697 260.012 83.6443L259.977 83.6092C256.564 79.9315 251.074 80.2467 251.039 80.2467L188.859 80.3518L169.47 68.9331L164.579 69.0382L178.338 82.5584L174.925 83.1889V85.1854Z" fill="white"/>
<path d="M178.338 82.1024L184.039 72.6803L186.467 72.5752L185.728 81.577L178.338 82.1024Z" fill="white"/>
<path d="M178.337 82.6277C178.161 82.6277 177.986 82.5226 177.88 82.3825C177.774 82.2073 177.774 81.9972 177.88 81.8221L183.581 72.3999C183.686 72.2598 183.827 72.1548 184.003 72.1548L186.431 72.0146C186.572 72.0146 186.748 72.0497 186.853 72.1898C186.959 72.2949 187.029 72.435 186.994 72.6101L186.255 81.6119C186.22 81.8571 186.044 82.0672 185.762 82.1023L178.373 82.6627C178.373 82.6277 178.337 82.6277 178.337 82.6277ZM184.355 73.2055L179.323 81.5068L185.235 81.0865L185.903 73.1355L184.355 73.2055Z" fill="#171F39"/>
<path d="M213.809 94.7471C214.091 94.7822 209.059 94.3268 209.059 94.3268C206.842 94.1166 201.493 95.0624 201.352 96.7787C201.212 98.495 206.279 100.386 208.496 100.597C208.496 100.597 213.106 101.052 213.211 101.087C214.302 101.192 215.323 99.861 215.463 98.1097C215.639 96.3233 214.865 94.8522 213.809 94.7471Z" fill="white"/>
<path d="M215.483 98.051C215.642 96.3171 214.907 94.8335 213.842 94.7372C212.778 94.6409 211.787 95.9685 211.628 97.7023C211.47 99.4362 212.205 100.92 213.269 101.016C214.334 101.112 215.325 99.7849 215.483 98.051Z" fill="#293560"/>
<path d="M211.663 98.9497L207.863 98.5994C206.349 98.4593 203.71 97.3735 201.88 95.9023C201.564 96.1475 201.388 96.4278 201.352 96.743C201.212 98.4593 206.279 100.351 208.496 100.561L212.93 100.981C212.296 100.701 211.839 99.9304 211.663 98.9497Z" fill="#8A9CC0"/>
<path d="M213.316 101.577C213.246 101.577 213.21 101.577 213.14 101.577C213.035 101.577 208.601 101.122 208.425 101.087C207.193 100.981 205.293 100.421 203.78 99.7205C201.704 98.7398 200.718 97.7591 200.789 96.7083C201 94.3615 207.088 93.5909 209.093 93.766L213.14 94.1163C213.386 94.1513 213.598 94.1513 213.774 94.1863C213.809 94.1863 213.809 94.1863 213.844 94.1863H213.879C215.251 94.3615 216.166 96.0778 215.99 98.0743C215.814 100.106 214.653 101.577 213.316 101.577ZM208.284 94.7818C205.715 94.7818 201.95 95.7976 201.844 96.7783C201.809 97.1636 202.513 97.9342 204.237 98.7398C205.645 99.4053 207.404 99.9307 208.53 100.036C210.114 100.211 213.14 100.491 213.246 100.526C213.949 100.596 214.794 99.5804 214.935 98.0393C215.076 96.4981 214.442 95.3422 213.738 95.2722C213.738 95.2722 213.738 95.2722 213.703 95.2722C213.105 95.2021 208.988 94.8518 208.988 94.8518C208.777 94.8168 208.53 94.7818 208.284 94.7818Z" fill="#171F39"/>
<path d="M188.894 79.791L251.003 80.0362C251.003 80.0362 256.106 79.721 259.625 82.9784C259.977 83.2937 263.144 85.3602 263.144 86.7963C263.144 88.1624 261.736 90.1238 253.994 90.5091C248.329 90.7893 222.922 90.8944 209.656 90.9295C204.307 90.9295 198.923 90.404 193.68 89.2832L174.748 85.3252L174.678 83.0485L177.915 82.453L164.086 68.8628L169.435 68.7227L188.894 79.791Z" fill="white"/>
<path d="M167.183 68.793L164.121 68.863L178.021 82.3832L188.085 82.5584L167.183 68.793Z" fill="#293560"/>
<path d="M261.314 85.5004C261.384 86.0959 260.469 86.9015 256.985 87.0766C212.436 89.3884 184.284 85.6756 174.713 83.644L174.748 85.3253L193.68 89.2833C198.923 90.3691 204.272 90.9295 209.656 90.9295C222.922 90.8945 248.329 90.8244 253.994 90.5092C261.736 90.0889 263.143 88.1624 263.143 86.7964C263.143 85.3603 259.976 83.2938 259.624 82.9785C259.624 82.9785 261.173 84.3446 261.314 85.5004Z" fill="#293560"/>
<path d="M257.478 81.5425C256.845 81.2273 255.895 80.807 255.261 80.5968C256.07 81.4725 256.387 82.243 256.035 82.6634C255.296 83.4339 251.742 83.2588 251.742 83.2588L252.235 85.1502C255.402 85.1152 258.111 84.7299 258.323 83.7492C258.534 82.9086 258.111 82.208 257.478 81.5425Z" fill="#293560"/>
<path d="M209.516 91.455C204.167 91.455 198.818 90.8946 193.575 89.8087L174.643 85.8507C174.397 85.8157 174.221 85.6056 174.221 85.3604L174.151 83.0837C174.151 82.8385 174.326 82.5933 174.573 82.5583L176.825 82.1379L163.735 69.2482C163.594 69.1081 163.523 68.8629 163.629 68.6878C163.699 68.4776 163.91 68.3725 164.122 68.3725L169.47 68.2324C169.576 68.2324 169.646 68.2674 169.752 68.3025L189.036 79.2658L250.969 79.511C251.391 79.4759 256.388 79.2658 259.942 82.5933C259.977 82.6283 260.153 82.7684 260.294 82.8735C262.018 84.1695 263.637 85.5005 263.637 86.7965C263.637 89.2833 260.399 90.7194 253.995 91.0347C248.4 91.3149 223.802 91.42 209.621 91.455C209.621 91.455 209.551 91.455 209.516 91.455ZM175.277 84.905L193.786 88.793C198.959 89.8788 204.237 90.4392 209.516 90.4392C209.551 90.4392 209.621 90.4392 209.656 90.4392C223.802 90.4042 248.4 90.3341 253.96 90.0189C259.449 89.7387 262.616 88.5478 262.616 86.7965C262.616 86.166 261.631 85.1502 259.731 83.7141C259.484 83.539 259.344 83.4339 259.273 83.3639C255.965 80.2815 251.109 80.5617 251.039 80.5617C251.039 80.5617 251.039 80.5617 251.004 80.5617L188.895 80.3166C188.789 80.3166 188.719 80.2815 188.648 80.2465L169.365 69.2832L165.388 69.3533L178.303 82.0679C178.444 82.208 178.479 82.4182 178.444 82.5933C178.373 82.7684 178.232 82.9085 178.021 82.9435L175.206 83.4689L175.277 84.905Z" fill="#171F39"/>
<path d="M164.367 87.4616L168.097 88.2672L182.138 85.6753L174.748 84.5194L164.367 87.4616Z" fill="white"/>
<path d="M168.098 88.7927C168.063 88.7927 168.027 88.7927 167.992 88.7927L164.297 87.9871C164.051 87.952 163.875 87.7419 163.875 87.4967C163.875 87.2515 164.016 87.0414 164.262 86.9713L174.608 84.0291C174.678 83.9941 174.748 83.9941 174.819 84.0291L182.209 85.1849C182.455 85.22 182.666 85.4301 182.666 85.7103C182.666 85.9555 182.49 86.2007 182.244 86.2357L168.203 88.8277C168.133 88.7927 168.098 88.7927 168.098 88.7927ZM166.514 87.3916L168.063 87.7419L179.006 85.7103L174.748 85.0448L166.514 87.3916Z" fill="#171F39"/>
<path d="M227.498 89.1432L177.952 104.625L171.09 104.275C171.09 104.275 194.772 94.8876 197.834 93.4515C202.303 91.3849 207.722 88.793 207.722 88.793L227.498 89.1432Z" fill="white"/>
<path d="M204.59 93.7665L174.926 104.38L178.128 104.59L227.498 89.1781L216.168 89.0029C215.006 90.6842 204.59 93.7665 204.59 93.7665Z" fill="#293560"/>
<path d="M177.951 105.15C177.916 105.15 177.916 105.15 177.951 105.15L171.124 104.905C170.878 104.905 170.667 104.73 170.632 104.485C170.596 104.24 170.702 103.994 170.948 103.889C171.089 103.819 186.608 97.0943 197.692 92.9611C201.563 91.525 207.475 88.3727 207.51 88.3376C207.58 88.3026 207.686 88.2676 207.756 88.2676L227.533 88.6178C227.779 88.6178 228.025 88.828 228.06 89.0732C228.096 89.3184 227.955 89.5636 227.709 89.6336L178.162 105.115C178.057 105.15 177.986 105.15 177.951 105.15ZM173.482 103.959L177.881 104.135L224.225 89.6686L207.862 89.3884C206.982 89.8438 201.668 92.6459 198.044 94.0119C189.423 97.1643 178.127 101.963 173.482 103.959Z" fill="#171F39"/>
<path d="M52.2206 74.1515C52.2206 81.1918 40.9601 98.1096 38.2505 102.033C37.969 102.453 37.3708 102.453 37.0893 102.033C35.1538 99.1954 28.8198 89.7383 25.4064 81.9974C24.0341 78.9151 23.1191 76.148 23.1191 74.1515C23.1191 66.1654 29.6291 59.6855 37.6523 59.6855C45.7106 59.6855 52.2206 66.1654 52.2206 74.1515Z" fill="#171F39"/>
<path d="M37.6879 80.7713C41.361 80.7713 44.3386 77.8074 44.3386 74.1513C44.3386 70.4951 41.361 67.5312 37.6879 67.5312C34.0148 67.5312 31.0371 70.4951 31.0371 74.1513C31.0371 77.8074 34.0148 80.7713 37.6879 80.7713Z" fill="white"/>
<path d="M38.989 80.5267C37.4407 80.5267 35.8924 80.0363 34.5904 79.0206C33.0772 77.8647 32.1271 76.1484 31.8808 74.257C31.8456 73.9767 32.0567 73.6965 32.3383 73.6615C32.6198 73.6265 32.9013 73.8366 32.9365 74.1169C33.1476 75.7281 33.957 77.1642 35.259 78.1799C37.9333 80.2465 41.769 79.7561 43.8451 77.0941C45.9213 74.4321 45.4286 70.6142 42.7543 68.5476C41.7338 67.742 40.5021 67.3217 39.2001 67.2867C38.9186 67.2867 38.6723 67.0415 38.7075 66.7613C38.7075 66.4811 38.9538 66.2359 39.2353 66.2709C40.7485 66.306 42.1912 66.8313 43.3877 67.7771C46.5195 70.1939 47.0825 74.6773 44.6545 77.7946C43.2469 79.581 41.1356 80.5267 38.989 80.5267Z" fill="#171F39"/>
<path d="M220.213 21.7521C220.213 28.7924 208.952 45.7102 206.243 49.6331C205.961 50.0535 205.363 50.0535 205.081 49.6331C203.146 46.796 196.812 37.3389 193.399 29.598C192.026 26.5157 191.111 23.7486 191.111 21.7521C191.111 13.766 197.621 7.28613 205.644 7.28613C213.703 7.28613 220.213 13.766 220.213 21.7521Z" fill="#293560"/>
<path d="M205.68 50.5089C205.258 50.5089 204.906 50.2988 204.66 49.9835C202.795 47.2165 196.39 37.6542 192.906 29.8784C191.358 26.4107 190.584 23.7137 190.584 21.7872C190.584 13.521 197.34 6.7959 205.645 6.7959C213.95 6.7959 220.706 13.521 220.706 21.7872C220.706 28.8626 209.938 45.1499 206.665 49.9835C206.454 50.2988 206.102 50.5089 205.68 50.5089ZM205.68 7.81167C197.939 7.81167 191.675 14.0814 191.675 21.7522C191.675 23.5035 192.414 26.0605 193.892 29.388C197.305 37.0938 203.674 46.621 205.539 49.3531C205.575 49.4231 205.645 49.4231 205.68 49.4231C205.715 49.4231 205.786 49.4231 205.821 49.3531C208.143 45.9555 219.685 28.6874 219.685 21.7522C219.685 14.0814 213.422 7.81167 205.68 7.81167Z" fill="#171F39"/>
<path d="M210.372 26.4408C212.969 23.8555 212.969 19.664 210.372 17.0787C207.775 14.4935 203.564 14.4935 200.966 17.0788C198.369 19.664 198.369 23.8555 200.966 26.4408C203.564 29.026 207.775 29.026 210.372 26.4408Z" fill="white"/>
<path d="M206.983 28.1273C205.435 28.1273 203.887 27.6369 202.585 26.6212C201.071 25.4653 200.121 23.749 199.875 21.8576C199.84 21.5773 200.051 21.2971 200.332 21.2621C200.614 21.2271 200.895 21.4372 200.931 21.7174C201.142 23.3287 201.951 24.7647 203.253 25.7805C205.927 27.8471 209.763 27.3567 211.839 24.6947C213.915 22.0327 213.423 18.2148 210.748 16.1482C209.728 15.3426 208.496 14.9223 207.194 14.8873C206.913 14.8873 206.666 14.6421 206.702 14.3619C206.702 14.0817 206.983 13.8365 207.229 13.8715C208.743 13.9065 210.185 14.4319 211.382 15.3777C214.514 17.7945 215.077 22.2779 212.649 25.3952C211.241 27.1816 209.13 28.1273 206.983 28.1273Z" fill="#171F39"/>
<path d="M119.046 50.1941C118.835 50.1941 118.623 50.054 118.553 49.8088C118.483 49.5286 118.623 49.2484 118.905 49.1433C119.82 48.8631 120.7 48.5829 121.615 48.3377C121.896 48.2677 122.178 48.4078 122.283 48.688C122.354 48.9682 122.213 49.2484 121.931 49.3535C121.052 49.5987 120.137 49.8789 119.257 50.1591C119.151 50.1941 119.116 50.1941 119.046 50.1941ZM202.69 49.9139C202.62 49.9139 202.585 49.9139 202.515 49.8789L201.987 49.7037C201.705 49.5987 201.564 49.3185 201.635 49.0382C201.74 48.758 202.022 48.6179 202.303 48.688L202.831 48.8631C203.113 48.9682 203.254 49.2484 203.148 49.5286C203.113 49.7738 202.902 49.9139 202.69 49.9139ZM199.488 48.8981C199.453 48.8981 199.383 48.8981 199.348 48.8631C198.468 48.5829 197.553 48.3377 196.673 48.0925C196.392 48.0225 196.216 47.7072 196.321 47.462C196.392 47.1818 196.673 47.0067 196.955 47.1118C197.87 47.357 198.784 47.6372 199.664 47.9174C199.946 47.9874 200.086 48.3027 200.016 48.5829C199.946 48.758 199.735 48.8981 199.488 48.8981ZM124.465 48.6529C124.219 48.6529 124.007 48.5128 123.972 48.2677C123.902 47.9874 124.078 47.7072 124.359 47.6372C125.274 47.392 126.189 47.1468 127.104 46.9366C127.386 46.8666 127.667 47.0417 127.737 47.3219C127.808 47.6022 127.632 47.8824 127.35 47.9524C126.435 48.1626 125.521 48.4078 124.641 48.6529C124.57 48.6529 124.5 48.6529 124.465 48.6529ZM194.069 47.392C194.034 47.392 193.999 47.392 193.928 47.392C193.013 47.1468 192.099 46.9366 191.219 46.7265C190.937 46.6564 190.761 46.3762 190.832 46.096C190.902 45.8158 191.184 45.6407 191.465 45.7107C192.38 45.9209 193.295 46.131 194.21 46.3762C194.491 46.4463 194.667 46.7265 194.597 47.0067C194.527 47.2519 194.315 47.392 194.069 47.392ZM129.919 47.2869C129.673 47.2869 129.462 47.1118 129.391 46.8666C129.321 46.5864 129.497 46.3062 129.778 46.2361C130.693 46.026 131.608 45.8158 132.523 45.6407C132.805 45.5706 133.086 45.7457 133.157 46.061C133.227 46.3412 133.051 46.6214 132.734 46.6915C131.819 46.8666 130.905 47.0768 129.99 47.2869C130.025 47.2869 129.954 47.2869 129.919 47.2869ZM188.58 46.131C188.544 46.131 188.509 46.131 188.474 46.131C187.559 45.9559 186.644 45.7808 185.729 45.6056C185.448 45.5706 185.237 45.2904 185.307 45.0102C185.342 44.73 185.624 44.5198 185.905 44.5899C186.82 44.765 187.77 44.9401 188.685 45.1153C188.967 45.1853 189.143 45.4655 189.107 45.7457C189.037 45.9559 188.826 46.131 188.58 46.131ZM135.444 46.131C135.198 46.131 134.986 45.9559 134.916 45.7107C134.846 45.4305 135.057 45.1503 135.338 45.0802C136.253 44.9051 137.203 44.73 138.118 44.5899C138.4 44.5548 138.681 44.73 138.717 45.0102C138.752 45.2904 138.576 45.5706 138.294 45.6056C137.379 45.7457 136.464 45.9209 135.549 46.096C135.514 46.131 135.479 46.131 135.444 46.131ZM141.004 45.1853C140.757 45.1853 140.511 45.0102 140.476 44.73C140.441 44.4498 140.617 44.1696 140.933 44.1345C141.848 43.9944 142.798 43.8543 143.713 43.7492C143.995 43.7142 144.276 43.9244 144.312 44.2046C144.347 44.4848 144.136 44.765 143.854 44.8C142.939 44.9051 141.989 45.0452 141.074 45.1853C141.039 45.1853 141.004 45.1853 141.004 45.1853ZM183.055 45.1503C183.02 45.1503 182.985 45.1503 182.985 45.1503C182.07 45.0102 181.119 44.8701 180.205 44.73C179.923 44.6949 179.712 44.4147 179.747 44.1345C179.782 43.8543 180.064 43.6442 180.345 43.6792C181.26 43.8193 182.21 43.9594 183.125 44.0995C183.407 44.1345 183.618 44.4147 183.548 44.695C183.512 44.9401 183.301 45.1503 183.055 45.1503ZM146.564 44.4498C146.282 44.4498 146.071 44.2396 146.036 43.9944C146.001 43.7142 146.212 43.434 146.493 43.399C147.443 43.2939 148.358 43.1888 149.308 43.1188C149.59 43.0837 149.871 43.2939 149.871 43.6091C149.907 43.8893 149.696 44.1696 149.379 44.1696C148.464 44.2396 147.514 44.3447 146.599 44.4498C146.599 44.4498 146.599 44.4498 146.564 44.4498ZM177.46 44.3797C177.425 44.3797 177.425 44.3797 177.389 44.3797C176.475 44.2746 175.524 44.1696 174.609 44.0995C174.328 44.0645 174.117 43.8193 174.117 43.5391C174.152 43.2589 174.398 43.0487 174.68 43.0487C175.63 43.1188 176.545 43.2238 177.495 43.3289C177.777 43.3639 177.988 43.6091 177.952 43.9244C177.952 44.1696 177.741 44.3797 177.46 44.3797ZM152.159 43.9244C151.877 43.9244 151.666 43.7142 151.631 43.434C151.596 43.1538 151.842 42.9086 152.124 42.8736C153.074 42.8035 154.024 42.7335 154.939 42.6984C155.22 42.6984 155.467 42.9086 155.502 43.1888C155.502 43.469 155.291 43.7142 155.009 43.7492C154.094 43.7843 153.144 43.8543 152.194 43.9244C152.194 43.9244 152.194 43.9244 152.159 43.9244ZM171.865 43.8543H171.83C170.915 43.7843 169.965 43.7492 169.014 43.6792C168.733 43.6792 168.487 43.434 168.522 43.1188C168.522 42.8385 168.768 42.5934 169.085 42.6284C170.035 42.6634 170.985 42.7335 171.9 42.8035C172.181 42.8385 172.393 43.0837 172.393 43.3639C172.357 43.6442 172.146 43.8543 171.865 43.8543ZM157.789 43.6091C157.508 43.6091 157.261 43.399 157.261 43.1188C157.261 42.8385 157.472 42.5934 157.754 42.5583C158.704 42.5233 159.654 42.4883 160.569 42.4883C160.851 42.4883 161.097 42.7335 161.097 43.0137C161.097 43.2939 160.851 43.5391 160.569 43.5391C159.689 43.5741 158.739 43.5741 157.789 43.6091C157.824 43.6091 157.789 43.6091 157.789 43.6091ZM166.234 43.6091C165.284 43.5741 164.334 43.5741 163.419 43.5741C163.138 43.5741 162.891 43.3289 162.891 43.0487C162.891 42.7685 163.138 42.5233 163.419 42.5233C164.369 42.5233 165.32 42.5583 166.234 42.5583C166.516 42.5583 166.762 42.8035 166.762 43.0837C166.762 43.3639 166.516 43.6091 166.234 43.6091Z" fill="#293560"/>
<path d="M41.1709 102.978C41.0653 102.978 40.9598 102.943 40.8542 102.873C40.6079 102.698 40.5727 102.348 40.7486 102.138C41.3117 101.402 41.9099 100.666 42.5081 99.9309C42.684 99.7207 43.0359 99.6857 43.2471 99.8608C43.4582 100.036 43.4934 100.386 43.3174 100.596C42.7192 101.297 42.1562 102.032 41.558 102.768C41.4876 102.908 41.3469 102.978 41.1709 102.978ZM44.725 98.6349C44.6194 98.6349 44.4787 98.5999 44.3731 98.4948C44.162 98.3196 44.1268 97.9694 44.3027 97.7592C44.901 97.0587 45.5344 96.3231 46.1326 95.6226C46.3085 95.4124 46.6604 95.3774 46.8716 95.5876C47.0827 95.7627 47.1179 96.113 46.9067 96.3231C46.3085 97.0237 45.6751 97.7242 45.0769 98.4247C45.0065 98.5648 44.8658 98.6349 44.725 98.6349ZM48.4199 94.4317C48.2791 94.4317 48.1736 94.3967 48.068 94.2916C47.8569 94.0814 47.8217 93.7662 48.0328 93.556C48.6662 92.8555 49.2996 92.155 49.9682 91.4895C50.1793 91.2793 50.496 91.2793 50.7072 91.4545C50.9183 91.6646 50.9183 91.9799 50.7424 92.19C50.109 92.8555 49.4756 93.556 48.8422 94.2215C48.7366 94.3616 48.5606 94.4317 48.4199 94.4317ZM52.2907 90.3686C52.1499 90.3686 52.0092 90.3336 51.9036 90.2285C51.6925 90.0184 51.6925 89.7031 51.9036 89.493C52.5722 88.8275 53.2408 88.162 53.9094 87.4965C54.1205 87.2863 54.4372 87.2863 54.6484 87.4965C54.8595 87.7066 54.8595 88.0219 54.6484 88.232C53.9798 88.8975 53.3112 89.563 52.6778 90.1935C52.5722 90.2986 52.4315 90.3686 52.2907 90.3686ZM56.3375 86.4457C56.1967 86.4457 56.0559 86.3756 55.9504 86.2705C55.7392 86.0604 55.7744 85.7101 55.9856 85.535C56.6542 84.9045 57.3579 84.239 58.0617 83.6085C58.2729 83.3984 58.6248 83.4334 58.8007 83.6435C59.0118 83.8537 58.9766 84.204 58.7655 84.3791C58.0617 85.0096 57.3931 85.6401 56.7245 86.2705C56.5838 86.3756 56.443 86.4457 56.3375 86.4457ZM60.4898 82.6628C60.349 82.6628 60.2083 82.5928 60.1027 82.4877C59.9268 82.2775 59.9267 81.9272 60.1379 81.7521C60.8417 81.1567 61.5455 80.5262 62.2844 79.9307C62.4956 79.7556 62.8475 79.7556 63.0234 80.0008C63.1993 80.2109 63.1993 80.5612 62.953 80.7363C62.2492 81.3318 61.5103 81.9623 60.8417 82.5577C60.7361 82.6278 60.5953 82.6628 60.4898 82.6628ZM64.7829 79.0551C64.6421 79.0551 64.4662 78.985 64.3606 78.8449C64.1846 78.6348 64.2198 78.2845 64.431 78.1094C65.1699 77.5139 65.9089 76.9185 66.6479 76.358C66.8942 76.1829 67.2109 76.2179 67.3869 76.4631C67.5628 76.7083 67.5276 77.0235 67.2813 77.1987C66.5423 77.7591 65.8033 78.3545 65.0996 78.95C65.0292 79.02 64.9236 79.0551 64.7829 79.0551ZM69.2167 75.5875C69.0408 75.5875 68.9 75.5174 68.7944 75.3773C68.6185 75.1321 68.6537 74.8169 68.9 74.6417C69.639 74.0813 70.4131 73.5209 71.1521 72.9605C71.3984 72.7853 71.7151 72.8554 71.8911 73.0656C72.067 73.3107 71.9966 73.626 71.7855 73.8011C71.0465 74.3615 70.2724 74.922 69.5334 75.4824C69.4278 75.5524 69.3223 75.5875 69.2167 75.5875ZM73.7561 72.295C73.5802 72.295 73.4394 72.2249 73.3338 72.0848C73.1579 71.8396 73.2283 71.5244 73.4746 71.3493C74.2488 70.8239 75.0229 70.2634 75.7971 69.738C76.0434 69.5629 76.3601 69.633 76.5361 69.8781C76.712 70.1233 76.6416 70.4386 76.3953 70.6137C75.6211 71.1391 74.847 71.6645 74.0728 72.1899C73.9672 72.2599 73.8617 72.295 73.7561 72.295ZM78.4363 69.1426C78.2603 69.1426 78.0844 69.0725 77.9788 68.8974C77.8029 68.6522 77.8732 68.337 78.1196 68.1618C78.8937 67.6364 79.7031 67.1461 80.5124 66.6557C80.7588 66.5156 81.0755 66.5857 81.2514 66.8308C81.3922 67.076 81.3218 67.3913 81.0755 67.5664C80.3013 68.0568 79.4919 68.5471 78.7178 69.0725C78.6122 69.1426 78.5418 69.1426 78.4363 69.1426ZM83.1868 66.1653C83.0109 66.1653 82.8349 66.0603 82.7294 65.9201C82.5886 65.675 82.659 65.3597 82.9053 65.1846C83.7147 64.6942 84.524 64.2039 85.3334 63.7485C85.5797 63.6084 85.8964 63.6785 86.0371 63.9236C86.1779 64.1688 86.1075 64.4841 85.8612 64.6242C85.0518 65.0795 84.2425 65.5699 83.4331 66.0603C83.3979 66.1653 83.2924 66.1653 83.1868 66.1653ZM88.0781 63.3632C87.9022 63.3632 87.7262 63.2581 87.6207 63.083C87.4799 62.8378 87.5855 62.5226 87.8318 62.3825C88.6411 61.9271 89.4857 61.4718 90.295 61.0515C90.5414 60.9114 90.8581 61.0164 90.9988 61.2616C91.1396 61.5068 91.034 61.822 90.7877 61.9622C89.9783 62.4175 89.1338 62.8378 88.3244 63.2932C88.2541 63.3632 88.1485 63.3632 88.0781 63.3632ZM93.0398 60.7362C92.8638 60.7362 92.6527 60.6312 92.5823 60.456C92.4416 60.2108 92.5471 59.8956 92.8286 59.7555C93.6732 59.3352 94.5177 58.9149 95.3623 58.4945C95.6086 58.3544 95.9253 58.4595 96.0661 58.7397C96.2068 58.9849 96.1012 59.3001 95.8197 59.4402C94.9752 59.8606 94.1307 60.2809 93.3213 60.7012C93.2157 60.7012 93.1102 60.7362 93.0398 60.7362ZM98.107 58.2494C97.8959 58.2494 97.7199 58.1443 97.6144 57.9341C97.4736 57.6539 97.6144 57.3737 97.8607 57.2336C98.7052 56.8483 99.585 56.428 100.43 56.0777C100.711 55.9726 100.993 56.0777 101.133 56.3579C101.239 56.6381 101.133 56.9183 100.852 57.0584C100.007 57.4437 99.1275 57.829 98.283 58.2143C98.2478 58.2493 98.1774 58.2494 98.107 58.2494ZM103.245 55.9726C103.034 55.9726 102.858 55.8675 102.752 55.6574C102.646 55.3772 102.752 55.097 103.034 54.9569C103.913 54.6066 104.758 54.2213 105.638 53.871C105.919 53.766 106.201 53.9061 106.341 54.1513C106.447 54.4315 106.306 54.7117 106.06 54.8518C105.215 55.202 104.336 55.5523 103.456 55.9376C103.385 55.9726 103.315 55.9726 103.245 55.9726ZM108.453 53.871C108.242 53.871 108.03 53.7309 107.96 53.5208C107.854 53.2406 107.995 52.9603 108.277 52.8553C109.156 52.505 110.036 52.1898 110.916 51.8745C111.197 51.7695 111.479 51.9096 111.584 52.1898C111.69 52.47 111.549 52.7502 111.268 52.8553C110.388 53.1705 109.508 53.5208 108.629 53.836C108.593 53.836 108.523 53.871 108.453 53.871ZM113.731 51.9446C113.52 51.9446 113.309 51.8045 113.238 51.5943C113.133 51.3141 113.274 51.0339 113.555 50.9288C114.435 50.6136 115.35 50.3334 116.229 50.0181C116.511 49.913 116.793 50.0882 116.898 50.3684C117.004 50.6486 116.828 50.9288 116.546 51.0339C115.666 51.3141 114.752 51.6293 113.872 51.9096C113.837 51.9096 113.801 51.9446 113.731 51.9446Z" fill="#171F39"/>
<path d="M118.059 56.2531C120.683 56.2531 122.81 54.136 122.81 51.5245C122.81 48.913 120.683 46.7959 118.059 46.7959C115.435 46.7959 113.309 48.913 113.309 51.5245C113.309 54.136 115.435 56.2531 118.059 56.2531Z" fill="#293560"/>
<path d="M126.611 290.475C125.802 285.326 125.274 281.403 125.274 281.403L68.1621 290.23C68.1621 290.23 68.1621 290.3 68.127 290.475H126.611Z" fill="#171F39"/>
<path d="M92.1238 175.554L93.461 148.898L112.815 158.951L112.428 175.799C112.252 179.547 109.331 188.829 109.331 188.829C105.32 191.701 99.4431 183.89 95.4316 181.053L94.5166 180.387C92.8979 179.266 92.0182 177.445 92.1238 175.554Z" fill="white"/>
<path d="M107.36 189.984C104.545 189.984 101.413 187.077 98.5632 184.45C97.2964 183.294 96.1351 182.209 95.0794 181.473L94.1645 180.808C92.4403 179.582 91.4901 177.62 91.6309 175.519L92.9681 148.863C92.9681 148.688 93.0737 148.513 93.2496 148.443C93.3904 148.338 93.6015 148.338 93.7422 148.443L113.096 158.496C113.272 158.601 113.378 158.776 113.378 158.986L112.991 175.834C112.815 179.617 109.964 188.618 109.859 189.004C109.824 189.109 109.753 189.214 109.648 189.284C108.909 189.739 108.135 189.984 107.36 189.984ZM93.9534 149.739L92.6866 175.589C92.581 177.305 93.3904 178.951 94.7979 179.967L95.7128 180.632C96.8037 181.403 98.0353 182.524 99.3021 183.715C102.575 186.727 106.27 190.16 108.874 188.513C109.261 187.217 111.724 179.161 111.9 175.799L112.287 159.301L93.9534 149.739Z" fill="#171F39"/>
<path d="M122.106 118.671C116.898 118.32 123.372 123.679 104.23 117.9C96.5935 115.588 100.359 124.485 98.3881 123.89C91.0687 121.718 91.3151 121.788 87.7258 122.664C85.3329 123.259 83.7494 127.567 84.1717 130.79C84.6995 135.063 88.2536 136.184 91.3151 145.256C93.4616 151.595 92.8634 155.448 95.4322 156.394C98.001 157.34 99.9716 153.942 102.857 154.783C106.622 155.869 105.778 162.314 109.438 165.011C111.725 166.727 117.109 167.568 125.765 163.504C127.173 162.839 127.912 161.298 127.525 159.792C127.032 157.865 126.364 155.483 125.554 153.207C121.648 142.489 117.813 140.002 119.255 137.27C121.437 133.066 129.531 135.588 130.903 132.121C132.31 128.548 129.214 119.161 122.106 118.671Z" fill="#171F39"/>
<path d="M103.771 136.849L105.214 139.616C105.883 140.912 106.481 142.278 107.009 143.644C107.959 146.236 109.718 150.615 110.704 153.101C113.836 161.052 123.794 152.471 123.794 152.471L124.498 150.299L125.835 149.774C126.081 149.669 126.328 149.529 126.504 149.319C126.926 148.793 126.961 148.058 126.574 147.532C124.639 144.625 120.557 138.075 119.149 132.226C119.149 132.191 110.704 129.949 103.771 136.849Z" fill="white"/>
<path d="M104.265 136.954C104.617 137.515 104.933 138.04 105.215 138.565C105.355 138.846 105.531 139.091 105.672 139.371C105.848 139.686 105.989 140.001 106.165 140.317C106.482 140.947 106.763 141.578 107.045 142.243C107.326 142.909 107.537 143.574 107.784 144.205C108.769 146.797 109.789 149.354 110.81 151.945L111.197 152.926C111.302 153.241 111.443 153.522 111.619 153.802C111.936 154.362 112.323 154.853 112.816 155.203C113.766 155.939 115.103 156.079 116.37 155.833C117.637 155.588 118.903 155.028 120.065 154.397C121.226 153.732 122.387 152.961 123.408 152.086L123.267 152.331L123.971 150.159C124.006 150.019 124.147 149.879 124.287 149.844C124.71 149.669 125.132 149.564 125.554 149.424C125.941 149.319 126.187 149.178 126.363 148.828C126.504 148.513 126.504 148.163 126.328 147.847C126.328 147.812 126.293 147.777 126.258 147.742L126.152 147.602L125.976 147.322L125.624 146.762C124.639 145.255 123.724 143.749 122.845 142.208C121.12 139.091 119.537 135.868 118.622 132.331L119.009 132.716C118.411 132.576 117.707 132.471 117.038 132.436C116.37 132.401 115.701 132.366 114.997 132.401C113.66 132.471 112.288 132.681 111.021 133.101C109.719 133.487 108.487 134.047 107.326 134.747C106.763 135.098 106.2 135.483 105.672 135.903C105.391 136.114 105.144 136.324 104.898 136.534L104.792 136.604L104.722 136.674C104.687 136.709 104.652 136.744 104.581 136.779C104.511 136.849 104.405 136.884 104.265 136.954ZM103.244 136.779C103.385 136.604 103.526 136.394 103.702 136.219C103.772 136.114 103.878 136.043 103.948 135.938L104.089 135.833L104.194 135.728C104.476 135.483 104.722 135.238 105.004 135.028C105.567 134.572 106.165 134.187 106.763 133.767C107.995 133.031 109.332 132.436 110.704 132.015C112.077 131.595 113.519 131.35 114.962 131.28C115.666 131.245 116.405 131.245 117.109 131.315C117.848 131.385 118.516 131.455 119.29 131.63C119.466 131.665 119.607 131.84 119.677 132.015C120.065 133.697 120.663 135.343 121.331 136.954C122 138.565 122.774 140.177 123.583 141.718C124.428 143.259 125.308 144.8 126.258 146.271L126.61 146.832L126.786 147.112L126.891 147.252C126.926 147.322 126.962 147.357 126.997 147.427C127.243 147.917 127.278 148.513 127.032 149.038C126.926 149.283 126.786 149.529 126.575 149.739C126.363 149.949 126.117 150.089 125.906 150.159C125.519 150.334 125.097 150.544 124.674 150.72L124.991 150.404L124.287 152.576C124.252 152.681 124.217 152.751 124.147 152.821C123.02 153.732 121.894 154.537 120.628 155.273C119.396 155.974 118.059 156.569 116.581 156.849C115.842 156.989 115.068 157.059 114.329 156.919C113.555 156.814 112.78 156.499 112.147 156.044C111.514 155.588 111.021 154.958 110.669 154.292C110.493 153.977 110.317 153.627 110.176 153.276L109.789 152.366C108.769 149.774 107.713 147.217 106.763 144.59C106.517 143.924 106.306 143.294 106.024 142.663C105.778 142.033 105.496 141.403 105.215 140.807C105.074 140.492 104.898 140.212 104.757 139.896L104.229 138.881C103.878 138.145 103.561 137.48 103.244 136.779Z" fill="#171F39"/>
<path d="M105.744 146.481C105.744 146.481 102.26 139.826 99.5504 142.068C96.8408 144.275 100.888 151.49 105.744 146.481Z" fill="white"/>
<path d="M118.974 147.848C118.833 147.848 118.727 147.848 118.587 147.813C118.059 147.778 117.531 147.357 117.109 146.657C116.299 145.291 115.842 142.804 117.038 139.791C117.249 139.301 117.672 138.881 118.235 138.671C118.938 138.39 119.748 138.425 120.487 138.741C121.507 139.196 122.035 140.317 122.141 142.173C122.246 144.555 121.824 146.201 120.909 147.077C120.416 147.602 119.748 147.848 118.974 147.848ZM119.29 139.546C119.079 139.546 118.868 139.581 118.657 139.651C118.375 139.756 118.129 139.967 118.024 140.212C116.968 142.839 117.32 145.01 117.988 146.131C118.27 146.587 118.551 146.762 118.657 146.797C119.29 146.867 119.783 146.727 120.17 146.376C120.874 145.711 121.191 144.31 121.085 142.278C120.979 140.142 120.311 139.861 120.065 139.756C119.818 139.581 119.537 139.546 119.29 139.546Z" fill="#171F39"/>
<path d="M102.612 141.402C102.33 141.402 102.119 141.192 102.084 140.947C102.049 140.667 102.26 140.387 102.541 140.352L118.799 138.495C119.08 138.46 119.362 138.67 119.397 138.951C119.432 139.231 119.221 139.511 118.94 139.546L102.682 141.402C102.647 141.402 102.612 141.402 102.612 141.402Z" fill="#171F39"/>
<path d="M126.083 146.236C125.871 146.236 125.695 146.131 125.59 145.921C125.484 145.676 125.59 145.361 125.836 145.256C126.258 144.905 127.385 141.823 126.118 139.581C125.942 139.231 125.695 139.056 125.344 138.986C124.429 138.811 123.127 139.616 122.704 139.932C122.458 140.107 122.141 140.072 121.965 139.827C121.789 139.581 121.825 139.266 122.071 139.091C122.282 138.951 124.042 137.655 125.555 137.935C126.188 138.075 126.681 138.426 127.033 139.021C128.018 140.772 127.842 143.014 127.349 144.52C127.173 145.046 126.822 145.921 126.294 146.166C126.223 146.236 126.153 146.236 126.083 146.236Z" fill="#171F39"/>
<path d="M129.848 205.186C129.848 205.186 135.197 226.797 140.335 232.892C145.437 238.986 155.677 246.096 167.677 247.112C167.677 247.112 174.468 246.692 170.21 258.916C169.507 260.913 167.747 262.314 165.636 262.524C156.416 263.47 130.658 264.135 120.699 244.03C108.383 219.406 129.848 205.186 129.848 205.186Z" fill="#171F39"/>
<path d="M65.4863 290.476H130.762C128.932 278.146 126.117 253.067 129.847 234.468C131.994 223.855 136.744 206.307 124.745 190.58C122 187.007 116.581 180.703 114.153 176.92L111.197 179.862C110.599 180.002 110.001 184.555 109.297 184.661C102.083 185.922 100.042 182.629 95.01 177.34L90.6114 173.172C90.6114 173.172 87.4795 174.923 81.8493 179.722C76.1838 184.485 67.5976 184.766 62.6008 196.605C53.909 217.2 56.4427 261.474 64.5362 283.891C65.1344 285.502 65.3807 287.989 65.4863 290.476Z" fill="#171F39"/>
<path d="M128.018 256.744C127.737 256.744 127.49 256.499 127.49 256.219C127.49 247.813 128.124 240.457 129.355 234.327C129.496 233.627 129.637 232.891 129.813 232.121C130.446 229.108 131.15 225.676 131.607 221.963C131.643 221.683 131.924 221.473 132.206 221.508C132.487 221.543 132.698 221.823 132.663 222.103C132.206 225.851 131.467 229.284 130.833 232.331C130.692 233.101 130.516 233.802 130.376 234.503C129.144 240.562 128.546 247.883 128.546 256.184C128.546 256.534 128.3 256.744 128.018 256.744Z" fill="#8A9CC0"/>
<path d="M169.331 251.211C168.31 252.717 165.108 256.745 168.909 259.232C169.894 259.862 175.841 260.668 177.424 261.438C179.747 262.559 181.471 264.941 185.06 266.272C191.711 268.759 195.828 267.113 199.347 263.47C202.866 259.862 193.013 247.778 185.975 248.374C178.937 248.934 170.809 249.004 169.331 251.211Z" fill="white"/>
<path d="M190.796 267.918C188.966 267.918 186.996 267.498 184.849 266.692C182.632 265.887 181.119 264.696 179.782 263.61C178.902 262.91 178.057 262.279 177.178 261.824C176.439 261.473 174.539 261.088 172.849 260.738C170.597 260.283 169.155 259.967 168.627 259.617C167.536 258.917 166.867 258.006 166.656 256.92C166.234 254.713 167.817 252.437 168.697 251.211C168.768 251.106 168.838 251.001 168.908 250.895C170.281 248.899 175.594 248.549 181.752 248.128C183.125 248.023 184.567 247.953 185.94 247.813C191.218 247.358 197.517 253.417 199.699 257.936C200.895 260.458 200.93 262.559 199.734 263.785C196.989 266.552 194.139 267.918 190.796 267.918ZM169.753 251.491C169.682 251.596 169.612 251.701 169.506 251.841C168.732 252.962 167.29 254.994 167.641 256.745C167.782 257.551 168.31 258.216 169.155 258.776C169.577 259.057 171.477 259.442 173.025 259.757C174.961 260.142 176.755 260.528 177.6 260.948C178.585 261.438 179.465 262.104 180.415 262.84C181.682 263.855 183.16 264.976 185.201 265.747C190.937 267.883 195.054 267.078 198.925 263.085C200.086 261.894 199.277 259.652 198.678 258.426C196.426 253.698 190.374 248.514 185.975 248.899C184.603 249.004 183.16 249.109 181.788 249.214C176.404 249.529 170.808 249.915 169.753 251.491Z" fill="#171F39"/>
<path d="M174.996 253.207C174.468 252.262 174.785 251.176 175.489 250.335C177.178 248.374 180.732 244.696 183.23 244.906C186.186 245.151 189.916 248.409 188.79 254.013C188.051 257.586 184.849 255.834 184.427 254.433C183.969 252.927 183.301 251.281 182.526 251.946C181.647 252.682 176.931 256.745 174.996 253.207Z" fill="white"/>
<path d="M186.819 256.605C185.482 256.605 184.18 255.519 183.899 254.538C183.336 252.752 182.984 252.367 182.878 252.297C181.787 253.277 179.007 255.484 176.72 255.099C175.805 254.924 175.066 254.398 174.538 253.452C173.94 252.402 174.151 251.071 175.101 249.985C177.424 247.288 180.732 244.135 183.301 244.381C185.025 244.521 186.819 245.572 187.981 247.148C188.966 248.479 190.022 250.755 189.318 254.118C188.896 256.22 187.664 256.605 186.96 256.64C186.89 256.605 186.855 256.605 186.819 256.605ZM182.878 251.246C182.984 251.246 183.054 251.246 183.125 251.281C183.793 251.456 184.321 252.367 184.919 254.258C185.095 254.889 186.08 255.624 186.89 255.589C187.734 255.554 188.086 254.643 188.262 253.908C188.86 250.931 187.981 248.934 187.101 247.778C186.116 246.447 184.603 245.537 183.16 245.431C181.541 245.291 178.867 247.218 175.876 250.685C175.383 251.246 174.996 252.157 175.453 252.962C175.805 253.628 176.263 253.978 176.896 254.083C178.761 254.398 181.4 252.227 182.174 251.526C182.421 251.316 182.667 251.246 182.878 251.246Z" fill="#171F39"/>
<path d="M116.758 225.116C109.192 206.202 101.064 188.478 91.6328 173.627C98.4595 178.461 104.301 185.291 112.641 179.616C114.928 193.102 118.306 209.354 116.758 225.116Z" fill="#293560"/>
<path d="M91.9127 170.965C97.367 175.028 105.425 178.566 110.985 179.196C109.261 184.275 110.563 184.836 106.587 189.249C96.4873 183.4 94.5167 177.76 90.3996 172.506C89.5902 171.491 90.8922 170.195 91.9127 170.965Z" fill="#293560"/>
<path d="M106.587 189.774C106.482 189.774 106.411 189.739 106.306 189.704C98.4939 185.151 95.5028 180.807 92.6173 176.569C91.7376 175.273 90.893 174.047 89.9429 172.856C89.4151 172.191 89.4855 171.35 90.0485 170.755C90.6467 170.159 91.5264 170.089 92.195 170.58C97.7197 174.678 105.637 178.075 111.021 178.706C111.197 178.741 111.338 178.811 111.408 178.951C111.479 179.091 111.514 179.266 111.479 179.406C110.951 180.983 110.705 182.103 110.493 183.084C110.036 185.221 109.754 186.517 106.939 189.634C106.869 189.704 106.728 189.774 106.587 189.774ZM91.2449 171.245C91.0338 171.245 90.8578 171.385 90.8227 171.42C90.7523 171.49 90.506 171.806 90.7875 172.156C91.7728 173.417 92.6525 174.678 93.497 175.939C96.277 180.002 99.1273 184.205 106.482 188.548C108.84 185.886 109.086 184.765 109.473 182.804C109.649 181.963 109.86 180.948 110.282 179.617C104.758 178.811 97.0159 175.413 91.5968 171.385C91.4561 171.28 91.3505 171.245 91.2449 171.245Z" fill="#171F39"/>
<path d="M110.564 180.666C113.028 177.724 113.661 174.502 112.887 171.034C117.18 173.661 119.327 178.039 120.241 183.364C117.25 180.491 113.626 180.491 110.564 180.666Z" fill="#293560"/>
<path d="M120.241 183.889C120.1 183.889 119.959 183.854 119.889 183.749C117.109 181.052 113.66 181.017 110.634 181.192C110.423 181.192 110.212 181.087 110.141 180.912C110.036 180.737 110.071 180.492 110.212 180.352C112.464 177.655 113.203 174.677 112.429 171.175C112.394 170.964 112.464 170.754 112.64 170.649C112.816 170.544 113.027 170.509 113.238 170.614C117.32 173.136 119.818 177.269 120.839 183.329C120.874 183.539 120.769 183.784 120.557 183.889C120.417 183.889 120.311 183.889 120.241 183.889ZM112.358 180.071C114.716 180.071 117.179 180.422 119.431 182.033C118.446 177.585 116.511 174.327 113.625 172.155C113.977 175.063 113.344 177.725 111.69 180.071C111.901 180.071 112.112 180.071 112.358 180.071Z" fill="#171F39"/>
<path d="M50.7781 290.475C53.2413 244.065 64.713 238.076 80.1259 222.769C90.2956 212.646 90.1196 202.944 88.4305 196.919C87.4452 193.417 85.1931 190.44 82.1668 188.443C79.9851 187.042 73.8622 185.08 71.4341 185.921C56.1268 191.07 41.3474 229.634 35.3652 246.377C31.1073 258.251 31.6351 277.831 32.5501 290.475H50.7781Z" fill="#171F39"/>
<path d="M76.6782 226.622C76.5375 226.622 76.3967 226.552 76.2912 226.446C76.08 226.236 76.08 225.921 76.2912 225.711C77.2765 224.765 78.4729 223.609 79.7045 222.383C89.5575 212.576 89.5927 203.189 87.8684 197.059C87.1998 194.677 85.933 192.506 84.1384 190.754C83.9272 190.544 83.9272 190.229 84.1384 190.019C84.3495 189.809 84.6662 189.809 84.8773 190.019C86.7775 191.91 88.1851 194.257 88.8889 196.779C90.6835 203.189 90.6484 212.961 80.4435 223.119C79.2119 224.345 78.0154 225.501 76.9949 226.481C76.9598 226.552 76.819 226.622 76.6782 226.622Z" fill="#8A9CC0"/>
<path d="M281.724 273.523C281.724 284.871 257.443 286.693 241.573 286.693C225.738 286.693 224.225 281.474 224.225 270.125C224.225 258.776 237.069 249.564 252.904 249.564C268.774 249.564 281.724 262.174 281.724 273.523Z" fill="#171F39"/>
<path d="M241.573 287.218C225.457 287.218 223.697 281.754 223.697 270.125C223.697 258.496 236.788 249.039 252.904 249.039C269.408 249.039 282.217 262.209 282.217 273.523C282.252 284.836 260.153 287.218 241.573 287.218ZM252.94 250.09C237.421 250.09 224.788 259.057 224.788 270.125C224.788 281.544 226.301 286.167 241.609 286.167C256.388 286.167 281.232 284.521 281.232 273.523C281.196 262.699 268.845 250.09 252.94 250.09Z" fill="#171F39"/>
<path d="M279.544 290.476C271.204 275.59 255.861 263.19 255.861 263.19L215.253 268.374C214.866 275.66 214.76 283.085 214.795 290.476H279.544Z" fill="#8A9CC0"/>
<path d="M255.543 287.288C255.402 287.288 255.226 287.218 255.156 287.113C253.361 285.012 252.341 281.754 252.482 278.777C252.482 278.497 252.728 278.252 253.045 278.287C253.326 278.287 253.572 278.532 253.537 278.847C253.397 281.509 254.382 284.591 255.965 286.448C256.141 286.658 256.141 287.008 255.895 287.183C255.754 287.253 255.649 287.288 255.543 287.288Z" fill="#8A9CC0"/>
<path d="M279.543 291.001C279.367 291.001 279.191 290.896 279.085 290.721C271.344 276.955 257.409 265.151 255.685 263.75L215.71 268.829C215.358 275.589 215.217 282.84 215.287 290.476C215.287 290.756 215.041 291.001 214.76 291.001C214.478 291.001 214.232 290.756 214.232 290.476C214.197 282.7 214.337 275.239 214.689 268.339C214.689 268.094 214.9 267.884 215.147 267.849L255.755 262.665C255.896 262.63 256.037 262.7 256.142 262.77C256.283 262.91 271.661 275.379 279.965 290.195C280.106 290.441 280 290.756 279.754 290.896C279.719 290.966 279.613 291.001 279.543 291.001Z" fill="#171F39"/>
<path d="M281.619 275.309C281.619 275.309 272.293 260.002 252.939 270.125C235.697 279.162 215.287 273.908 211.029 272.647C210.536 272.507 210.22 272.086 210.184 271.596C209.797 265.291 207.756 223.925 216.765 200.492C218.278 196.569 222.817 192.576 226.899 191.666C235.626 189.704 241.96 186.937 251.602 186.307C258.957 185.816 273.349 187.112 277.818 188.058C282.358 189.039 285.137 190.965 283.941 193.942L276.375 212.261C272.61 221.683 273.032 232.296 277.642 241.333C277.677 241.403 277.713 241.473 277.748 241.543C281.654 249.004 282.287 266.342 281.619 275.309Z" fill="#293560"/>
<path d="M281.619 275.834C281.443 275.834 281.267 275.729 281.161 275.589C281.126 275.554 278.839 271.806 274.229 269.354C268.106 266.062 260.998 266.482 253.151 270.58C235.662 279.757 214.83 274.328 210.853 273.137C210.149 272.927 209.657 272.331 209.622 271.596C209.164 263.785 207.264 223.54 216.237 200.282C217.821 196.184 222.536 192.086 226.759 191.14C229.609 190.51 232.213 189.774 234.747 189.073C240.025 187.602 245.022 186.201 251.532 185.746C258.675 185.256 273.209 186.517 277.889 187.532C281.302 188.268 283.449 189.459 284.293 191.035C284.786 191.981 284.821 192.996 284.363 194.117L276.833 212.436C273.103 221.788 273.56 232.191 278.1 241.053L278.205 241.263C282.041 248.689 282.815 265.957 282.111 275.309C282.111 275.554 281.935 275.729 281.724 275.764C281.689 275.834 281.654 275.834 281.619 275.834ZM255.297 186.692C253.925 186.692 252.693 186.727 251.602 186.797C245.198 187.217 240.271 188.618 235.028 190.054C232.495 190.755 229.855 191.49 227.005 192.156C223.064 193.031 218.7 196.849 217.222 200.667C208.179 224.24 210.396 266.797 210.677 271.561C210.677 271.841 210.888 272.086 211.17 272.156C215.111 273.312 235.556 278.636 252.693 269.669C262.898 264.31 270.358 266.062 274.792 268.443C277.994 270.16 280.106 272.436 281.196 273.803C281.724 264.345 280.88 248.654 277.326 241.788L277.22 241.578C272.54 232.471 272.047 221.718 275.918 212.086L283.449 193.767C283.765 192.961 283.765 192.226 283.413 191.56C282.71 190.264 280.739 189.249 277.713 188.583C273.736 187.707 262.828 186.692 255.297 186.692Z" fill="#171F39"/>
<path d="M224.683 257.866C222.958 257.445 216.906 256.044 215.815 255.589C213.739 254.713 212.824 253.733 212.12 251.561C210.818 247.498 210.783 245.046 211.1 243.54C211.381 242.314 212.437 241.403 213.668 241.333C219.51 240.983 246.535 239.477 249.737 236.289C253.397 232.612 253.397 227.147 258.323 211.385C263.25 195.624 270.217 191.245 270.217 191.245C270.217 191.245 284.926 181.683 290.099 202.489C290.099 202.489 293.935 215.379 283.8 236.044C277.114 249.775 258.429 265.747 224.683 257.866Z" fill="#293560"/>
<path d="M238.301 258.25C230.489 258.25 222.149 257.165 213.598 254.993C213.316 254.923 213.14 254.643 213.211 254.363C213.281 254.082 213.563 253.907 213.844 253.977C228.87 257.76 243.192 258.215 255.262 255.238C265.361 252.751 273.771 247.918 278.979 241.613C279.155 241.403 279.507 241.368 279.718 241.543C279.93 241.718 279.965 242.068 279.789 242.278C274.44 248.758 265.819 253.732 255.508 256.254C250.195 257.585 244.424 258.25 238.301 258.25Z" fill="#171F39"/>
<path d="M214.16 242.454C213.879 242.454 213.667 242.244 213.632 241.964C213.597 241.683 213.843 241.438 214.125 241.403C223.837 240.703 247.168 237.375 249.455 235.869C255.367 231.981 257.091 227.988 261.947 212.541C266.803 197.06 273.524 192.436 274.052 192.121C274.298 191.946 276.41 190.369 279.084 189.599C279.366 189.529 279.647 189.669 279.753 189.949C279.823 190.229 279.682 190.51 279.401 190.615C276.832 191.35 274.721 192.961 274.686 192.961L274.65 192.996C274.58 193.032 267.788 197.515 262.968 212.857C258.111 228.338 256.211 232.682 250.053 236.745C247.379 238.496 223.52 241.788 214.195 242.454H214.16Z" fill="#171F39"/>
<path d="M188.967 223.645C188.897 223.645 188.791 223.61 188.721 223.575C188.474 223.435 188.369 223.12 188.474 222.874L193.225 213.312C193.366 213.067 193.682 212.962 193.929 213.067C194.175 213.207 194.281 213.522 194.175 213.767L189.424 223.33C189.319 223.54 189.143 223.645 188.967 223.645Z" fill="#171F39"/>
<path d="M171.478 228.374C171.372 228.374 171.267 228.339 171.196 228.304L162.223 222.419C161.977 222.244 161.906 221.929 162.082 221.684C162.258 221.439 162.575 221.368 162.821 221.544L171.794 227.393C172.041 227.568 172.111 227.883 171.935 228.129C171.83 228.269 171.654 228.374 171.478 228.374Z" fill="#171F39"/>
<path d="M179.289 224.451C179.042 224.451 178.831 224.311 178.796 224.066L175.348 211.386C175.277 211.106 175.453 210.826 175.735 210.756C176.016 210.686 176.298 210.861 176.368 211.141L179.817 223.82C179.887 224.101 179.711 224.381 179.429 224.451C179.394 224.451 179.359 224.451 179.289 224.451Z" fill="#171F39"/>
<path d="M210.395 244.03C209.41 243.96 202.618 243.61 201.633 243.645C191.498 244.065 187.24 248.023 183.475 253.207C179.71 258.391 184.953 264.101 189.563 262.945C194.173 261.824 201.844 258.917 213.034 252.192C214.301 251.421 216.412 251.106 216.307 249.6C216.025 247.078 215.568 244.451 210.395 244.03Z" fill="white"/>
<path d="M188.332 263.61C186.221 263.61 184.074 262.454 182.772 260.528C181.153 258.181 181.259 255.309 183.018 252.892C187.206 247.148 191.745 243.505 201.598 243.12C202.654 243.085 209.481 243.435 210.431 243.505C215.85 243.925 216.554 246.727 216.8 249.6C216.906 251.036 215.498 251.666 214.372 252.156C213.95 252.332 213.563 252.507 213.246 252.682C201.669 259.652 194.033 262.384 189.634 263.47C189.212 263.575 188.789 263.61 188.332 263.61ZM201.809 244.17C201.739 244.17 201.669 244.17 201.633 244.17C192.203 244.556 187.98 247.883 183.863 253.523C182.35 255.589 182.279 257.971 183.617 259.967C184.954 261.929 187.311 262.945 189.352 262.454C193.646 261.403 201.211 258.671 212.683 251.771C213.07 251.526 213.492 251.351 213.915 251.176C215.076 250.685 215.744 250.335 215.709 249.705C215.498 247.008 214.935 244.941 210.325 244.591C209.481 244.486 203.252 244.17 201.809 244.17Z" fill="#171F39"/>
<path d="M201.95 254.854C203.639 254.889 204.765 256.64 204.097 258.181C204.026 258.321 203.956 258.497 203.85 258.637C202.232 261.544 196.812 266.483 193.188 267.078C189.563 267.673 187.417 260.248 189.176 258.041C191.604 254.959 198.889 254.784 201.95 254.854Z" fill="white"/>
<path d="M192.766 267.638C191.464 267.638 190.268 266.798 189.353 265.257C188.016 263.015 187.453 259.372 188.755 257.726C191.253 254.608 198.08 254.258 201.951 254.363C202.936 254.398 203.816 254.889 204.344 255.729C204.871 256.535 204.942 257.551 204.555 258.426C204.484 258.601 204.414 258.742 204.308 258.917C202.654 261.894 197.059 267.008 193.294 267.638C193.118 267.603 192.942 267.638 192.766 267.638ZM201.001 255.344C197.693 255.344 191.675 255.729 189.599 258.321C188.684 259.477 189.001 262.56 190.268 264.696C190.725 265.467 191.711 266.763 193.118 266.553C196.567 265.992 201.88 261.123 203.393 258.356C203.464 258.216 203.534 258.076 203.605 257.936C203.851 257.376 203.816 256.745 203.464 256.22C203.112 255.694 202.549 255.379 201.915 255.344C201.669 255.379 201.352 255.344 201.001 255.344Z" fill="#171F39"/>
<path d="M248.929 175.204C251.075 177.27 253.749 177.69 255.051 177.901C257.761 178.321 269.373 178.951 277.185 170.23C284.822 161.718 285.596 147.848 281.232 145.011C278.1 142.979 273.104 147.147 268.388 143.995C266.312 142.594 266.805 141.473 264.553 139.967C260.822 137.48 256.002 138.426 252.307 139.231C245.586 140.668 245.797 142.524 239.885 143.995C231.475 146.097 226.654 143.435 225 146.132C223.698 148.268 225.352 152.191 227.639 154.468C232.354 159.161 238.161 155.204 241.785 159.547C244.037 162.244 243.721 165.957 247.063 172.647C247.415 173.207 247.908 174.223 248.929 175.204Z" fill="#171F39"/>
<path d="M242.347 181.719C242.594 180.843 242.875 179.898 243.121 178.917C241.221 179.688 239.215 179.828 238.054 179.162C236.611 178.356 236.33 176.815 235.767 174.924C235.521 174.153 235.309 173.243 234.465 172.437C234.043 172.017 233.55 171.736 233.057 171.561C232.494 171.316 232.178 170.686 232.318 170.09L232.459 169.74C233.655 166.938 234.289 163.926 234.324 160.913L234.394 154.924C237.702 153.628 238.899 153.838 239.321 154.363C239.497 154.538 239.743 154.679 239.708 155.589C239.638 160.038 243.684 159.582 247.063 158.777C250.441 157.971 249.244 164.171 249.244 164.171C249.244 164.171 251.32 161.474 253.678 163.821C255.332 165.502 252.095 168.234 250.124 169.67L251.461 182.56C251.813 185.957 255.015 185.922 258.253 187.078L266.944 189.25C266.944 189.25 244.247 199.302 230.277 192.192L237.773 189.635C240.306 188.234 241.679 183.996 242.347 181.719Z" fill="white"/>
<path d="M242.523 195.239C238.16 195.239 233.796 194.538 230.031 192.612C229.855 192.507 229.714 192.332 229.75 192.122C229.75 191.911 229.89 191.736 230.101 191.666L237.562 189.144C240.06 187.778 241.432 183.12 241.89 181.579C242.066 180.948 242.242 180.353 242.418 179.722C240.658 180.248 238.969 180.213 237.843 179.617C236.4 178.846 235.978 177.445 235.521 175.834C235.45 175.589 235.38 175.344 235.274 175.064L235.204 174.853C234.993 174.153 234.782 173.417 234.113 172.787C233.761 172.472 233.374 172.191 232.881 172.016C232.072 171.701 231.615 170.79 231.826 169.95C231.826 169.915 231.826 169.915 231.861 169.88L232.002 169.529C233.163 166.797 233.796 163.89 233.832 160.878L233.902 154.888C233.902 154.678 234.043 154.468 234.219 154.398C237.21 153.207 238.969 153.067 239.743 153.978L239.778 154.013C240.025 154.293 240.271 154.608 240.271 155.554C240.271 156.78 240.553 157.62 241.186 158.111C242.488 159.127 245.092 158.671 246.957 158.216C248.013 157.971 248.681 158.321 249.033 158.671C250.019 159.582 250.054 161.508 249.948 162.839C250.37 162.559 250.898 162.349 251.496 162.314C252.411 162.244 253.256 162.629 254.03 163.435C254.488 163.89 254.699 164.451 254.628 165.046C254.488 166.692 252.447 168.549 250.652 169.88L251.954 182.454C252.165 184.626 253.643 185.151 256.247 185.887C256.916 186.097 257.655 186.272 258.358 186.552L267.015 188.689C267.226 188.759 267.402 188.934 267.402 189.144C267.437 189.354 267.296 189.565 267.085 189.67C266.487 190.02 254.417 195.239 242.523 195.239ZM231.685 192.227C243.262 197.165 260.223 191.281 265.255 189.319L258.147 187.533C258.112 187.533 258.112 187.533 258.077 187.533C257.373 187.288 256.669 187.078 256.001 186.903C253.573 186.202 251.25 185.572 250.933 182.559L249.596 169.67C249.561 169.494 249.667 169.284 249.807 169.179C252.13 167.498 253.502 165.957 253.608 164.941C253.643 164.626 253.537 164.381 253.291 164.135C252.728 163.575 252.165 163.295 251.567 163.33C250.511 163.4 249.667 164.416 249.667 164.416C249.526 164.591 249.244 164.661 249.033 164.556C248.822 164.451 248.681 164.205 248.717 163.995C248.963 162.629 249.104 160.142 248.294 159.372C248.189 159.267 247.907 159.022 247.203 159.197C244.951 159.757 242.171 160.212 240.517 158.916C239.603 158.216 239.18 157.06 239.18 155.519C239.18 154.923 239.075 154.818 239.004 154.713C238.969 154.678 238.934 154.643 238.934 154.608C238.793 154.433 238.054 153.978 234.922 155.204L234.852 160.843C234.817 163.96 234.183 167.008 232.952 169.88L232.811 170.195C232.741 170.545 232.917 170.86 233.233 171.001C233.832 171.246 234.359 171.561 234.782 172.016C235.626 172.822 235.908 173.768 236.154 174.503L236.224 174.713C236.295 174.994 236.4 175.239 236.471 175.484C236.928 176.99 237.245 178.041 238.301 178.636C239.321 179.197 241.151 179.092 242.91 178.356C243.086 178.286 243.297 178.321 243.473 178.461C243.614 178.601 243.684 178.811 243.649 178.987C243.403 179.897 243.157 180.843 242.875 181.824C242.031 184.661 240.623 188.619 238.019 190.02C237.984 190.02 237.984 190.055 237.949 190.055L231.685 192.227Z" fill="#171F39"/>
<path d="M242.559 179.441C242.348 179.441 242.137 179.301 242.066 179.091C241.961 178.811 242.101 178.531 242.383 178.426C245.726 177.27 247.204 172.401 247.204 172.331C247.274 172.051 247.591 171.911 247.873 171.981C248.154 172.051 248.33 172.366 248.224 172.646C248.154 172.856 246.571 178.11 242.735 179.441C242.665 179.406 242.594 179.441 242.559 179.441Z" fill="#171F39"/>
</g>
<defs>
<clipPath id="clip0_313_6359">
<rect width="292" height="291" fill="white"/>
</clipPath>
</defs>
</svg>
