<svg width="319" height="301" viewBox="0 0 319 301" fill="none" xmlns="http://www.w3.org/2000/svg">
<g clip-path="url(#clip0_313_6265)">
<path d="M316.57 120.711C302.196 54.2107 229.981 15.6291 169.141 10.5083C118.756 6.26433 52.9585 23.0648 29.7066 63.6106C15.0636 89.1095 32.6659 97.2116 20.6748 155.014C10.2979 205.03 -7.80399 222.952 3.68746 248.451C13.0651 269.285 35.0487 279.141 49.0768 285.455C104.382 310.287 188.396 307.376 248.89 262.06C263.033 251.468 332.789 195.91 316.57 120.711Z" fill="#8A9CC0"/>
<path d="M308.819 264.051L308.204 275.444L300.598 276.714L299.906 263.281L308.819 264.051Z" fill="white"/>
<path d="M300.598 277.292C300.483 277.292 300.329 277.253 300.252 277.176C300.137 277.061 300.06 276.907 300.022 276.753L299.33 263.32C299.33 263.166 299.368 262.974 299.522 262.858C299.637 262.743 299.791 262.666 299.983 262.704L308.895 263.474C309.203 263.513 309.433 263.782 309.433 264.09L308.819 275.483C308.819 275.752 308.588 275.983 308.358 276.021L300.751 277.292C300.636 277.292 300.636 277.292 300.598 277.292ZM300.521 263.897L301.136 276.021L307.628 274.905L308.204 264.513L300.521 263.897Z" fill="#171F39"/>
<path d="M300.367 296.496C303.594 296.766 308.818 296.92 314.926 295.765C316.924 295.38 318.153 293.379 317.577 291.416C315.964 285.989 313.083 275.674 308.857 271.017L308.012 273.673L306.514 271.286C306.321 270.94 305.976 270.747 305.592 270.709L302.557 270.478C301.942 270.44 301.366 270.863 301.251 271.517L300.905 273.827L299.714 270.901L297.332 292.84C297.14 294.687 298.523 296.342 300.367 296.496Z" fill="#293560"/>
<path d="M304.9 297.267C303.133 297.267 301.596 297.19 300.29 297.074C298.139 296.882 296.487 294.957 296.679 292.763L299.061 270.825C299.099 270.556 299.291 270.363 299.56 270.325C299.829 270.286 300.06 270.44 300.175 270.671L300.598 271.71L300.636 271.441C300.79 270.517 301.596 269.863 302.557 269.94L305.592 270.171C306.168 270.209 306.667 270.517 306.975 271.017L307.82 272.365L308.281 270.863C308.357 270.671 308.511 270.517 308.703 270.479C308.895 270.44 309.126 270.517 309.241 270.671C313.275 275.097 316.079 284.488 317.731 290.108L318.077 291.262C318.384 292.34 318.269 293.533 317.654 294.495C317.078 295.458 316.079 296.15 314.965 296.343C311.239 297.036 307.781 297.267 304.9 297.267ZM300.021 273.211L297.87 292.879C297.755 294.418 298.907 295.804 300.444 295.92C303.709 296.227 308.857 296.343 314.85 295.188C315.656 295.034 316.348 294.572 316.77 293.88C317.193 293.187 317.308 292.379 317.078 291.57L316.732 290.416C315.195 285.22 312.66 276.714 309.126 272.211L308.588 273.904C308.511 274.135 308.319 274.289 308.127 274.289C307.896 274.327 307.704 274.212 307.551 274.02L306.053 271.633C305.937 271.479 305.745 271.364 305.553 271.325L302.518 271.094C302.173 271.056 301.904 271.287 301.827 271.633L301.481 273.943C301.443 274.212 301.251 274.404 300.982 274.443C300.713 274.481 300.482 274.327 300.367 274.097L300.021 273.211Z" fill="#171F39"/>
<path d="M307.283 293.533C303.019 293.533 299.792 292.802 299.6 292.764C299.292 292.687 299.1 292.379 299.177 292.071C299.254 291.763 299.561 291.57 299.869 291.647C299.945 291.647 307.859 293.456 315.235 291.378C315.542 291.301 315.849 291.455 315.965 291.763C316.041 292.071 315.888 292.379 315.58 292.494C312.699 293.264 309.818 293.533 307.283 293.533Z" fill="#171F39"/>
<path d="M303.287 285.104C302.98 285.104 302.711 284.835 302.711 284.527C302.711 284.219 302.941 283.949 303.287 283.949L310.471 283.834C310.817 283.834 311.047 284.065 311.047 284.411C311.047 284.719 310.817 284.989 310.471 284.989L303.287 285.104Z" fill="#171F39"/>
<path d="M272.672 259.817L272.365 276.406L263.145 276.868L261.916 260.356L272.672 259.817Z" fill="white"/>
<path d="M263.145 277.445C262.837 277.445 262.607 277.214 262.568 276.907L261.301 260.395C261.301 260.241 261.339 260.087 261.454 259.972C261.57 259.856 261.685 259.779 261.877 259.779L272.672 259.24C272.825 259.24 272.979 259.279 273.094 259.394C273.209 259.51 273.286 259.664 273.286 259.818L272.979 276.406C272.979 276.714 272.748 276.945 272.441 276.983L263.145 277.445C263.183 277.445 263.183 277.445 263.145 277.445ZM262.53 260.895L263.721 276.252L271.827 275.829L272.134 260.395L262.53 260.895Z" fill="#171F39"/>
<path d="M275.244 285.605C275.36 287.183 274.361 288.607 272.863 289.03C267.638 290.531 255.845 293.88 252.464 294.573C248.085 295.458 242.592 294.38 240.133 291.917C237.674 289.454 244.896 282.911 248.392 280.447C253.54 276.829 258.342 269.978 260.455 269.594C262.567 269.17 266.908 275.213 266.908 275.213L273.324 272.134C273.285 272.134 274.707 277.676 275.244 285.605Z" fill="#293560"/>
<path d="M249.276 295.458C245.473 295.458 241.67 294.265 239.711 292.302C239.211 291.802 238.981 291.147 239.057 290.378C239.365 287.068 245.242 281.949 248.047 279.986C250.582 278.215 253.002 275.675 255.115 273.443C257.42 271.018 259.11 269.247 260.339 269.016C262.491 268.593 265.91 272.904 267.062 274.482L273.055 271.595C273.209 271.518 273.401 271.518 273.554 271.595C273.708 271.672 273.823 271.826 273.862 271.98C273.862 272.019 275.321 277.676 275.821 285.567C275.936 287.375 274.745 289.069 273.016 289.569C268.023 290.993 255.999 294.419 252.58 295.112C251.504 295.343 250.39 295.458 249.276 295.458ZM260.685 270.133C260.647 270.133 260.608 270.133 260.57 270.133C259.686 270.287 257.881 272.211 255.96 274.212C253.809 276.483 251.35 279.062 248.738 280.909C245.319 283.296 240.479 287.953 240.248 290.455C240.21 290.878 240.325 291.224 240.556 291.455C242.784 293.688 248.085 294.842 252.349 293.957C255.73 293.264 267.677 289.877 272.671 288.453C273.9 288.107 274.745 286.914 274.668 285.605C274.246 279.408 273.285 274.636 272.901 272.904L267.139 275.675C266.87 275.79 266.601 275.713 266.409 275.482C264.796 273.25 261.953 270.133 260.685 270.133Z" fill="#171F39"/>
<path d="M248.892 292.418C246.011 292.418 243.514 291.879 241.747 290.455C241.516 290.262 241.478 289.877 241.67 289.646C241.862 289.415 242.246 289.377 242.477 289.569C249.583 295.381 272.325 284.797 272.556 284.681C272.863 284.527 273.17 284.681 273.324 284.951C273.478 285.259 273.324 285.567 273.055 285.72C272.325 286.067 258.611 292.418 248.892 292.418Z" fill="#171F39"/>
<path d="M259.801 281.871C259.686 281.871 259.532 281.832 259.456 281.755L254.577 277.753C254.346 277.56 254.308 277.175 254.5 276.944C254.692 276.713 255.076 276.675 255.307 276.867L260.185 280.87C260.416 281.063 260.454 281.448 260.262 281.678C260.109 281.794 259.955 281.871 259.801 281.871Z" fill="#171F39"/>
<path d="M305.67 150.048C305.67 150.048 311.125 201.623 313.506 219.366C315.888 237.148 312.354 266.091 312.354 266.091L298.102 266.053C298.102 266.053 295.374 231.22 293.838 221.598C293.838 221.598 287.192 208.781 284.81 197.158C282.429 185.534 275.437 167.329 275.437 167.329C275.437 167.329 275.168 259.894 275.053 267.207C275.053 267.207 263.951 268.285 259.802 265.937C259.802 265.937 251.043 232.644 251.12 214.247C251.197 195.888 247.816 150.433 247.816 150.433L305.67 150.048Z" fill="#171F39"/>
<path d="M296.488 222.021C296.181 222.021 295.912 221.79 295.912 221.483C295.912 221.175 296.143 220.905 296.45 220.867L300.791 220.636C301.098 220.636 301.367 220.867 301.406 221.175C301.406 221.483 301.175 221.752 300.868 221.79L296.488 222.021Z" fill="white"/>
<path d="M266.909 250.464C266.601 250.464 266.371 250.233 266.332 249.925C265.756 241.689 255.461 226.601 255.384 226.447C255.192 226.178 255.269 225.832 255.538 225.639C255.807 225.447 256.152 225.524 256.344 225.793C256.767 226.409 266.909 241.266 267.523 249.848C267.562 250.156 267.293 250.426 266.985 250.464C266.947 250.464 266.909 250.464 266.909 250.464Z" fill="white"/>
<path d="M214.664 63.8338L218.928 92.0074L234.256 93.5855C234.256 93.5855 244.743 107.287 245.473 157.4C245.473 157.4 286.577 150.241 308.781 151.241C308.205 140.811 309.895 78.267 291.802 58.099C286.001 51.6329 281.238 49.7854 279.778 49.2466C268.023 45.0513 254.846 50.7091 244.321 55.2123C238.251 57.791 233.219 60.7162 224.076 62.5636C220.196 63.3334 216.892 63.6798 214.664 63.8338Z" fill="white"/>
<path d="M245.511 157.938C245.396 157.938 245.242 157.9 245.127 157.823C245.012 157.707 244.935 157.553 244.935 157.399C244.243 111.251 235.177 95.9714 233.948 94.1239L218.889 92.5844C218.62 92.5459 218.428 92.3534 218.39 92.084L214.126 63.9104C214.087 63.7564 214.126 63.6024 214.241 63.4485C214.356 63.333 214.51 63.256 214.664 63.2176C217.775 63.0251 220.925 62.6017 223.998 61.9859C231.144 60.5234 235.869 58.4065 240.402 56.3281C241.593 55.7893 242.86 55.2119 244.128 54.6731C254.807 50.0929 268.061 44.4351 280.008 48.6689C284.041 50.0929 288.267 53.2105 292.262 57.6752C308.128 75.3415 308.935 125.646 309.242 144.582C309.28 147.508 309.319 149.778 309.395 151.126C309.395 151.279 309.357 151.433 309.242 151.549C309.127 151.664 308.973 151.741 308.819 151.703C286.923 150.741 246.049 157.784 245.626 157.861C245.549 157.938 245.549 157.938 245.511 157.938ZM219.465 91.4297L234.332 92.9693C234.486 92.9693 234.639 93.0847 234.716 93.2002C235.139 93.7775 245.242 107.518 246.049 156.706C251.388 155.821 287.614 149.855 308.205 150.625C308.166 149.24 308.128 147.161 308.089 144.659C307.782 125.839 306.975 75.8418 291.417 58.4835C286.538 53.0181 282.313 50.7473 279.624 49.785C268.099 45.6668 255.038 51.2861 244.551 55.7508C243.283 56.2896 242.054 56.8669 240.863 57.4058C236.253 59.4842 231.489 61.678 224.229 63.1406C221.309 63.7179 218.313 64.1413 215.355 64.3722L219.465 91.4297Z" fill="#171F39"/>
<path d="M268.753 67.6055C267.178 73.8406 265.104 79.8448 261.301 85.1563L263.99 87.0422L268.753 67.6055Z" fill="white"/>
<path d="M263.989 87.581C263.873 87.581 263.758 87.5426 263.643 87.4656L260.954 85.5796C260.839 85.5026 260.723 85.3487 260.723 85.1947C260.685 85.0408 260.723 84.8868 260.839 84.7714C264.949 79.0366 266.908 72.4935 268.214 67.413C268.291 67.1051 268.598 66.9127 268.906 66.9896C269.213 67.0666 269.405 67.3745 269.328 67.6824C268.061 72.7244 266.101 79.1905 262.106 84.9638L264.296 86.5034C264.565 86.6958 264.603 87.0422 264.45 87.3116C264.334 87.5041 264.142 87.581 263.989 87.581Z" fill="#171F39"/>
<path d="M295.182 82.7314C295.182 82.7314 295.375 94.432 289.151 102.053L286.539 100.898L295.182 82.7314Z" fill="white"/>
<path d="M289.151 102.63C289.074 102.63 288.997 102.63 288.92 102.592L286.308 101.437C286.001 101.322 285.886 100.975 286.001 100.667C286.116 100.359 286.462 100.244 286.769 100.359L288.959 101.36C294.683 93.9703 294.567 82.8471 294.567 82.7316C294.567 82.4237 294.798 82.1543 295.144 82.1543C295.451 82.1543 295.72 82.4237 295.72 82.7316C295.72 83.232 295.835 94.7016 289.573 102.438C289.497 102.553 289.343 102.63 289.151 102.63Z" fill="#171F39"/>
<path d="M259.8 46.6277L248.967 37.1595C248.967 37.1595 250.235 37.8908 251.157 37.3905C252.502 36.6592 250.389 31.0014 248.929 31.0398C247.469 31.0398 247.277 32.1945 247.277 32.1945L240.285 28.5381L230.105 36.6977C231.527 40.9314 234.446 41.7782 235.407 43.4332C236.559 45.4731 236.406 46.8202 236.982 49.245L238.71 49.091C243.051 52.7859 243.704 52.0161 245.164 51.8237C245.817 51.7082 246.739 51.4388 247.738 50.7075L249.006 52.401L243.82 56.2499C243.82 56.2499 254.768 59.5984 275.397 48.7061L259.8 46.6277Z" fill="white"/>
<path d="M248.584 57.3281C245.511 57.3281 243.821 56.8662 243.667 56.7893C243.475 56.7123 243.321 56.5583 243.283 56.3274C243.244 56.0965 243.321 55.904 243.513 55.7501L248.238 52.2476L247.662 51.4778C246.894 51.9397 246.125 52.2476 245.319 52.4016C245.127 52.4401 244.973 52.4401 244.819 52.4785C243.36 52.748 242.207 52.7095 238.558 49.6689L237.059 49.7843C236.791 49.8228 236.522 49.6304 236.445 49.361C236.253 48.5527 236.138 47.8599 236.022 47.2441C235.83 45.974 235.638 44.9733 234.908 43.7031C234.639 43.2028 234.102 42.7794 233.487 42.2406C232.258 41.2014 230.567 39.7773 229.569 36.8522C229.492 36.6212 229.569 36.3518 229.761 36.2363L239.979 28.0768C240.171 27.9228 240.402 27.9228 240.594 27.9998L247.009 31.3868C247.316 30.9249 247.931 30.4631 248.93 30.4246C250.466 30.4246 251.58 33.4267 251.888 34.5813C252.195 35.7745 252.387 37.314 251.427 37.8529C251.235 37.9683 251.081 38.0068 250.889 38.0453L260.032 46.0125L275.475 48.0908C275.705 48.1293 275.936 48.3218 275.974 48.5527C276.013 48.7836 275.897 49.0531 275.667 49.1685C262.798 56.0195 253.732 57.3281 248.584 57.3281ZM245.242 55.9425C248.507 56.4044 258.188 56.7893 273.516 49.053L259.724 47.2056C259.609 47.2056 259.494 47.1286 259.417 47.0516L248.584 37.5834C248.354 37.391 248.315 37.0446 248.507 36.8137C248.661 36.5827 249.007 36.5058 249.276 36.6597C249.544 36.8137 250.39 37.1601 250.927 36.8907C250.966 36.8522 251.196 36.4288 250.889 35.1971C250.428 33.1957 249.352 31.6177 248.968 31.6177C248.008 31.6177 247.893 32.272 247.893 32.3105C247.854 32.5029 247.739 32.6569 247.585 32.7339C247.432 32.8109 247.24 32.8109 247.047 32.7339L240.402 29.2314L230.798 36.8907C231.681 39.2385 233.064 40.4316 234.217 41.3938C234.908 41.9711 235.523 42.51 235.907 43.1643C236.752 44.6269 236.944 45.7815 237.136 47.0901C237.213 47.5905 237.29 48.0908 237.444 48.6682L238.673 48.5527C238.827 48.5527 238.98 48.5912 239.095 48.6682C242.707 51.7088 243.552 51.5548 244.55 51.3624C244.704 51.3239 244.896 51.2854 245.088 51.2854C245.857 51.1699 246.663 50.8235 247.393 50.2847C247.508 50.2077 247.662 50.1692 247.816 50.1692C247.969 50.2077 248.085 50.2847 248.2 50.4002L249.468 52.0937C249.544 52.2091 249.583 52.3631 249.583 52.517C249.544 52.671 249.468 52.8249 249.352 52.9019L245.242 55.9425Z" fill="#171F39"/>
<path d="M247.739 51.3252C247.586 51.3252 247.393 51.2482 247.278 51.0943C247.086 50.8249 247.125 50.4785 247.393 50.286C247.893 49.9011 249.045 48.708 249.506 48.0922C249.698 47.8228 250.044 47.7843 250.313 47.9767C250.582 48.1692 250.62 48.5156 250.428 48.785C249.929 49.4393 248.7 50.7479 248.085 51.2098C248.008 51.2867 247.854 51.3252 247.739 51.3252Z" fill="#171F39"/>
<path d="M247.279 32.1958C247.279 32.1958 246.203 32.6577 246.011 33.6199C245.972 33.8123 245.972 34.0433 246.088 34.5051C246.51 36.0447 247.394 36.3911 247.279 37.0839C247.202 37.6997 246.395 38.277 245.742 38.277C244.82 38.277 244.397 37.2763 243.168 36.1986C242.285 35.4288 240.863 34.5436 239.749 34.4281C236.714 34.0433 235.639 39.2777 231.836 39.9705C228.494 40.5478 224.46 37.3918 224.614 35.2364C224.729 33.7353 226.88 33.7353 229.915 30.7332C232.566 28.116 232.028 26.9998 234.141 25.0369C234.41 24.806 239.596 20.1489 243.86 22.3427C246.779 23.8053 248.316 27.8851 247.279 32.1958Z" fill="#171F39"/>
<path d="M52.7448 79.8448C64.423 67.182 80.4421 60.2156 97.8442 60.2541C110.867 60.2926 122.776 64.4493 133.225 72.5704C138.526 76.6887 143.289 81.7307 147.515 87.581C151.741 81.7307 156.543 76.7272 161.844 72.6089C172.331 64.4878 184.278 60.408 197.263 60.4465C214.665 60.485 230.646 67.4899 242.285 80.2297C253.772 92.7769 260.11 109.943 260.072 128.494C260.033 147.623 252.888 165.097 237.599 183.495C223.923 199.968 204.293 216.672 181.551 236.032C173.791 242.652 164.994 250.118 155.851 258.124C153.431 260.241 150.358 261.396 147.131 261.396C143.943 261.396 140.831 260.202 138.411 258.086C129.306 250.08 120.509 242.536 112.788 235.878C90.1228 216.441 70.5694 199.621 56.932 183.11C41.7196 164.635 34.6512 147.123 34.6896 127.994C34.8433 109.481 41.2202 92.3536 52.7448 79.8448Z" fill="#293560"/>
<path d="M197.455 207.781C197.301 207.781 197.147 207.704 197.032 207.588C196.84 207.357 196.84 206.972 197.071 206.78C211.476 194.079 221.119 184.495 228.379 175.797C231.836 171.64 234.871 167.483 237.368 163.442C237.522 163.172 237.906 163.095 238.175 163.249C238.444 163.403 238.521 163.788 238.367 164.058C235.832 168.137 232.797 172.333 229.301 176.528C222.002 185.303 212.321 194.887 197.877 207.665C197.724 207.742 197.608 207.781 197.455 207.781Z" fill="white"/>
<path d="M237.83 164.327C237.714 164.327 237.638 164.289 237.522 164.25C237.253 164.096 237.177 163.711 237.33 163.442C244.514 151.895 248.01 140.464 248.01 128.494C248.01 128.186 248.279 127.917 248.586 127.917C248.893 127.917 249.162 128.186 249.162 128.494C249.124 140.695 245.59 152.319 238.291 164.058C238.214 164.25 238.022 164.327 237.83 164.327Z" fill="white"/>
<path d="M248.625 129.072C248.317 129.072 248.048 128.803 248.048 128.495C248.087 117.41 245.398 106.826 240.327 97.8966C240.173 97.6271 240.25 97.2807 240.557 97.1268C240.826 96.9728 241.172 97.0498 241.326 97.3577C246.512 106.441 249.201 117.218 249.201 128.495C249.201 128.841 248.932 129.072 248.625 129.072Z" fill="white"/>
<path d="M240.826 98.2034C240.633 98.2034 240.441 98.0879 240.326 97.8955C238.367 94.47 236.062 91.2754 233.45 88.4273C233.219 88.1963 233.258 87.8115 233.488 87.619C233.719 87.3881 234.103 87.4266 234.295 87.6575C236.946 90.5826 239.327 93.8157 241.325 97.3566C241.479 97.626 241.402 97.9724 241.094 98.1264C241.018 98.2034 240.941 98.2034 240.826 98.2034Z" fill="white"/>
<path d="M147.515 107.903C147.323 107.903 147.169 107.826 147.054 107.672L137.757 94.7012C137.565 94.4318 137.642 94.0854 137.873 93.8929C138.141 93.7005 138.487 93.7775 138.679 94.0084L147.515 106.325L156.427 94.0469C160.038 89.0434 164.149 84.7711 168.605 81.3457C177.094 74.7641 186.737 71.4541 197.224 71.4541H197.339C211.63 71.4926 224.806 77.2274 234.333 87.6578C234.564 87.8887 234.525 88.2736 234.295 88.4661C234.064 88.697 233.68 88.6585 233.488 88.4276C224.153 78.2281 211.322 72.6088 197.339 72.5703H197.224C187.006 72.5703 177.632 75.8033 169.296 82.2309C164.917 85.6179 160.922 89.8132 157.349 94.7012L147.976 107.633C147.861 107.826 147.707 107.903 147.515 107.903Z" fill="white"/>
<path d="M61.234 88.2737C61.0804 88.2737 60.9651 88.2352 60.8499 88.1197C60.6194 87.8888 60.6194 87.5424 60.8115 87.3115C70.3769 76.958 83.4764 71.2617 97.7285 71.2617H97.8437C108.37 71.3002 118.012 74.6487 126.54 81.2688C126.809 81.4612 126.847 81.8461 126.655 82.077C126.463 82.3464 126.079 82.3849 125.848 82.1925C117.551 75.7264 108.139 72.4164 97.8437 72.4164H97.7285C83.7838 72.4164 70.9915 77.9972 61.6566 88.0812C61.5413 88.1967 61.3877 88.2737 61.234 88.2737Z" fill="white"/>
<path d="M76.7145 295.689C79.4804 295.805 82.0926 288.954 82.7457 287.145C84.0134 283.796 83.6292 283.065 84.4359 280.794C86.8177 274.059 92.4647 274.366 95.6532 269.055C99.9941 261.781 92.772 255.507 96.7672 249.734C100.724 244.076 108.791 248.656 115.053 242.767C121.891 236.34 116.052 227.372 122.352 221.291C128.498 215.363 136.335 221.676 148.743 216.133C156.119 212.823 164.916 205.356 163.84 199.275C162.457 191.347 144.325 185.573 132.032 190.577C125.041 193.425 120.777 198.929 120.777 198.929C116.935 203.894 118.165 206.319 114.938 208.82C109.521 213.054 103.451 208.32 97.8044 212.4C94.8849 214.517 94.0013 217.596 92.6568 222.33C89.2763 234.107 94.2702 238.765 90.544 244.307C86.3183 250.619 77.6364 247.886 75.5236 253.429C73.7949 258.009 79.5188 260.357 79.5188 267.823C79.4804 276.753 71.1827 279.524 72.2583 288.107C72.6809 291.763 74.6785 295.612 76.7145 295.689Z" fill="#8A9CC0"/>
<path d="M150.701 199.737C149.51 200.16 148.319 200.661 147.167 201.161C145.976 201.661 144.824 202.2 143.671 202.778C141.366 203.894 139.1 205.087 136.91 206.357C135.796 206.973 134.721 207.627 133.606 208.281L131.993 209.321C131.455 209.667 130.917 210.013 130.38 210.36C129.342 211.091 128.267 211.745 127.23 212.515C126.192 213.246 125.155 213.978 124.156 214.786C120.123 217.865 116.204 221.175 112.593 224.716C108.944 228.257 105.563 232.067 102.452 236.07C100.838 238.033 99.4169 240.15 97.9187 242.228C96.5358 244.384 95.1144 246.462 93.8851 248.694L92.9248 250.35L92.4254 251.158C92.2717 251.427 92.118 251.735 91.9644 252.005L90.1973 255.391C90.0436 255.661 89.89 255.969 89.7747 256.238L89.3906 257.123L88.5838 258.855L87.7771 260.587C87.6619 260.895 87.5082 261.165 87.393 261.473L87.0472 262.358C83.052 271.749 80.1709 281.602 78.2117 291.725C78.1733 291.917 77.9812 292.071 77.7507 292.033C77.5587 291.994 77.405 291.802 77.4434 291.609C78.6343 281.333 81.1313 271.172 84.9344 261.511L85.2801 260.587C85.3954 260.28 85.549 259.972 85.6643 259.702L86.4326 257.932L87.2009 256.161L87.585 255.276C87.7387 254.968 87.8924 254.699 88.0076 254.391L89.7747 250.888C89.9284 250.58 90.0436 250.311 90.2357 250.003L90.6967 249.156L91.6571 247.463L92.6174 245.769C92.9248 245.192 93.3089 244.653 93.6546 244.114L95.7675 240.804C97.2657 238.687 98.7254 236.532 100.377 234.492L101.568 232.953C101.991 232.452 102.413 231.952 102.836 231.452L104.104 229.951C104.526 229.45 104.949 228.95 105.41 228.488L108.06 225.64L110.826 222.907C114.629 219.328 118.625 215.979 122.85 212.977C127.076 209.975 131.532 207.242 136.142 204.894C138.447 203.74 140.79 202.624 143.21 201.661C145.592 200.661 148.051 199.775 150.548 199.083C150.74 199.044 150.97 199.16 151.009 199.352C151.009 199.468 150.893 199.66 150.701 199.737Z" fill="white"/>
<path d="M83.4368 294.689C85.8954 290.455 89.8521 285.413 96.0754 283.027C102.644 280.525 106.793 282.911 110.366 279.601C115.36 274.944 110.135 267.554 114.476 262.743C120.239 256.392 133.261 265.36 142.058 258.047C145.516 255.161 147.821 250.196 146.822 246.27C144.555 237.61 125.847 232.26 116.781 238.611C109.521 243.653 109.29 255.507 102.875 256.008C100.916 256.161 100.416 255.084 97.612 255.315C94.0778 255.584 89.6601 257.74 87.7009 261.473C85.0887 266.438 89.3143 269.594 86.7789 275.637C85.2039 279.37 83.0911 279.409 81.8618 282.911C80.3636 287.145 81.9002 291.609 83.4368 294.689Z" fill="#8A9CC0"/>
<path d="M134.375 249.003C133.722 249.08 133.031 249.196 132.378 249.35C131.725 249.504 131.033 249.657 130.38 249.85C129.074 250.235 127.73 250.62 126.462 251.12C125.809 251.351 125.194 251.62 124.541 251.851C123.926 252.121 123.273 252.39 122.659 252.66C122.044 252.968 121.429 253.237 120.815 253.545L119.893 254.007L118.971 254.507C116.589 255.816 114.246 257.278 112.018 258.856C111.48 259.28 110.904 259.665 110.366 260.049L108.752 261.32C107.715 262.205 106.64 263.052 105.602 263.975C104.565 264.861 103.566 265.823 102.568 266.746C102.068 267.208 101.607 267.709 101.108 268.209C100.608 268.709 100.147 269.171 99.6864 269.71L98.2651 271.211C97.8041 271.711 97.3431 272.25 96.9205 272.751C95.9986 273.79 95.1534 274.868 94.2699 275.907C90.8125 280.217 87.6241 284.759 84.5893 289.416C84.474 289.57 84.2819 289.609 84.1283 289.493C83.9746 289.416 83.9362 289.224 84.013 289.07C86.3948 283.989 89.2759 279.14 92.618 274.56L93.8857 272.866C94.3083 272.289 94.7693 271.75 95.1919 271.211C95.6528 270.672 96.0754 270.095 96.5364 269.556L97.9193 267.978C98.3803 267.439 98.8797 266.939 99.3791 266.439C99.8785 265.938 100.34 265.399 100.877 264.899C101.915 263.898 102.913 262.936 103.989 261.974C108.215 258.202 112.978 254.969 118.087 252.506C120.661 251.274 123.312 250.273 126.039 249.504C127.422 249.119 128.805 248.811 130.188 248.58C131.609 248.349 132.992 248.195 134.452 248.233C134.644 248.233 134.76 248.387 134.76 248.541C134.683 248.849 134.567 248.965 134.375 249.003Z" fill="white"/>
<path d="M45.5221 244.191C40.5665 244.345 39.9903 235.069 30.8474 232.644C21.4357 230.142 16.1344 238.418 8.75869 235.261C2.30493 232.49 -1.34451 222.791 0.461003 215.825C1.9592 210.167 5.80072 210.744 9.91115 204.317C17.5174 192.501 9.45016 182.571 17.1332 173.603C21.8199 168.099 25.5846 170.985 29.9639 164.943C35.0347 158.015 31.0779 152.703 36.8402 144.39C38.1848 142.465 41.911 137.039 47.8654 136.615C50.7849 136.384 55.1259 137.269 56.432 140.118C58.1991 143.966 53.5124 147.777 51.7069 153.358C48.4416 163.442 56.9698 172.525 61.0802 181.262C73.181 206.857 55.3564 243.883 45.5221 244.191Z" fill="#171F39"/>
<path d="M93.9256 297.113L88.6243 220.059L54.3579 228.757L29.4648 297.113H93.9256Z" fill="#171F39"/>
<path d="M87.5496 296.843C87.2423 296.843 87.0118 296.613 86.9734 296.305L83.7849 243.537C83.7465 243.229 84.0154 242.959 84.3227 242.921C84.6301 242.921 84.899 243.152 84.9374 243.46L88.1258 296.228C88.1642 296.536 87.8953 296.805 87.5496 296.843C87.588 296.843 87.588 296.843 87.5496 296.843Z" fill="white"/>
<path d="M84.0526 238.687C83.7453 238.687 83.5148 238.456 83.4764 238.148L83.1306 232.452C83.0922 232.144 83.3611 231.874 83.6684 231.836C83.9758 231.836 84.2447 232.067 84.2831 232.375L84.6288 238.071C84.6288 238.379 84.3983 238.648 84.0526 238.687Z" fill="white"/>
<path d="M80.0574 296.844C79.75 296.844 79.4811 296.574 79.4811 296.266L79.4043 291.378C79.4043 291.07 79.6348 290.801 79.9805 290.801C80.2878 290.801 80.5567 291.032 80.5567 291.378L80.6336 296.266C80.6336 296.574 80.4031 296.805 80.0574 296.844Z" fill="#171F39"/>
<path d="M79.9044 288.454C79.5971 288.454 79.3282 288.184 79.3282 287.876L78.4062 234.454C78.4062 234.146 78.6367 233.877 78.9825 233.877C79.2898 233.838 79.5587 234.108 79.5587 234.454L80.4807 287.876C80.5191 288.184 80.2502 288.454 79.9044 288.454C79.9429 288.454 79.9044 288.454 79.9044 288.454Z" fill="white"/>
<path d="M59.7367 296.843C59.6983 296.843 59.6983 296.843 59.6598 296.843C59.3525 296.805 59.122 296.535 59.1604 296.189L66.5746 235.261C66.613 234.953 66.8819 234.723 67.2276 234.761C67.535 234.8 67.7655 235.069 67.727 235.415L60.3129 296.343C60.2745 296.612 60.0056 296.843 59.7367 296.843Z" fill="white"/>
<path d="M50.7471 291.186C50.7087 291.186 50.6703 291.186 50.6319 291.186C50.3245 291.109 50.1325 290.84 50.1709 290.493L55.9716 260.241C56.0484 259.933 56.3173 259.741 56.6631 259.779C56.9704 259.856 57.1625 260.126 57.124 260.472L51.3233 290.724C51.2465 290.994 51.016 291.186 50.7471 291.186Z" fill="white"/>
<path d="M50.248 162.981C50.248 162.981 52.6298 164.328 55.6646 163.596L50.248 162.981Z" fill="white"/>
<path d="M53.8199 164.405C51.5918 164.405 50.0168 163.558 49.9399 163.481C49.671 163.327 49.5558 162.981 49.7094 162.711C49.8631 162.442 50.2088 162.326 50.4778 162.48C50.5162 162.48 52.7058 163.712 55.4717 163.057C55.7791 162.98 56.0864 163.173 56.1632 163.481C56.24 163.789 56.048 164.097 55.7407 164.174C55.0876 164.328 54.4345 164.405 53.8199 164.405Z" fill="#171F39"/>
<path d="M113.556 139.54C111.059 140.04 108.562 140.502 106.027 141.003C107.294 143.658 113.441 157.129 107.755 164.057C107.525 164.365 107.256 164.635 106.949 164.904C101.647 169.407 94.9246 169.215 87.3952 169.253C82.8238 169.253 75.4865 169.292 67.9955 170.446C66.4973 170.677 59.1216 171.832 50.094 175.258C43.8323 177.644 35.0736 180.954 28.3894 187.035C16.5575 197.773 9.18179 218.827 16.6728 237.686C22.2045 251.619 33.8444 258.585 38.531 261.01C40.6823 258.624 42.8335 256.199 44.9848 253.813C42.4878 251.773 34.9584 245.037 32.4998 233.568C29.1193 217.749 37.9548 205.664 39.3761 203.816C41.1817 211.706 42.9872 219.635 44.7927 227.525C45.8683 232.221 51.0544 234.761 55.3569 232.644C56.663 231.99 57.7386 231.797 58.3917 231.412C64.346 227.833 74.4492 224.215 83.2463 223.561C87.933 223.214 89.8153 223.869 91.1599 222.291C93.0422 220.097 91.544 216.44 89.8922 209.628C88.9702 205.971 87.8177 200.583 86.9726 193.809C86.9726 193.694 86.9726 193.578 86.9726 193.463C86.9726 193.309 86.9726 193.155 86.9726 193.001C93.6184 193.963 107.832 194.463 116.821 183.879C126.502 172.371 125.926 153.05 113.556 139.54Z" fill="white"/>
<path d="M38.4918 261.549C38.4149 261.549 38.2997 261.51 38.2229 261.472C32.2301 258.316 21.3586 251.08 16.0957 237.84C12.5615 228.91 12.0621 218.98 14.7128 209.127C17.0561 200.313 21.8964 192.077 28.0044 186.573C34.8039 180.415 43.5242 177.105 49.9011 174.68C58.2372 171.524 65.2672 170.254 67.9178 169.869C75.4472 168.753 82.8998 168.714 87.3943 168.676H88.3932C95.5384 168.637 101.685 168.637 106.602 164.481C106.871 164.25 107.101 164.019 107.37 163.711C112.595 157.399 107.293 144.967 105.565 141.272C105.488 141.118 105.488 140.926 105.565 140.772C105.642 140.618 105.795 140.502 105.987 140.464L113.517 139.001C113.709 138.963 113.901 139.04 114.055 139.194C120.047 145.698 123.62 153.973 124.119 162.441C124.619 170.716 122.199 178.452 117.32 184.187C108.561 194.463 95.1926 194.579 87.5864 193.578C87.5864 193.616 87.5864 193.655 87.5864 193.693C88.2395 199.082 89.2383 204.355 90.4676 209.435C90.7749 210.628 91.0438 211.745 91.3127 212.745C92.5804 217.633 93.3871 220.597 91.62 222.637C90.506 223.945 89.0846 223.984 86.7797 223.984C85.8577 223.984 84.6669 224.022 83.2839 224.099C74.1027 224.792 64.1147 228.603 58.6982 231.874C58.3524 232.105 57.8915 232.259 57.3921 232.413C56.8542 232.605 56.278 232.798 55.625 233.106C53.4353 234.183 50.9383 234.222 48.7102 233.144C46.4437 232.067 44.8303 230.027 44.2541 227.602L39.1064 205.125C36.2253 209.281 30.1941 219.943 33.0752 233.375C35.3033 243.767 41.7187 250.31 45.3681 253.312C45.4833 253.428 45.5602 253.543 45.5602 253.697C45.5602 253.851 45.5218 254.005 45.4065 254.12L38.9528 261.318C38.7991 261.472 38.6454 261.549 38.4918 261.549ZM106.871 141.426C109.291 146.699 113.478 158.053 108.215 164.404C107.908 164.75 107.639 165.058 107.332 165.327C102.107 169.753 95.7305 169.792 88.3932 169.792H87.3943C82.9382 169.792 75.524 169.83 68.0715 170.947C65.4593 171.332 58.5445 172.602 50.3237 175.719C44.0236 178.105 35.4186 181.377 28.8111 187.381C17.5939 197.542 9.71877 218.519 17.2097 237.378C22.2421 250.002 32.4606 257.046 38.4149 260.202L44.1772 253.774C40.3741 250.541 34.1893 243.883 31.9612 233.606C28.6959 218.403 36.4558 206.626 38.9143 203.393C39.068 203.2 39.2601 203.123 39.4906 203.162C39.7211 203.2 39.8747 203.393 39.9131 203.585L45.3297 227.294C45.8291 229.411 47.212 231.143 49.1328 232.067C51.0151 232.952 53.2048 232.952 55.0487 232.028C55.7402 231.682 56.4317 231.451 56.9695 231.258C57.4305 231.104 57.8146 230.989 58.0451 230.835C63.5769 227.525 73.7569 223.599 83.1303 222.906C84.5516 222.791 85.7425 222.791 86.7029 222.791C88.8925 222.752 89.8913 222.752 90.6596 221.829C92.0042 220.251 91.3127 217.518 90.1218 212.976C89.8529 211.975 89.584 210.859 89.2767 209.666C88.009 204.547 87.0486 199.197 86.3571 193.77C86.3571 193.732 86.3571 193.732 86.3571 193.693C86.3571 193.578 86.3571 193.462 86.3571 193.385C86.3571 193.27 86.3571 193.078 86.3571 192.924C86.3571 192.77 86.434 192.577 86.5492 192.462C86.6645 192.346 86.8565 192.308 87.0102 192.308C94.2323 193.347 107.678 193.539 116.359 183.378C126.194 171.832 124.849 152.895 113.363 140.156L106.871 141.426Z" fill="#171F39"/>
<path d="M39.7598 260.125L46.2519 262.665C46.2519 262.665 50.2855 263.896 52.7441 260.625C55.2027 257.353 61.7333 256.122 61.7333 256.122C61.7333 256.122 57.2771 252.735 55.51 252.196C53.7429 251.657 47.366 255.698 47.366 255.698L44.4464 254.274L39.7598 260.125Z" fill="white"/>
<path d="M48.0576 263.474C46.9435 263.474 46.1368 263.243 46.1368 263.243H46.0984L39.6062 260.703C39.4526 260.626 39.2989 260.472 39.2605 260.318C39.2221 260.125 39.2605 259.933 39.3757 259.817L44.1008 253.967C44.2545 253.775 44.5618 253.698 44.7923 253.813L47.4429 255.122C48.9795 254.16 54.0119 251.196 55.8175 251.735C57.6614 252.312 62.0407 255.584 62.1944 255.738C62.3865 255.892 62.4633 256.123 62.4249 256.315C62.3865 256.546 62.1944 256.7 61.9639 256.738C61.8871 256.738 55.6254 257.97 53.3205 261.011C51.6686 263.05 49.5558 263.474 48.0576 263.474ZM46.4441 262.127C46.7515 262.204 50.1704 263.089 52.2833 260.279C54.204 257.739 58.3144 256.392 60.3889 255.853C58.8523 254.737 56.4321 253.12 55.3565 252.774C54.3193 252.466 50.2472 254.583 47.6734 256.2C47.5198 256.315 47.2893 256.315 47.0972 256.238L44.6002 255.006L40.7203 259.894L46.4441 262.127Z" fill="#171F39"/>
<path d="M106.833 140.849L104.451 136.423C103.029 133.806 104.259 130.419 107.101 129.495C107.217 129.456 107.294 129.418 107.409 129.418C111.097 128.417 114.477 123.183 114.477 123.183C114.477 123.183 115.822 128.263 115.668 129.957C115.514 131.689 109.752 135.845 109.752 135.845L112.71 139.848L106.833 140.849Z" fill="white"/>
<path d="M106.833 141.426C106.641 141.426 106.411 141.311 106.334 141.119L103.952 136.692C103.184 135.268 103.069 133.536 103.683 132.035C104.259 130.573 105.45 129.456 106.91 128.956C107.025 128.918 107.141 128.879 107.256 128.841C110.675 127.917 113.978 122.875 113.978 122.836C114.094 122.644 114.324 122.529 114.555 122.567C114.785 122.605 114.977 122.759 115.016 122.99C115.054 123.183 116.399 128.186 116.245 129.995C116.091 131.689 112.135 134.768 110.56 135.923L113.172 139.463C113.287 139.617 113.325 139.848 113.249 140.041C113.172 140.233 113.018 140.349 112.826 140.387L106.987 141.388C106.91 141.426 106.872 141.426 106.833 141.426ZM114.209 124.53C112.98 126.146 110.367 129.226 107.525 129.995C107.448 130.034 107.333 130.034 107.256 130.072C106.103 130.457 105.181 131.342 104.72 132.459C104.259 133.652 104.336 134.999 104.951 136.153L107.141 140.195L111.674 139.425L109.292 136.153C109.215 136.038 109.177 135.884 109.177 135.73C109.215 135.576 109.292 135.422 109.407 135.345C112.058 133.421 115.016 130.804 115.093 129.88C115.169 128.879 114.632 126.262 114.209 124.53Z" fill="#171F39"/>
<path d="M59.314 172.333C55.0499 168.061 55.895 163.596 55.895 163.596C57.2395 163.442 58.4688 163.096 59.506 162.595C60.1207 162.326 60.428 161.595 60.2359 160.94C59.6213 159.055 58.9682 155.937 58.6609 155.283C59.0451 154.513 60.1207 154.282 59.8134 152.935C57.3164 152.165 55.895 148.047 54.3584 146.7C53.6285 146.045 53.0907 145.853 52.1687 145.16C47.4052 145.314 53.8206 151.665 47.0979 153.82C47.3284 154.243 47.2132 155.129 47.0595 155.86C46.9443 156.399 46.7906 156.899 46.6369 157.284C45.7918 155.745 44.5625 155.09 43.8326 155.36C43.1027 155.668 42.9875 157.015 43.1027 157.823C43.4869 160.055 46.2528 161.017 46.4833 161.056C46.4833 161.056 47.1748 171.794 45.9071 176.105C40.6442 178.337 37.7246 180.416 37.7246 180.416C65.1531 183.918 70.3391 170.717 70.3391 170.717C66.997 170.909 62.1951 171.833 59.314 172.333Z" fill="white"/>
<path d="M46.4063 181.647C43.7941 181.647 40.8746 181.455 37.6477 181.07C37.4172 181.031 37.2251 180.877 37.1483 180.646C37.1099 180.416 37.1867 180.185 37.3788 180.031C37.494 179.954 40.2983 177.952 45.4075 175.758C46.4063 171.871 46.0222 163.404 45.9069 161.518C44.985 161.171 42.8721 160.094 42.5264 157.977C42.3727 156.976 42.488 155.359 43.602 154.898C44.4472 154.551 45.5228 155.013 46.4063 156.014C46.4063 155.937 46.4448 155.86 46.4448 155.783C46.7521 154.513 46.56 154.166 46.56 154.128C46.4832 153.974 46.4832 153.781 46.5216 153.627C46.5984 153.474 46.7137 153.358 46.8673 153.281C50.0942 152.242 49.9021 150.24 49.71 148.316C49.5948 147.2 49.4796 146.122 50.1326 145.352C50.5552 144.891 51.2082 144.621 52.1302 144.621C52.2455 144.621 52.3991 144.66 52.5144 144.737C52.8985 145.006 53.2058 145.198 53.4747 145.391C53.8589 145.66 54.243 145.891 54.704 146.276C55.3187 146.815 55.8949 147.739 56.5095 148.701C57.4699 150.24 58.584 151.972 59.9669 152.396C60.159 152.473 60.3127 152.627 60.3511 152.819C60.6584 154.051 60.0053 154.667 59.5828 155.052C59.4675 155.167 59.3907 155.244 59.3139 155.359C59.4675 155.821 59.6596 156.591 59.9669 157.669C60.2358 158.708 60.5431 159.863 60.812 160.748C61.1194 161.71 60.6584 162.711 59.7748 163.134C58.7376 163.596 57.6236 163.942 56.4327 164.096C56.3559 165.213 56.4711 168.484 59.5443 171.717L60.2742 171.602C63.2706 171.063 67.3426 170.37 70.339 170.255C70.5311 170.255 70.7232 170.332 70.8384 170.486C70.9537 170.639 70.9921 170.832 70.9153 171.024C70.8768 171.178 69.4939 174.565 64.6536 177.49C61.1962 179.53 55.4723 181.647 46.4063 181.647ZM39.3764 180.108C60.6968 182.417 67.65 174.142 69.3402 171.409C66.5359 171.64 63.0785 172.217 60.4279 172.679L59.3907 172.872C59.1986 172.91 59.0065 172.833 58.8913 172.718C54.4735 168.292 55.2418 163.673 55.2803 163.481C55.3187 163.25 55.5107 163.057 55.7797 163.019C57.0474 162.865 58.1998 162.557 59.237 162.095C59.5828 161.941 59.7748 161.518 59.6596 161.133C59.3523 160.209 59.0449 159.016 58.776 157.977C58.5071 156.938 58.2382 155.86 58.0846 155.552C58.0077 155.398 58.0077 155.206 58.0846 155.052C58.2382 154.705 58.5071 154.436 58.7376 154.243C59.0449 153.935 59.237 153.781 59.237 153.397C57.6236 152.742 56.5095 150.933 55.5107 149.355C54.9345 148.47 54.4351 147.623 53.9357 147.2C53.5516 146.853 53.2058 146.661 52.8601 146.43C52.5912 146.276 52.3223 146.084 51.9766 145.853C51.5156 145.891 51.1698 146.007 51.0162 146.199C50.7088 146.584 50.7857 147.392 50.8625 148.278C51.0546 150.125 51.3235 152.896 47.7509 154.282C47.7893 154.744 47.7509 155.321 47.5588 156.091C47.4436 156.591 47.2899 157.13 47.1362 157.592C47.0594 157.784 46.8673 157.938 46.6368 157.938C46.4063 157.938 46.2143 157.823 46.099 157.63C45.3691 156.245 44.3703 155.821 44.0246 155.975C43.7173 156.129 43.5252 157.014 43.6404 157.823C43.9862 159.747 46.5216 160.594 46.5984 160.632C46.8289 160.709 46.9826 160.902 46.9826 161.133C47.021 161.556 47.674 172.025 46.4063 176.374C46.3679 176.528 46.2527 176.682 46.0606 176.759C42.9874 178.029 40.7209 179.299 39.3764 180.108Z" fill="#171F39"/>
<path d="M48.3281 161.401C48.3281 161.401 51.2477 164.481 55.8575 163.557L48.3281 161.401Z" fill="white"/>
<path d="M54.1665 164.327C50.3634 164.327 48.0201 161.94 47.9049 161.825C47.6744 161.594 47.7128 161.209 47.9433 161.017C48.1738 160.786 48.5195 160.824 48.75 161.055C48.8652 161.17 51.5159 163.903 55.78 163.056C56.0873 162.979 56.3946 163.21 56.4715 163.518C56.5483 163.826 56.3178 164.134 56.0105 164.211C55.3574 164.288 54.7428 164.327 54.1665 164.327Z" fill="#171F39"/>
<path d="M211.629 100.129C211.629 100.129 244.589 114.947 266.448 88.582L283.811 99.5128C283.811 99.5128 254.155 136.539 210.63 107.942C210.63 107.942 199.182 108.673 197.031 107.211C194.88 105.748 190.654 99.1664 191.269 98.2042L190.385 94.9326C190.27 94.5478 190.309 94.1629 190.462 93.8165C190.885 92.9312 191.999 92.6618 192.767 93.2776L201.142 99.8977H201.987C203.254 99.8977 204.176 98.743 203.908 97.5114L202.717 92.2C202.601 91.6226 203.024 91.0838 203.6 91.0838L211.629 100.129Z" fill="white"/>
<path d="M243.437 119.334C242.438 119.334 241.401 119.296 240.402 119.257C230.491 118.642 220.426 115.024 210.476 108.519C208.632 108.635 198.875 109.135 196.724 107.672C194.918 106.441 190.385 100.167 190.692 98.1657L189.847 95.0481C189.694 94.5477 189.771 94.0089 189.963 93.547C190.232 92.9697 190.731 92.5463 191.384 92.3924C191.999 92.2384 192.652 92.3924 193.151 92.7772L201.372 99.2433H201.987C202.409 99.2433 202.793 99.0509 203.062 98.7045C203.331 98.3581 203.408 97.9347 203.331 97.5498L202.14 92.2384C202.025 91.7765 202.14 91.3147 202.448 90.9683C202.716 90.6219 203.177 90.3909 203.6 90.3909C203.754 90.3909 203.907 90.4679 204.023 90.5834L211.936 99.6282C212.973 100.052 220.81 103.285 230.875 103.631C240.748 103.977 254.846 101.591 265.986 88.1971C266.178 87.9662 266.486 87.9277 266.755 88.0816L284.118 99.0124C284.272 99.0894 284.349 99.2433 284.387 99.3973C284.426 99.5512 284.387 99.7437 284.272 99.8591C284.195 99.9361 276.627 109.289 263.797 114.985C257.189 117.872 250.351 119.334 243.437 119.334ZM210.63 107.364C210.745 107.364 210.86 107.403 210.937 107.441C233.218 122.067 251.696 119.026 263.297 113.907C274.207 109.096 281.199 101.63 282.927 99.6282L266.524 89.3518C255.153 102.784 240.824 105.209 230.76 104.824C219.811 104.401 211.398 100.706 211.321 100.667C211.245 100.629 211.168 100.59 211.129 100.513L203.37 91.6611C203.331 91.6996 203.331 91.6996 203.293 91.738C203.254 91.7765 203.177 91.892 203.216 92.046L204.407 97.3574C204.56 98.1272 204.407 98.8969 203.907 99.5128C203.408 100.129 202.716 100.475 201.948 100.475H201.103C200.988 100.475 200.834 100.436 200.757 100.36L192.383 93.7395C192.152 93.547 191.883 93.5085 191.576 93.547C191.307 93.624 191.077 93.8164 190.961 94.0474C190.846 94.2783 190.846 94.5092 190.885 94.7787L191.768 98.0502C191.807 98.2041 191.807 98.3196 191.73 98.4736C191.614 99.4743 195.187 105.325 197.3 106.749C198.798 107.711 206.251 107.634 210.63 107.364C210.592 107.364 210.592 107.364 210.63 107.364Z" fill="#171F39"/>
<path d="M186.314 55.8271C186.314 55.8271 177.132 57.5591 175.557 59.5221C174.443 60.9076 172.638 65.2569 174.136 68.5669C175.481 71.5305 179.284 72.3388 181.896 70.3374C183.24 69.2982 184.662 67.5277 185.507 64.6026C186.006 62.9475 187.12 61.5235 188.734 60.8692C189.118 60.7152 189.541 60.5997 190.002 60.5228C190.655 60.4458 191.077 59.7915 190.847 59.1757C190.386 57.8286 189.233 55.9811 186.314 55.8271Z" fill="white"/>
<path d="M178.67 71.9925C178.209 71.9925 177.748 71.9541 177.287 71.8386C175.635 71.4152 174.329 70.3375 173.637 68.798C172.024 65.2955 173.829 60.7924 175.135 59.1374C176.787 57.059 185.277 55.4424 186.237 55.25H186.314H186.391C189.733 55.4424 191.001 57.6748 191.423 58.9834C191.577 59.4453 191.539 59.9456 191.27 60.369C191.001 60.7924 190.578 61.0618 190.117 61.1003C189.733 61.1388 189.349 61.2542 189.003 61.4082C187.62 61.9855 186.583 63.2171 186.122 64.7952C185.354 67.4509 184.048 69.4523 182.281 70.8379C181.167 71.5692 179.937 71.9925 178.67 71.9925ZM186.353 56.4047C182.857 57.059 177.056 58.56 175.981 59.8686C175.02 61.1003 173.215 65.2186 174.636 68.3361C175.174 69.5293 176.249 70.4145 177.517 70.7224C178.9 71.0688 180.36 70.7609 181.474 69.8757C183.049 68.6825 184.201 66.8351 184.893 64.4488C185.469 62.5243 186.737 61.0233 188.465 60.3305C188.926 60.1381 189.426 60.0226 189.887 59.9456C190.079 59.9071 190.194 59.7917 190.233 59.7532C190.271 59.6762 190.348 59.5607 190.271 59.3683C189.887 58.0982 188.85 56.5586 186.353 56.4047Z" fill="#171F39"/>
</g>
<defs>
<clipPath id="clip0_313_6265">
<rect width="319" height="301" fill="white"/>
</clipPath>
</defs>
</svg>
