<svg width="290" height="290" viewBox="0 0 290 290" fill="none" xmlns="http://www.w3.org/2000/svg">
<g clip-path="url(#clip0_313_6514)">
<path d="M278.997 228.389C258.739 267.612 216.896 279.103 201.144 283.434C147.461 298.208 66.3255 288.009 24.2034 225.14C-12.7845 169.955 3.03753 108.169 5.34272 99.6821C9.21963 85.4667 18.9992 51.3429 50.5035 26.9289C99.5761 -11.0719 177.533 -7.16003 205.999 27.9767C219.341 44.4623 209.666 52.9146 225.768 82.463C247.318 122.07 271.418 119.835 284.341 151.758C298.94 187.803 280.883 224.756 278.997 228.389Z" fill="#8A9CC0"/>
<path d="M208.369 243.949C262.482 208.845 277.696 136.219 242.351 81.7337C207.006 27.2484 134.486 11.5363 80.373 46.6399C26.2599 81.7434 11.0453 154.37 46.3903 208.855C81.7353 263.34 154.255 279.052 208.369 243.949Z" fill="white"/>
<path d="M67.3047 67.6889C67.3047 68.562 69.7845 69.7845 72.1596 68.2128C74.5346 66.676 75.4776 65.4885 78.1321 67.4444C80.8215 69.4003 85.1175 79.0751 88.5753 81.3803C92.0331 83.6855 95.7004 84.1395 96.3291 81.1707C96.9578 78.2019 93.6398 73.5566 95.0368 70.9371C96.4339 68.3176 101.254 58.3983 99.0884 54.1371C96.888 49.876 92.1728 48.6885 84.6984 52.3908C77.2589 56.128 67.4095 61.3671 67.3047 67.6889Z" fill="#8A9CC0"/>
<path d="M92.9403 176.941C92.2418 178.128 92.2767 179.526 93.0101 180.573C95.3503 183.822 99.332 193.077 98.1095 197.653C96.5378 203.486 101.917 208.725 103.453 211.204C106.597 216.304 108.588 218.19 116.132 216.688C123.676 215.186 126.121 213.824 129.649 218.33C133.211 222.835 145.89 240.892 150.78 244.56C155.669 248.192 164.471 253.536 167.649 254.06C170.828 254.549 176.102 252.523 168.837 247.633C161.537 242.709 157.695 240.683 158.568 234.71C159.442 228.773 159.267 216.374 157.521 212.706C155.774 209.039 156.473 205.721 157.975 204.184C159.476 202.647 162.48 198.98 162.83 197.059C163.144 195.138 158.743 193.182 156.123 190.632C153.504 188.083 152.351 186.266 156.333 180.294C160.315 174.286 153.259 169.222 144.563 172.331C135.866 175.439 128.741 174.636 127.169 170.27C125.597 165.904 119.869 170.2 115.154 170.689C110.439 171.178 108.727 168.314 103.907 169.501C97.3411 171.108 94.2675 174.636 92.9403 176.941Z" fill="#8A9CC0"/>
<path d="M213.056 94.1986C209.738 92.7665 207.363 88.6102 207.991 80.4373C208.48 74.0107 201.006 72.7882 197.758 72.5437C197.164 72.5088 196.919 71.7404 197.408 71.3911C199.888 69.3304 206.734 66.187 218.539 78.4115C233.837 94.1986 231.183 86.9337 231.707 83.6156C232.231 80.2976 226.153 78.656 227.027 72.2992C227.585 68.2826 226.293 63.8469 224.861 60.424C199.19 36.3243 164.263 25.2524 130.174 29.4436C132.269 32.5522 138.626 44.0432 122.909 47.7804C122.909 47.7804 112.501 49.1425 124.341 63.288C136.181 77.4335 132.025 56.8265 132.863 55.3596C133.701 53.9276 136.495 50.8889 141.735 62.1704C141.735 62.1704 143.83 65.8727 136.95 69.4352C130.069 72.9978 130.872 76.9795 131.955 78.656C133.038 80.3325 136.53 84.3491 135.029 89.7977C133.527 95.2464 139.883 102.791 142.922 96.9229C145.961 91.0551 143.69 80.2626 147.532 76.5953C151.374 72.893 159.023 76.0015 162.237 71.8452C165.45 67.6539 158.954 61.7163 161.014 60.3891C163.11 59.0269 170.235 60.3891 171.632 63.9517C173.064 67.5142 167.546 73.1724 171.667 75.8967C175.788 78.5861 178.513 75.0236 181.202 76.8747C183.892 78.7258 179.526 85.7462 172.47 85.816C165.415 85.9208 167.581 91.09 163.704 90.6011C159.827 90.1121 156.753 85.851 154.169 89.6231C151.584 93.3952 151.409 97.6913 148.161 102.791C144.913 107.89 142.957 113.059 144.843 115.993C146.764 118.927 150.466 121.023 152.632 126.192C154.797 131.361 161.538 144.948 174.915 132.653C188.327 120.359 191.506 129.37 192.03 130.208C192.588 131.047 199.469 142.119 202.158 143.062C204.848 144.005 211.729 147.323 211.589 157.591C211.414 167.86 223.674 182.634 226.712 177.674C229.751 172.715 228.808 161.678 231.497 153.959C234.187 146.24 229.856 123.048 223.045 119.416C216.234 115.784 220.74 106.248 219.343 101.813C217.98 97.2372 216.339 95.6306 213.056 94.1986Z" fill="#8A9CC0"/>
<path d="M29.373 121.686C31.7481 125.144 34.4375 130.034 34.5073 135.063C34.7169 150.257 38.4192 155.496 44.7759 166.707C51.1327 177.919 78.3758 187.244 83.4053 186.825C88.4348 186.406 85.9201 181.272 83.4403 177.5C80.9953 173.693 76.4199 170.2 71.3904 167.196C66.3609 164.227 64.5447 161.433 64.0208 159.198C63.4969 156.963 65.7671 154.657 68.6661 155.321C71.6 155.985 76.839 154.832 78.1313 152.422C79.738 149.418 75.2324 144.668 74.953 142.293C74.6735 139.918 78.6902 135.622 78.2012 130.523C77.7122 125.458 79.9475 121.721 82.7417 117.355C85.5009 112.989 88.5047 109.916 88.365 108.309C88.2602 106.668 85.5708 104.467 84.5928 100.555C83.6149 96.6435 83.7895 91.1599 81.659 90.2518C79.5284 89.3786 74.5688 88.8896 71.0062 96.853C67.4786 104.816 65.9418 105.829 62.2395 103.943C58.5372 102.092 57.21 91.8934 64.8939 86.8988C72.5779 81.9042 72.543 78.5512 71.6 76.5953C70.6569 74.6394 66.9546 74.2202 64.0557 75.5125C61.1567 76.8048 61.6457 78.5163 53.2632 89.5882C47.6749 96.9927 39.921 99.8917 36.0092 101.428C33.25 108.134 31.0146 114.875 29.373 121.686Z" fill="#8A9CC0"/>
<path d="M249.274 102.511C247.562 103.14 250.287 106.563 248.715 108.519C247.178 110.475 247.003 111.976 249.833 115.329C252.697 118.647 254.967 123.991 254.198 127.1C253.395 130.208 251.474 133.352 254.198 137.927C256.923 142.503 255.63 149.488 254.129 152.562C252.627 155.635 250.357 160.42 252.836 164.227C254.443 166.672 256.399 169.851 258.529 171.911C263.314 150.676 262.232 128.113 254.722 106.877C252.766 104.642 250.252 102.162 249.274 102.511Z" fill="#8A9CC0"/>
<path d="M246.829 203.276C246.759 203.276 246.655 203.241 246.585 203.206C246.34 203.066 246.236 202.752 246.375 202.508C267.297 164.647 265.585 118.473 241.939 82.0439C207.222 28.5355 137.647 12.3992 83.5449 45.3005C83.3004 45.4402 82.9861 45.3704 82.8114 45.1259C82.6717 44.8814 82.7416 44.567 82.9861 44.3924C109.181 28.4656 140.092 23.5409 170.094 30.4565C200.132 37.407 225.978 55.4992 242.813 81.485C266.668 118.263 268.379 164.821 247.283 203.031C247.179 203.206 247.004 203.276 246.829 203.276Z" fill="#293560"/>
<path d="M37.6167 98.0055C37.5469 98.0055 37.477 98.0055 37.4072 97.9706C37.1277 97.8658 37.023 97.5514 37.1277 97.272C46.593 76.211 61.8562 58.0838 80.123 46.2435C80.3675 46.0689 80.6819 46.1387 80.8565 46.3832C81.0311 46.6277 80.9613 46.942 80.7168 47.1167C62.6246 58.8522 47.5011 76.8047 38.1406 97.6912C38.0009 97.9007 37.8263 98.0055 37.6167 98.0055Z" fill="#293560"/>
<path d="M29.757 171.283C29.5125 171.283 29.3029 171.108 29.233 170.864C26.4039 158.534 25.7403 145.786 27.2073 132.933C28.6044 120.708 31.9574 108.728 37.0917 97.2372C37.1964 96.9578 37.5108 96.853 37.7902 96.9578C38.0696 97.0626 38.1744 97.377 38.0696 97.6564C27.4518 121.302 24.7624 146.519 30.2459 170.584C30.3158 170.864 30.1412 171.143 29.8617 171.213C29.8268 171.248 29.7919 171.283 29.757 171.283Z" fill="#293560"/>
<path d="M220.425 91.2297C220.425 98.2501 209.214 115.155 206.524 119.102C206.245 119.521 205.651 119.521 205.372 119.102C203.451 116.272 197.164 106.807 193.741 99.0883C192.379 96.0148 191.471 93.2206 191.471 91.2297C191.471 83.2314 197.932 76.7699 205.931 76.7699C213.964 76.7699 220.425 83.2314 220.425 91.2297Z" fill="#293560"/>
<path d="M205.965 97.831C209.61 97.831 212.566 94.8755 212.566 91.2298C212.566 87.584 209.61 84.6285 205.965 84.6285C202.319 84.6285 199.363 87.584 199.363 91.2298C199.363 94.8755 202.319 97.831 205.965 97.831Z" fill="white"/>
<path d="M207.258 97.6214C205.687 97.6214 204.15 97.0975 202.892 96.1196C201.391 94.967 200.413 93.2555 200.203 91.3695C200.168 91.09 200.378 90.8106 200.657 90.7757C200.936 90.7408 201.216 90.9503 201.251 91.2298C201.46 92.8364 202.264 94.2684 203.556 95.2813C204.848 96.2942 206.455 96.7133 208.062 96.5037C209.668 96.2942 211.1 95.4909 212.113 94.1986C213.126 92.9063 213.545 91.2996 213.336 89.693C213.126 88.0863 212.323 86.6543 211.03 85.6414C210.018 84.8381 208.795 84.419 207.503 84.3491C207.223 84.3491 206.979 84.1046 207.014 83.8252C207.014 83.5458 207.258 83.3013 207.538 83.3362C209.04 83.3711 210.472 83.8951 211.659 84.8381C213.161 85.9907 214.139 87.7021 214.349 89.5882C214.593 91.4742 214.069 93.3603 212.917 94.8622C211.764 96.364 210.052 97.342 208.166 97.5516C207.852 97.5865 207.538 97.6214 207.258 97.6214Z" fill="#171F39"/>
<path d="M87.1421 151.724C87.1421 158.744 75.9305 175.649 73.2411 179.595C72.9617 180.015 72.3679 180.015 72.0885 179.595C70.1675 176.766 63.8806 167.301 60.4578 159.582C59.0956 156.509 58.1875 153.714 58.1875 151.724C58.1875 143.725 64.649 137.264 72.6473 137.264C80.6456 137.229 87.1421 143.725 87.1421 151.724Z" fill="#293560"/>
<path d="M72.6813 158.325C76.3271 158.325 79.2825 155.369 79.2825 151.724C79.2825 148.078 76.3271 145.122 72.6813 145.122C69.0355 145.122 66.0801 148.078 66.0801 151.724C66.0801 155.369 69.0355 158.325 72.6813 158.325Z" fill="white"/>
<path d="M73.9399 158.08C72.3682 158.08 70.8314 157.556 69.5741 156.578C68.0722 155.426 67.0942 153.714 66.8847 151.828C66.8497 151.549 67.0593 151.269 67.3387 151.235C67.6181 151.2 67.8976 151.409 67.9325 151.689C68.142 153.295 68.9454 154.727 70.2377 155.74C71.53 156.753 73.1366 157.172 74.7433 156.963C76.3499 156.753 77.7819 155.95 78.7948 154.657C79.8077 153.365 80.2268 151.758 80.0173 150.152C79.8077 148.545 79.0044 147.113 77.7121 146.1C76.6992 145.297 75.4767 144.878 74.1844 144.808C73.905 144.808 73.6605 144.563 73.6955 144.284C73.6955 144.005 73.94 143.76 74.2194 143.795C75.7212 143.83 77.1532 144.354 78.3408 145.297C79.8426 146.45 80.8206 148.161 81.0302 150.047C81.2747 151.933 80.7507 153.819 79.5981 155.321C78.4455 156.823 76.7341 157.801 74.8481 158.01C74.5686 158.08 74.2543 158.08 73.9399 158.08Z" fill="#171F39"/>
<path d="M218.435 26.824H218.47C218.75 26.7891 212.777 27.5575 212.777 27.5575C210.123 27.9067 204.15 30.3516 204.429 32.4123C204.674 34.473 211.101 35.3811 213.72 35.0319C213.72 35.0319 219.204 34.4032 219.343 34.3683C220.636 34.1936 221.474 32.3774 221.229 30.3167C220.985 28.2211 219.728 26.6843 218.435 26.824Z" fill="white"/>
<path d="M219.44 34.3739C220.703 34.2141 221.513 32.3936 221.249 30.3076C220.985 28.2217 219.747 26.6602 218.484 26.8199C217.221 26.9797 216.411 28.8003 216.675 30.8862C216.939 32.9722 218.177 34.5337 219.44 34.3739Z" fill="#293560"/>
<path d="M217.038 32.3076L212.533 32.8664C210.717 33.1109 207.364 32.5171 204.849 31.2598C204.569 31.644 204.395 32.0282 204.465 32.3774C204.709 34.4381 211.136 35.3462 213.755 34.997L219.029 34.3334C218.226 34.1936 217.492 33.4252 217.038 32.3076Z" fill="#8A9CC0"/>
<path d="M212.602 35.5907C209.669 35.5907 204.22 34.7874 203.906 32.4472C203.731 30.9803 205.652 29.688 207.294 28.8498C209.04 27.9416 211.275 27.2082 212.742 27.0335L218.191 26.335C218.226 26.335 218.296 26.335 218.365 26.335C218.365 26.335 218.365 26.335 218.4 26.335H218.435C220.007 26.1953 221.474 27.9067 221.788 30.2818C222.103 32.6917 221.055 34.7175 219.448 34.9271C219.308 34.962 214.034 35.5558 213.825 35.5907C213.511 35.5558 213.091 35.5907 212.602 35.5907ZM218.47 27.3479C217.772 27.4527 212.882 28.0464 212.882 28.0464C211.555 28.2211 209.459 28.9196 207.783 29.7579C205.617 30.8755 204.919 31.7836 204.988 32.3075C205.163 33.7745 210.891 34.8223 213.72 34.473C215.606 34.2635 219.239 33.8443 219.343 33.8094C220.321 33.6697 220.985 32.098 220.775 30.3167C220.496 28.6402 219.483 27.2431 218.47 27.3479C218.505 27.3479 218.47 27.3479 218.47 27.3479Z" fill="#171F39"/>
<path d="M216.478 40.1662L197.757 9.95422L194.613 10.6528C194.613 10.6528 199.189 33.0411 199.433 36.0099C199.678 38.9787 198.805 44.078 198.805 44.078L216.478 40.1662Z" fill="white"/>
<path d="M215.676 38.8739L197.793 9.95422L196.012 10.3384C197.898 15.4029 203.661 30.8407 204.08 33.2856C204.569 36.2194 204.185 41.3537 204.185 41.3537L215.676 38.8739Z" fill="#293560"/>
<path d="M198.805 44.6019C198.666 44.6019 198.526 44.567 198.456 44.4622C198.316 44.3574 198.281 44.1828 198.316 44.0082C198.316 43.9733 199.155 38.9437 198.945 36.0797C198.735 33.1808 194.195 11.002 194.16 10.7925C194.09 10.5131 194.265 10.2336 194.544 10.1638L197.688 9.46524C197.897 9.43031 198.142 9.50017 198.246 9.70973L216.967 39.9217C217.072 40.0614 217.072 40.236 217.002 40.4107C216.932 40.5504 216.793 40.6901 216.618 40.725L198.945 44.6369C198.875 44.6019 198.84 44.6019 198.805 44.6019ZM195.243 11.0719C195.941 14.4947 199.748 33.2506 199.958 36.0099C200.132 38.35 199.678 41.8776 199.434 43.4144L215.64 39.8169L197.513 10.548L195.243 11.0719Z" fill="#171F39"/>
<path d="M182.11 55.115C180.084 55.115 178.024 55.0452 175.998 54.9055L152.841 53.3687L152.352 50.3999L155.915 49.2123L137.264 35.3463L144.04 34.2286L144.074 34.2635L168.873 44.5321L242.15 34.019C242.22 34.019 248.786 32.6918 253.571 36.5687C253.955 36.7433 257.797 38.4548 257.797 40.1662C257.797 42.9255 254.409 44.9163 247.494 46.2785C240.927 47.5708 211.903 51.7969 195.208 54.172C190.842 54.8007 186.476 55.115 182.11 55.115ZM153.121 53.0194L175.998 54.5562C182.355 54.9753 188.781 54.7308 195.103 53.8227C211.833 51.4127 240.823 47.1866 247.389 45.9292C257.413 43.9733 257.413 41.0743 257.413 40.1313C257.413 38.8739 254.479 37.3371 253.361 36.8481L253.327 36.8132C248.681 33.0061 242.22 34.2984 242.15 34.2984L168.768 44.8464L143.97 34.5779L138.137 35.5558L156.683 49.3171L152.771 50.6444L153.121 53.0194Z" fill="white"/>
<path d="M156.684 48.7583L161.818 36.6385L164.682 36.0797L165.311 46.8722L156.684 48.7583Z" fill="white"/>
<path d="M156.683 49.2822C156.544 49.2822 156.369 49.2123 156.264 49.1075C156.124 48.9678 156.124 48.7583 156.194 48.5836L161.329 36.4639C161.398 36.2893 161.538 36.1845 161.713 36.1496L164.577 35.5907C164.717 35.5558 164.891 35.5907 164.996 35.6955C165.101 35.8003 165.206 35.94 165.206 36.0797L165.834 46.8722C165.834 47.1167 165.66 47.3612 165.415 47.431L156.788 49.3171C156.753 49.2822 156.718 49.2822 156.683 49.2822ZM162.202 37.0926L157.556 48.0248L164.751 46.4531L164.193 36.7084L162.202 37.0926Z" fill="#171F39"/>
<path d="M200.692 57.8044H200.727C201.006 57.8044 194.999 58.0838 194.999 58.0838C192.344 58.2235 186.197 60.2144 186.302 62.2751C186.407 64.3358 192.729 65.7328 195.383 65.5931C195.383 65.5931 200.902 65.3836 201.041 65.3836C202.334 65.3137 203.312 63.5674 203.207 61.4717C203.102 59.411 201.984 57.7695 200.692 57.8044Z" fill="white"/>
<path d="M201.084 65.4117C202.356 65.3479 203.301 63.5939 203.196 61.494C203.09 59.3942 201.974 57.7437 200.703 57.8075C199.431 57.8713 198.486 59.6254 198.591 61.7252C198.697 63.825 199.813 65.4756 201.084 65.4117Z" fill="#293560"/>
<path d="M198.875 63.1483L194.334 63.3579C192.518 63.4626 189.235 62.5895 186.79 61.1924C186.475 61.5417 186.301 61.9259 186.301 62.2751C186.406 64.3358 192.727 65.7329 195.382 65.5932L200.691 65.3138C199.922 65.1741 199.224 64.3009 198.875 63.1483Z" fill="#8A9CC0"/>
<path d="M195.103 66.152C192.553 66.152 185.917 64.9296 185.812 62.345C185.742 60.878 187.733 59.7254 189.445 58.9919C191.261 58.2235 193.566 57.6647 194.998 57.5599L200.482 57.2805C200.517 57.2805 200.587 57.2805 200.656 57.2805C200.656 57.2805 200.656 57.2805 200.691 57.2805C200.691 57.2805 200.726 57.2805 200.761 57.2805C200.796 57.2805 200.831 57.2805 200.866 57.2805C202.403 57.3154 203.695 59.1317 203.8 61.4368C203.87 62.5545 203.625 63.6023 203.171 64.4406C202.682 65.3487 201.949 65.8726 201.11 65.9075C200.971 65.9075 195.662 66.1171 195.452 66.1171C195.313 66.152 195.208 66.152 195.103 66.152ZM200.691 58.3283C199.958 58.3633 195.033 58.6077 195.033 58.6077C193.671 58.6776 191.54 59.2364 189.829 59.935C187.594 60.878 186.825 61.7512 186.825 62.2402C186.895 63.742 192.518 65.209 195.347 65.0693C197.268 64.9994 200.901 64.8597 201.006 64.8597C201.599 64.8248 202.019 64.2659 202.193 63.9167C202.542 63.2531 202.717 62.4148 202.682 61.4718C202.612 59.7603 201.704 58.2934 200.691 58.3283Z" fill="#171F39"/>
<path d="M168.769 44.2527L242.151 34.1588C242.151 34.1588 248.123 32.9364 252.803 36.2195C253.257 36.5338 257.344 38.4548 257.588 40.1313C257.833 41.7729 256.471 44.3226 247.425 46.069C240.789 47.3613 210.786 51.7272 195.139 53.9625C188.817 54.8706 182.39 55.1151 175.999 54.696L152.982 53.1592L152.528 50.4698L156.265 49.2124L137.684 35.3813L143.97 34.3334L168.769 44.2527Z" fill="white"/>
<path d="M141.281 34.8223L137.684 35.4161L156.335 49.1425L168.28 47.6755L141.281 34.8223Z" fill="#293560"/>
<path d="M255.247 38.8739C255.422 39.5725 254.479 40.6901 250.427 41.4935C198.211 51.6922 164.332 52.0065 152.701 51.2032L153.016 53.1941L176.032 54.7309C182.424 55.15 188.816 54.9055 195.173 53.9974C210.82 51.7621 240.822 47.3962 247.458 46.1039C256.54 44.3226 257.867 41.7729 257.622 40.1662C257.378 38.4548 253.291 36.5687 252.837 36.2544C252.802 36.2195 254.863 37.5467 255.247 38.8739Z" fill="#293560"/>
<path d="M250.079 34.8573C249.275 34.5779 248.088 34.2286 247.319 34.1238C248.437 34.997 248.926 35.9051 248.577 36.429C247.843 37.4768 243.617 37.861 243.617 37.861L244.49 40.0265C248.228 39.4328 251.371 38.5247 251.441 37.3721C251.546 36.2544 250.917 35.5209 250.079 34.8573Z" fill="#293560"/>
<path d="M182.11 55.4643C180.05 55.4643 178.024 55.3944 175.963 55.2547L152.946 53.7179C152.702 53.7179 152.492 53.5084 152.457 53.2639L152.003 50.5745C151.968 50.33 152.108 50.0855 152.352 49.9807L155.147 49.0377L137.369 35.8353C137.194 35.6955 137.124 35.486 137.159 35.2764C137.194 35.0669 137.369 34.9271 137.578 34.8922L143.865 33.8444C143.97 33.8444 144.04 33.8444 144.145 33.8793L168.803 43.6939L242.045 33.6348C242.499 33.5301 248.367 32.4473 253.117 35.7654C253.187 35.8003 253.397 35.9051 253.606 36.0448C255.737 37.1974 257.937 38.5945 258.147 40.0614C258.566 42.9604 254.968 45.1608 247.564 46.5928C240.997 47.8851 211.973 52.1113 195.243 54.4863C190.877 55.15 186.511 55.4643 182.11 55.4643ZM153.435 52.7051L176.033 54.2069C182.355 54.626 188.781 54.3816 195.068 53.4735C211.763 51.0635 240.788 46.8722 247.319 45.5799C256.226 43.8336 257.239 41.4585 257.064 40.2011C256.889 39.0485 254.025 37.4768 253.082 36.9529C252.768 36.7783 252.593 36.7084 252.523 36.6386C248.053 33.4951 242.325 34.6477 242.255 34.6827H242.22L168.838 44.7766C168.733 44.7766 168.663 44.7766 168.559 44.7417L143.935 34.9271L139.01 35.7305L156.614 48.7932C156.753 48.898 156.858 49.1076 156.823 49.2822C156.788 49.4918 156.648 49.6315 156.474 49.7013L153.156 50.819L153.435 52.7051Z" fill="#171F39"/>
<path d="M141.107 57.4551L145.613 57.8044L161.784 52.3558L152.843 52.2161L141.107 57.4551Z" fill="white"/>
<path d="M145.612 58.3283H145.577L141.072 57.979C140.827 57.9441 140.653 57.7694 140.583 57.5599C140.548 57.3154 140.653 57.1058 140.897 57.001L152.633 51.762C152.702 51.727 152.772 51.7271 152.842 51.7271L161.783 51.8668C162.028 51.8668 162.238 52.0414 162.307 52.3208C162.342 52.5653 162.203 52.8098 161.958 52.9146L145.787 58.3632C145.717 58.3283 145.647 58.3283 145.612 58.3283ZM143.202 57.1058L145.542 57.2805L158.71 52.8447L152.912 52.7399L143.202 57.1058Z" fill="#171F39"/>
<path d="M215.919 48.898L160.001 75.5474L151.828 76.2809C151.828 76.2809 178.233 61.1924 181.621 58.992C186.581 55.7787 192.518 51.797 192.518 51.797L215.919 48.898Z" fill="white"/>
<path d="M189.655 58.1886L156.369 75.7569L160.211 75.4426L215.92 48.8979L202.508 50.5745C201.425 52.8098 189.655 58.1886 189.655 58.1886Z" fill="#293560"/>
<path d="M151.898 76.9096C151.688 76.9096 151.479 76.7699 151.409 76.5603C151.339 76.3158 151.409 76.0713 151.619 75.9316C151.793 75.8268 168.977 65.2439 181.342 58.503C185.673 56.1279 192.134 51.4128 192.169 51.3429C192.239 51.273 192.309 51.273 192.413 51.2381L215.815 48.3392C216.059 48.3042 216.304 48.4789 216.373 48.7234C216.443 48.9679 216.339 49.2473 216.094 49.3521L160.176 76.0015C160.106 76.0364 160.071 76.0364 160.001 76.0364L151.898 76.8746C151.933 76.9096 151.898 76.9096 151.898 76.9096ZM192.693 52.3209C191.82 52.9496 185.917 57.2107 181.831 59.446C171.981 64.8248 159.023 72.6485 154.133 75.6173L159.826 75.0235L212.741 49.8061L192.693 52.3209Z" fill="#171F39"/>
<path d="M15.2969 71.6006V67.9682L49.4556 67.095L50.7828 69.994L81.1345 68.2476L83.4746 64.7549C83.4746 64.7549 117.983 57.7346 127.134 61.5067C135.341 64.8946 120.253 73.0326 118.507 75.6522C116.76 78.2717 112.569 84.8031 112.569 84.8031L29.9313 83.5108C28.8137 83.4759 27.7309 83.3362 26.6482 83.0567C23.7143 82.3233 18.4752 80.3673 16.205 75.7919C15.5763 74.4996 15.2969 73.0326 15.2969 71.6006Z" fill="#8A9CC0"/>
<path d="M15.2969 71.6006V67.9682L49.4556 67.095L50.7828 69.994L81.1345 68.2476L83.4746 64.7549C83.4746 64.7549 117.983 57.7346 127.134 61.5067C135.341 64.8946 120.253 73.0326 118.507 75.6522C116.76 78.2717 112.569 84.8031 112.569 84.8031L29.9313 83.5108C28.8137 83.4759 27.7309 83.3362 26.6482 83.0567C23.7143 82.3233 18.4752 80.3673 16.205 75.7919C15.5763 74.4996 15.2969 73.0326 15.2969 71.6006Z" fill="#8A9CC0"/>
<path d="M33.5994 67.0252H30.5957V55.8834L33.5994 56.1279V67.0252Z" fill="#293560"/>
<path d="M28.5 56.4772L30.5956 56.093V67.3395H28.5V56.4772Z" fill="white"/>
<path d="M30.5961 67.8635H28.5005C28.2211 67.8635 27.9766 67.619 27.9766 67.3395V56.5121C27.9766 56.2677 28.1512 56.0581 28.3957 55.9882L30.4913 55.604C30.631 55.5691 30.8057 55.604 30.9104 55.7088C31.0152 55.8136 31.0851 55.9533 31.0851 56.1279V67.3395C31.12 67.619 30.8755 67.8635 30.5961 67.8635ZM29.0244 66.8156H30.0722V56.7566L29.0244 56.9313V66.8156Z" fill="#293560"/>
<path d="M46.1726 72.6135H32.5859V61.5765L46.1726 61.7861V72.6135Z" fill="#293560"/>
<path d="M23.0859 62.4497L32.5512 61.5067V72.7882H23.0859V62.4497Z" fill="white"/>
<path d="M32.5517 73.3121H23.0864C22.807 73.3121 22.5625 73.0676 22.5625 72.7882V62.4497C22.5625 62.1703 22.7721 61.9607 23.0515 61.9258L32.5167 60.9828C32.6564 60.9828 32.7962 61.0177 32.9359 61.1225C33.0406 61.2273 33.1105 61.367 33.1105 61.5067V72.7882C33.0756 73.0676 32.8311 73.3121 32.5517 73.3121ZM23.6103 72.2643H32.0278V62.1005L23.6103 62.9387V72.2643Z" fill="#293560"/>
<path d="M53.8912 70.2036L42.959 70.9021V60.0049L53.8912 58.9221V70.2036Z" fill="white"/>
<path d="M42.9595 71.426C42.8197 71.426 42.715 71.3911 42.6102 71.2863C42.5054 71.1815 42.4355 71.0418 42.4355 70.9021V60.0048C42.4355 59.7254 42.6451 59.5158 42.9245 59.4809L53.8218 58.4331C53.9615 58.4331 54.1012 58.468 54.2409 58.5728C54.3457 58.6776 54.4156 58.8173 54.4156 58.957V70.2036C54.4156 70.483 54.206 70.6925 53.9266 70.7275L42.9595 71.426C42.9944 71.426 42.9944 71.426 42.9595 71.426ZM43.4834 60.4589V70.3433L53.3328 69.7146V59.5158L43.4834 60.4589Z" fill="#293560"/>
<path d="M45.0903 69.5749C44.8109 69.5749 44.5664 69.3304 44.5664 69.051V61.1924C44.5664 60.9129 44.8109 60.6685 45.0903 60.6685C45.3697 60.6685 45.6142 60.9129 45.6142 61.1924V69.051C45.6142 69.3653 45.3697 69.5749 45.0903 69.5749Z" fill="#293560"/>
<path d="M47.2212 69.3653C46.9418 69.3653 46.6973 69.1208 46.6973 68.8414V60.9828C46.6973 60.7034 46.9418 60.4589 47.2212 60.4589C47.5006 60.4589 47.7451 60.7034 47.7451 60.9828V68.8414C47.7451 69.1557 47.5006 69.3653 47.2212 69.3653Z" fill="#293560"/>
<path d="M49.3872 69.1907C49.1078 69.1907 48.8633 68.9462 48.8633 68.6668V60.7733C48.8633 60.4939 49.1078 60.2494 49.3872 60.2494C49.6666 60.2494 49.9111 60.4939 49.9111 60.7733V68.6319C49.9111 68.9462 49.6666 69.1907 49.3872 69.1907Z" fill="#293560"/>
<path d="M51.5161 68.9811C51.2367 68.9811 50.9922 68.7366 50.9922 68.4572V60.5986C50.9922 60.3192 51.2367 60.0747 51.5161 60.0747C51.7955 60.0747 52.04 60.3192 52.04 60.5986V68.4572C52.04 68.7366 51.8304 68.9811 51.5161 68.9811Z" fill="#293560"/>
<path d="M53.6816 70.4131V58.7125L69.0845 59.3761V69.4352L53.6816 70.4131Z" fill="#293560"/>
<path d="M66.8153 69.051L55.918 69.7495V58.8523L66.8153 57.8044V69.051Z" fill="white"/>
<path d="M55.9184 70.2734C55.7787 70.2734 55.6739 70.2385 55.5692 70.1337C55.4644 70.0289 55.3945 69.8892 55.3945 69.7495V58.8522C55.3945 58.5728 55.6041 58.3633 55.8835 58.3283L66.7808 57.2805C66.9205 57.2805 67.0602 57.3154 67.1999 57.4202C67.3047 57.525 67.3745 57.6647 67.3745 57.8044V69.0859C67.3745 69.3653 67.165 69.5749 66.8856 69.6098L55.9184 70.2734ZM56.4423 59.3412V69.2256L66.2918 68.5969V58.3982L56.4423 59.3412Z" fill="#293560"/>
<path d="M58.1528 68.5619C57.8734 68.5619 57.6289 68.3174 57.6289 68.038V60.1794C57.6289 59.9 57.8734 59.6555 58.1528 59.6555C58.4322 59.6555 58.6767 59.9 58.6767 60.1794V68.038C58.6767 68.3174 58.4322 68.5619 58.1528 68.5619Z" fill="#293560"/>
<path d="M60.2837 68.3523C60.0043 68.3523 59.7598 68.1079 59.7598 67.8284V59.9698C59.7598 59.6904 60.0043 59.4459 60.2837 59.4459C60.5631 59.4459 60.8076 59.6904 60.8076 59.9698V67.8284C60.8076 68.1079 60.598 68.3523 60.2837 68.3523Z" fill="#293560"/>
<path d="M62.4497 68.1429C62.1703 68.1429 61.9258 67.8984 61.9258 67.619V59.7604C61.9258 59.4809 62.1703 59.2365 62.4497 59.2365C62.7291 59.2365 62.9736 59.4809 62.9736 59.7604V67.619C62.9736 67.8984 62.7291 68.1429 62.4497 68.1429Z" fill="#293560"/>
<path d="M64.5786 67.9333C64.2992 67.9333 64.0547 67.6888 64.0547 67.4094V59.5508C64.0547 59.2713 64.2992 59.0269 64.5786 59.0269C64.858 59.0269 65.1025 59.2713 65.1025 59.5508V67.4094C65.1025 67.6888 64.893 67.9333 64.5786 67.9333Z" fill="#293560"/>
<path d="M66.6055 69.2954V57.5948L82.0083 58.2585V68.3175L66.6055 69.2954Z" fill="#293560"/>
<path d="M80.4705 68.2128L69.1191 68.9463V57.6299L80.4705 56.5122V68.2128Z" fill="white"/>
<path d="M69.1196 69.4701C68.9799 69.4701 68.8751 69.4352 68.7703 69.3304C68.6656 69.2256 68.5957 69.0859 68.5957 68.9462V57.6298C68.5957 57.3504 68.8053 57.1409 69.0847 57.1059L80.436 56.0232C80.5757 56.0232 80.7154 56.0581 80.8551 56.1629C80.9599 56.2677 81.0298 56.4074 81.0298 56.5471V68.2477C81.0298 68.5271 80.8202 68.7367 80.5408 68.7716L69.1196 69.4701C69.1545 69.4701 69.1545 69.4701 69.1196 69.4701ZM69.6435 58.0839V68.3874L79.947 67.7238V57.071L69.6435 58.0839Z" fill="#293560"/>
<path d="M71.5649 67.6539C71.2855 67.6539 71.041 67.4094 71.041 67.13V59.2713C71.041 58.9919 71.2855 58.7474 71.5649 58.7474C71.8443 58.7474 72.0888 58.9919 72.0888 59.2713V67.13C72.0888 67.4094 71.8793 67.6539 71.5649 67.6539Z" fill="#293560"/>
<path d="M73.7309 67.4443C73.4515 67.4443 73.207 67.1998 73.207 66.9204V59.0268C73.207 58.7474 73.4515 58.5029 73.7309 58.5029C74.0104 58.5029 74.2548 58.7474 74.2548 59.0268V66.8854C74.2548 67.1998 74.0104 67.4443 73.7309 67.4443Z" fill="#293560"/>
<path d="M75.8618 67.2348C75.5824 67.2348 75.3379 66.9903 75.3379 66.7109V58.8523C75.3379 58.5729 75.5824 58.3284 75.8618 58.3284C76.1412 58.3284 76.3857 58.5729 76.3857 58.8523V66.7109C76.3857 66.9903 76.1761 67.2348 75.8618 67.2348Z" fill="#293560"/>
<path d="M78.0259 67.0252C77.7464 67.0252 77.502 66.7807 77.502 66.5013V58.6427C77.502 58.3633 77.7464 58.1188 78.0259 58.1188C78.3053 58.1188 78.5498 58.3633 78.5498 58.6427V66.5013C78.5498 66.7807 78.3053 67.0252 78.0259 67.0252Z" fill="#293560"/>
<path d="M80.2617 68.4573V56.3026L96.2583 57.0012V67.4094L80.2617 68.4573Z" fill="#293560"/>
<path d="M94.7206 67.2697L83.0898 68.0032V56.3375L94.7206 55.2198V67.2697Z" fill="white"/>
<path d="M83.0903 68.5271C82.9506 68.5271 82.8458 68.4921 82.741 68.3874C82.6363 68.2826 82.5664 68.1429 82.5664 68.0032V56.3375C82.5664 56.0581 82.776 55.8485 83.0554 55.8136L94.721 54.6959C94.8608 54.6959 95.0005 54.7308 95.1402 54.8356C95.245 54.9404 95.3148 55.0801 95.3148 55.2198V67.2348C95.3148 67.5142 95.1052 67.7237 94.8258 67.7587L83.0903 68.5271ZM83.6142 56.8265V67.4443L94.2321 66.7807V55.8136L83.6142 56.8265Z" fill="#293560"/>
<path d="M85.4302 63.2531C85.1507 63.2531 84.9062 63.0086 84.9062 62.7292V58.049C84.9062 57.7696 85.1507 57.5251 85.4302 57.5251C85.7096 57.5251 85.9541 57.7696 85.9541 58.049V62.7292C85.9541 63.0086 85.7445 63.2531 85.4302 63.2531Z" fill="#293560"/>
<path d="M87.6997 62.9039C87.4203 62.9039 87.1758 62.6594 87.1758 62.38V57.8395C87.1758 57.56 87.4203 57.3156 87.6997 57.3156C87.9791 57.3156 88.2236 57.56 88.2236 57.8395V62.38C88.2236 62.6594 88.014 62.9039 87.6997 62.9039Z" fill="#293560"/>
<path d="M89.9712 62.5197C89.6918 62.5197 89.4473 62.2752 89.4473 61.9958V57.6299C89.4473 57.3504 89.6918 57.106 89.9712 57.106C90.2506 57.106 90.4951 57.3504 90.4951 57.6299V61.9958C90.4951 62.2752 90.2855 62.5197 89.9712 62.5197Z" fill="#293560"/>
<path d="M92.2407 62.0656C91.9613 62.0656 91.7168 61.8211 91.7168 61.5417V57.3854C91.7168 57.1059 91.9613 56.8615 92.2407 56.8615C92.5201 56.8615 92.7646 57.1059 92.7646 57.3854V61.5417C92.7646 61.856 92.555 62.0656 92.2407 62.0656Z" fill="#293560"/>
<path d="M94.5117 67.4792V55.0103L110.927 55.7088V66.4314L94.5117 67.4792Z" fill="#293560"/>
<path d="M108.413 60.0048C108.133 60.0048 107.889 59.7604 107.889 59.4809V57.6298C107.889 57.3504 108.133 57.1059 108.413 57.1059C108.692 57.1059 108.936 57.3504 108.936 57.6298V59.5159C108.936 59.7953 108.727 60.0048 108.413 60.0048Z" fill="#8A9CC0"/>
<path d="M106.143 60.2493C105.864 60.2493 105.619 60.0048 105.619 59.7254V57.4901C105.619 57.2107 105.864 56.9662 106.143 56.9662C106.422 56.9662 106.667 57.2107 106.667 57.4901V59.7254C106.667 60.0048 106.422 60.2493 106.143 60.2493Z" fill="#8A9CC0"/>
<path d="M103.872 60.6335C103.592 60.6335 103.348 60.3891 103.348 60.1096V57.4901C103.348 57.2107 103.592 56.9662 103.872 56.9662C104.151 56.9662 104.395 57.2107 104.395 57.4901V60.1096C104.395 60.3891 104.151 60.6335 103.872 60.6335Z" fill="#8A9CC0"/>
<path d="M101.567 60.9479C101.287 60.9479 101.043 60.7034 101.043 60.424V57.3854C101.043 57.1059 101.287 56.8615 101.567 56.8615C101.846 56.8615 102.091 57.1059 102.091 57.3854V60.424C102.091 60.7034 101.881 60.9479 101.567 60.9479Z" fill="#8A9CC0"/>
<path d="M99.2973 61.2273C99.0179 61.2273 98.7734 60.9828 98.7734 60.7034V57.2805C98.7734 57.0011 99.0179 56.7566 99.2973 56.7566C99.5768 56.7566 99.8213 57.0011 99.8213 57.2805V60.7383C99.8213 61.0177 99.5768 61.2273 99.2973 61.2273Z" fill="#8A9CC0"/>
<path d="M97.0259 61.5417C96.7464 61.5417 96.502 61.2972 96.502 61.0178V57.071C96.502 56.7916 96.7464 56.5471 97.0259 56.5471C97.3053 56.5471 97.5498 56.7916 97.5498 57.071V61.0178C97.5498 61.2972 97.3053 61.5417 97.0259 61.5417Z" fill="#8A9CC0"/>
<path d="M127.169 61.5067C118.018 57.7346 83.5098 64.7549 83.5098 64.7549L81.1697 68.2476L36.3931 71.1466L35.0659 67.2347L15.332 67.9682V71.6356C15.332 72.5087 15.4368 73.4169 15.6813 74.2551C15.7512 74.5695 104.676 70.1337 104.676 70.1337C104.676 70.1337 117.564 69.3653 119.45 69.5399C123.99 69.9241 124.305 70.9021 124.305 70.9021C128.356 67.584 132.268 63.6373 127.169 61.5067Z" fill="white"/>
<path d="M127.169 61.5067C126.75 61.332 126.296 61.1923 125.772 61.0526C125.598 61.0177 122.245 64.6501 119.835 68.8064C116.447 74.6044 113.653 81.7993 112.5 84.838H112.64C112.64 84.838 116.831 78.3066 118.577 75.6871C120.289 73.0676 135.377 64.9295 127.169 61.5067Z" fill="#8A9CC0"/>
<path d="M127.17 61.5067C126.751 61.332 126.297 61.1923 125.773 61.0526C125.598 61.0177 122.245 64.6501 119.835 68.8064C119.695 69.0509 119.556 69.2954 119.416 69.5399C123.957 69.9241 124.271 70.9021 124.271 70.9021C128.357 67.584 132.269 63.6372 127.17 61.5067Z" fill="#8A9CC0"/>
<path d="M115.294 77.9225L18.3359 78.6909C20.9205 81.2755 24.4831 82.5329 26.7184 83.0917C27.7663 83.3711 28.8839 83.5108 30.0016 83.5458L112.639 84.8381C112.639 84.8381 115.014 81.1009 116.97 78.167L115.294 77.9225Z" fill="#293560"/>
<path d="M115.888 77.0842C115.818 77.0842 115.749 77.0842 115.679 77.0493C115.399 76.9445 115.294 76.6302 115.399 76.3507C116.726 73.3819 118.054 70.7624 119.346 68.562C121.023 65.698 123.223 62.9387 124.585 61.4369C124.795 61.2273 125.109 61.2273 125.319 61.4019C125.528 61.6115 125.528 61.9258 125.353 62.1354C124.026 63.6023 121.861 66.2568 120.254 69.0859C118.997 71.2514 117.67 73.836 116.377 76.7699C116.272 76.9445 116.098 77.0842 115.888 77.0842Z" fill="#293560"/>
<path d="M112.604 85.3619L29.9667 84.0696C28.8141 84.0347 27.6616 83.895 26.5788 83.6156C23.5751 82.8472 18.1264 80.8214 15.7863 76.0713C15.1227 74.7092 14.7734 73.1724 14.7734 71.6006V67.9682C14.7734 67.6888 14.983 67.4443 15.2624 67.4443L34.9963 66.641C35.2407 66.641 35.4503 66.7807 35.5202 66.9903L36.7426 70.6227L80.8905 67.7587L83.0909 64.4755C83.1608 64.3707 83.3005 64.266 83.4053 64.266C84.8373 63.9865 118.193 57.2456 127.379 61.0527C129.02 61.7512 129.963 62.6942 130.103 63.8468C130.487 66.7807 126.016 70.2385 122.384 73.0327C120.847 74.2202 119.38 75.3379 118.996 75.9665C117.285 78.5511 113.093 85.0476 113.058 85.1174C112.954 85.2572 112.779 85.3619 112.604 85.3619ZM15.8213 68.4572V71.5657C15.8213 72.9977 16.1356 74.3599 16.7294 75.5823C18.8948 79.9832 23.9942 81.8692 26.8233 82.6027C27.8362 82.8472 28.884 83.0218 29.9667 83.0218L112.29 84.3141C113.058 83.0917 116.551 77.7129 118.088 75.4077C118.612 74.6393 119.974 73.5915 121.72 72.2293C124.759 69.8892 129.334 66.3267 129.02 63.9865C128.915 63.2181 128.217 62.5196 126.924 61.9957C118.402 58.4681 86.6884 64.6502 83.7895 65.209L81.5541 68.5271C81.4493 68.6668 81.3096 68.7366 81.1699 68.7716L36.3933 71.6705C36.1488 71.6705 35.9393 71.5308 35.8694 71.3212L34.647 67.6888L15.8213 68.4572Z" fill="#293560"/>
<path d="M213.649 216.164C209.073 216.164 205.371 219.866 205.371 224.442C205.371 225.594 205.895 227.166 206.663 228.912C208.619 233.313 212.217 238.727 213.334 240.334C213.509 240.578 213.823 240.578 213.998 240.334C215.535 238.063 221.961 228.423 221.961 224.407C221.927 219.866 218.224 216.164 213.649 216.164Z" fill="#293560"/>
<path d="M217.161 225.263C217.622 223.311 216.413 221.355 214.46 220.894C212.508 220.433 210.552 221.641 210.091 223.594C209.63 225.546 210.839 227.503 212.791 227.964C214.743 228.425 216.7 227.216 217.161 225.263Z" fill="white"/>
<path d="M151.303 175.823C146.728 175.823 143.025 179.526 143.025 184.101C143.025 185.254 143.549 186.825 144.318 188.572C146.274 192.972 149.871 198.386 150.989 199.993C151.163 200.237 151.478 200.237 151.652 199.993C153.189 197.723 159.616 188.083 159.616 184.066C159.581 179.526 155.879 175.823 151.303 175.823Z" fill="#293560"/>
<path d="M151.302 187.698C153.308 187.698 154.935 186.072 154.935 184.066C154.935 182.06 153.308 180.434 151.302 180.434C149.296 180.434 147.67 182.06 147.67 184.066C147.67 186.072 149.296 187.698 151.302 187.698Z" fill="white"/>
<path d="M146.38 152.911L284.517 152.527C287.311 152.527 289.476 154.867 289.232 157.591L279.557 264.713C279.347 267.123 277.287 268.939 274.842 268.939H104.677C101.883 268.939 99.6823 266.354 99.9268 263.63L109.602 157.172C109.811 154.762 111.802 152.667 114.247 152.667L146.38 152.911Z" fill="#293560"/>
<path d="M140.058 152.667L278.194 152.282C280.989 152.282 283.154 154.657 282.91 157.382L273.235 265.376C273.025 267.786 270.965 269.638 268.52 269.638H98.3546C95.5604 269.638 93.36 267.018 93.6045 264.294L103.279 156.963C103.489 154.553 105.48 152.422 107.925 152.422L140.058 152.667Z" fill="white"/>
<path d="M99.438 198.91H99.403C99.1236 198.875 98.9141 198.631 98.9141 198.351L102.477 156.264C102.721 153.54 104.956 151.479 107.716 151.479H139.779C140.058 151.479 140.303 151.723 140.303 152.003C140.303 152.282 140.058 152.527 139.779 152.527H107.716C105.515 152.527 103.734 154.168 103.524 156.369L99.9619 198.456C99.9269 198.735 99.7174 198.91 99.438 198.91Z" fill="#171F39"/>
<path d="M216.479 270.685L133.422 270.126C133.143 270.126 132.898 269.882 132.898 269.603C132.898 269.323 133.143 269.079 133.422 269.079L216.479 269.637C216.758 269.637 217.003 269.882 217.003 270.161C217.003 270.476 216.793 270.685 216.479 270.685Z" fill="#171F39"/>
<path d="M139.778 152.527C139.498 152.527 139.254 152.282 139.254 152.003C139.254 151.724 139.498 151.479 139.778 151.479L219.062 151.444C219.342 151.444 219.586 151.689 219.586 151.968C219.586 152.247 219.342 152.492 219.062 152.492L139.778 152.527Z" fill="#171F39"/>
<path d="M266.842 269.358C266.563 269.358 266.318 269.114 266.318 268.834C266.318 268.555 266.563 268.31 266.842 268.31L270.719 268.275C271.802 267.926 272.535 266.948 272.64 265.831L282.106 157.102C282.21 155.915 281.826 154.762 281.023 153.889C280.219 153.016 279.102 152.527 277.914 152.527H256.434C256.155 152.527 255.91 152.282 255.91 152.003C255.91 151.723 256.155 151.479 256.434 151.479H277.914C279.381 151.479 280.813 152.108 281.791 153.19C282.769 154.273 283.293 155.74 283.153 157.207L273.688 265.935C273.548 267.507 272.466 268.834 270.964 269.323C270.929 269.323 270.859 269.358 270.824 269.358H266.842Z" fill="#171F39"/>
<path d="M143.621 158.395H270.092C272.642 158.395 274.633 160.525 274.423 162.97L265.622 259.089C265.412 261.255 263.561 262.931 261.291 262.931H105.446C102.896 262.931 100.905 260.801 101.115 258.356L109.916 162.237C110.126 160.071 111.977 158.395 114.247 158.395H143.621Z" fill="#8A9CC0"/>
<path d="M273.829 169.397L274.423 163.04C274.632 160.595 272.641 158.464 270.092 158.464H143.62H114.282C112.046 158.464 110.16 160.141 109.951 162.306L109.287 169.432H273.829V169.397Z" fill="#8A9CC0"/>
<path d="M253.572 166.218C254.749 166.218 255.702 165.264 255.702 164.088C255.702 162.911 254.749 161.957 253.572 161.957C252.395 161.957 251.441 162.911 251.441 164.088C251.441 165.264 252.395 166.218 253.572 166.218Z" fill="#8A9CC0"/>
<path d="M259.474 166.358C260.651 166.358 261.605 165.404 261.605 164.227C261.605 163.051 260.651 162.097 259.474 162.097C258.298 162.097 257.344 163.051 257.344 164.227C257.344 165.404 258.298 166.358 259.474 166.358Z" fill="#8A9CC0"/>
<path d="M267.404 164.227C267.404 165.415 266.461 166.358 265.273 166.358C264.086 166.358 263.143 165.415 263.143 164.227C263.143 163.04 264.086 162.097 265.273 162.097C266.461 162.097 267.404 163.04 267.404 164.227Z" fill="#8A9CC0"/>
<path d="M146.8 218.574C146.311 218.784 145.997 219.203 145.997 219.692C145.962 221.194 144.984 224.896 143.622 226.014C139.885 229.122 142.05 234.606 144.6 235.898C147.15 237.19 148.197 237.33 148.232 239.495C148.267 241.661 147.918 250.043 148.512 252.279C149.14 254.514 150.503 258.146 151.341 259.02C152.144 259.893 154.17 260.522 153.157 257.343C152.109 254.2 151.446 252.698 153.052 251.091C154.659 249.485 157.418 245.712 157.732 244.211C158.047 242.709 158.99 241.87 159.793 241.731C160.596 241.626 162.308 241.207 162.832 240.683C163.356 240.194 162.517 238.587 162.308 237.19C162.133 235.828 162.168 234.99 164.718 234.117C167.268 233.209 166.325 230.065 163.041 229.017C159.758 227.935 157.837 226.083 158.361 224.407C158.885 222.73 156.231 222.695 154.729 221.787C153.227 220.844 153.367 219.587 151.69 218.853C149.42 217.806 147.708 218.19 146.8 218.574Z" fill="#8A9CC0"/>
<path d="M163.74 192.483C164.264 191.226 164.369 189.445 164.019 188.781C163.67 188.118 162.518 186.965 160.108 188.397C157.698 189.829 157.139 189.794 156.58 188.537C156.021 187.279 157.663 184.241 160.492 184.45C163.356 184.66 163.985 183.752 164.124 183.018C164.264 182.285 163.426 181.412 162.483 181.202C161.505 180.957 161.295 181.516 157.104 182.809C154.938 183.472 153.017 183.367 151.69 183.088C151.096 182.983 150.573 182.564 150.328 182.005C149.874 180.992 149.106 179.735 147.15 180.608C144.6 181.761 143.343 183.717 142.365 183.228C141.422 182.739 141.282 181.377 140.898 180.678C140.513 179.98 136.846 177.36 133.982 178.513C131.118 179.63 126.263 181.656 126.927 182.844C127.556 184.066 129.546 184.276 132.585 183.891C135.624 183.507 134.681 185.638 134.995 186.406C135.309 187.175 136.148 187.489 136.078 189.061C136.008 190.632 135.833 191.471 134.716 192.134C133.633 192.798 132.934 193.811 132.969 195.313C133.214 204.044 138.872 209.074 140.409 209.737C141.946 210.401 142.4 210.436 143.133 211.414C143.168 211.449 143.168 211.449 143.203 211.484C144.286 213.405 145.403 214.907 145.927 215.291C147.254 216.199 147.604 214.313 147.743 212.776C147.848 211.239 147.429 209.353 146.731 207.537C146.067 205.721 146.137 204.568 146.451 203.87C146.765 203.171 147.743 202.996 148.337 203.765C148.931 204.533 150.433 205.302 151.236 204.917C152.214 204.428 152.005 202.228 152.389 201.53C152.773 200.831 154.589 200.482 155.462 199.015C156.301 197.548 159.13 198.177 160.736 197.862C162.727 197.478 164.019 196.605 164.264 196.116C164.962 194.544 163.216 193.741 163.74 192.483Z" fill="#8A9CC0"/>
<path d="M163.949 175.369C163.111 175.614 162.657 176.522 162.971 177.36C163.076 177.639 163.216 177.884 163.39 178.024C163.914 178.478 166.219 178.932 166.569 179.84C166.918 180.748 165.311 185.114 166.848 186.022C167.826 186.616 174.218 184.695 177.152 182.389C180.05 180.119 181.378 178.582 179.841 178.373C178.269 178.163 174.602 178.408 172.332 177.989C170.061 177.57 166.324 175.474 165.137 175.229C164.752 175.194 164.333 175.264 163.949 175.369Z" fill="#8A9CC0"/>
<path d="M187.387 203.346C187.387 203.346 182.462 204.394 180.506 203.136C178.55 201.879 180.261 199.958 177.293 199.853C174.324 199.748 168.701 199.539 166.989 204.289C165.278 209.074 165.382 211.204 168.142 213.265C170.901 215.291 175.267 213.021 176.175 214.383C177.083 215.745 176.699 216.618 176.978 218.819C177.817 225.315 179.947 231.916 182.182 232.894C183.51 233.453 186.758 232.44 188.155 230.17C189.517 227.9 190.914 226.572 191.124 224.477C191.298 222.87 189.412 221.403 191.333 219.587C193.289 217.771 196.014 217.177 196.014 215.954C196.014 214.697 195.105 214.383 193.953 214.033C192.8 213.684 189.936 211.309 190.146 209.633C190.355 207.921 190.984 207.083 191.508 207.607C192.067 208.131 191.892 209.772 192.346 210.506C192.8 211.239 193.639 213.405 195.175 212.567C196.712 211.763 197.166 211.204 198.074 211.03C198.982 210.855 199.436 208.41 198.703 207.677C197.97 206.943 197.236 207.327 196.782 206.769C196.328 206.245 195.49 204.952 196.957 205.337C198.424 205.686 197.585 206.699 200.17 207.048C202.72 207.397 205.199 209.109 205.933 210.925C206.666 212.741 207.295 215.361 208.308 215.431C209.321 215.535 209.041 211.903 210.683 210.715C212.325 209.528 213.337 208.096 214.42 209.074C215.503 210.052 217.354 212.671 218.542 213.405C219.729 214.138 222.384 215.011 221.93 213.3C221.475 211.589 219.275 209.598 220.567 208.864C221.86 208.131 225.038 209.772 225.772 208.026C226.505 206.315 225.492 204.044 224.409 202.892C223.327 201.704 223.781 199.993 224.968 200.726C226.156 201.46 227.727 203.625 228.531 203.52C229.334 203.416 227.692 201.984 228.601 200.098C229.509 198.212 230.417 197.199 229.055 195.767C227.692 194.335 225.213 193.252 226.295 192.693C227.378 192.134 228.775 192.588 230.033 192.588C231.325 192.588 231.395 190.702 232.023 191.226C232.652 191.75 232.478 195.208 234.119 195.662C235.761 196.116 234.014 193.042 235.307 191.855C236.564 190.667 238.031 188.886 237.018 188.257C236.005 187.629 232.547 188.362 231.534 187.559C230.522 186.755 228.81 186.127 225.527 186.476C222.244 186.86 217.144 187.664 214.839 186.581C212.569 185.498 213.652 184.695 210.927 183.961C208.203 183.263 202.335 183.542 200.973 184.171C199.611 184.799 199.436 185.708 193.673 186.616C187.945 187.524 187.736 184.276 185.466 184.031C183.195 183.787 181.728 183.752 178.899 185.777C176.07 187.768 174.533 188.781 175.791 189.026C177.083 189.305 177.258 189.654 179.249 189.096C181.239 188.537 181.519 187.559 182.252 187.733C182.986 187.908 183.719 188.711 181.798 189.899C179.877 191.086 179.528 189.899 178.34 190.283C177.153 190.632 177.712 191.645 176.699 192.274C175.686 192.903 175.616 191.645 174.254 192.903C172.892 194.16 172.892 195.243 172.333 195.871C171.774 196.5 170.691 194.963 169.958 196.151C169.224 197.338 169.783 198.945 171.041 198.77C172.333 198.596 173.486 196.675 175.337 196.5C177.188 196.325 178.62 195.138 178.725 196.5C178.829 197.862 178.829 199.399 179.563 199.189C180.296 199.015 180.017 196.57 180.646 196.675C181.274 196.779 182.008 198.561 183.3 199.12C184.592 199.644 186.129 199.399 187.317 200.028C188.504 200.621 190.286 201.215 187.387 203.346Z" fill="#8A9CC0"/>
<path d="M203.801 243.582C203.801 243.582 202.194 235.828 206.071 234.745C209.948 233.697 216.619 233.383 218.016 230.729C220.112 226.782 224.547 226.782 226.538 230.519C228.459 234.117 232.441 237.609 231.288 240.054C230.136 242.499 221.788 249.869 219.902 249.729C218.016 249.589 217.143 244.769 214.977 244.42C212.812 244.071 207.049 244.28 205.617 244.56C204.115 244.874 203.801 243.582 203.801 243.582Z" fill="#8A9CC0"/>
<path d="M66.186 190.877C66.0463 190.877 65.9065 190.807 65.8018 190.702C64.8238 189.689 63.8808 188.641 62.9727 187.594C62.798 187.384 62.798 187.035 63.0076 186.86C63.2172 186.686 63.5664 186.686 63.7411 186.895C64.6492 187.908 65.5922 188.956 66.5702 189.969C66.7797 190.178 66.7448 190.493 66.5352 190.702C66.4305 190.842 66.3257 190.877 66.186 190.877ZM60.6675 184.555C60.5278 184.555 60.3531 184.485 60.2484 184.345C59.3752 183.228 58.502 182.11 57.6987 180.992C57.524 180.748 57.5939 180.434 57.8035 180.259C58.0479 180.084 58.3623 180.154 58.5369 180.364C59.3402 181.481 60.1785 182.564 61.0866 183.682C61.2612 183.891 61.2263 184.241 61.0167 184.415C60.877 184.52 60.7723 184.555 60.6675 184.555ZM55.7078 177.814C55.5332 177.814 55.3586 177.744 55.2538 177.57C54.4854 176.382 53.717 175.195 53.0184 173.972C52.8787 173.728 52.9486 173.413 53.1931 173.239C53.4376 173.099 53.7519 173.169 53.9265 173.413C54.6251 174.601 55.3586 175.788 56.1269 176.941C56.3016 177.185 56.2317 177.5 55.9872 177.674C55.9174 177.779 55.8126 177.814 55.7078 177.814ZM204.323 173.413C204.043 173.413 203.799 173.413 203.519 173.413C203.24 173.413 202.996 173.169 202.996 172.889C202.996 172.61 203.24 172.365 203.519 172.365C204.882 172.4 206.279 172.331 207.641 172.191C207.92 172.156 208.2 172.365 208.235 172.645C208.27 172.924 208.06 173.204 207.781 173.239C206.628 173.343 205.475 173.413 204.323 173.413ZM199.363 173.064C199.328 173.064 199.328 173.064 199.293 173.064C197.861 172.889 196.464 172.645 195.137 172.365C194.858 172.296 194.683 172.016 194.753 171.737C194.823 171.457 195.102 171.283 195.381 171.353C196.674 171.632 198.036 171.876 199.468 172.051C199.747 172.086 199.957 172.331 199.922 172.645C199.852 172.889 199.643 173.064 199.363 173.064ZM211.832 172.47C211.588 172.47 211.378 172.296 211.308 172.086C211.238 171.807 211.413 171.527 211.692 171.457C213.02 171.143 214.312 170.689 215.604 170.2C215.884 170.095 216.163 170.235 216.268 170.514C216.373 170.794 216.233 171.073 215.954 171.178C214.626 171.702 213.264 172.121 211.902 172.47C211.937 172.47 211.902 172.47 211.832 172.47ZM191.225 171.248C191.155 171.248 191.12 171.248 191.05 171.213C189.723 170.759 188.396 170.2 187.139 169.606C186.894 169.467 186.754 169.152 186.894 168.908C187.034 168.663 187.348 168.523 187.593 168.663C188.815 169.257 190.107 169.781 191.4 170.235C191.679 170.34 191.819 170.619 191.714 170.899C191.644 171.108 191.435 171.248 191.225 171.248ZM51.5166 170.549C51.3419 170.549 51.1324 170.444 51.0625 170.27C50.4338 169.012 49.8051 167.72 49.2463 166.463C49.1415 166.183 49.2463 165.904 49.5257 165.764C49.8051 165.659 50.0846 165.764 50.2243 166.044C50.7831 167.301 51.3769 168.558 52.0055 169.816C52.1453 170.06 52.0405 170.375 51.7611 170.514C51.6563 170.549 51.5864 170.549 51.5166 170.549ZM219.621 169.432C219.446 169.432 219.237 169.327 219.167 169.152C219.027 168.908 219.132 168.593 219.376 168.454C220.564 167.825 221.751 167.091 222.904 166.323C223.148 166.148 223.463 166.218 223.637 166.463C223.812 166.707 223.742 167.022 223.498 167.196C222.31 168 221.088 168.733 219.865 169.397C219.795 169.432 219.726 169.432 219.621 169.432ZM183.716 167.615C183.611 167.615 183.541 167.58 183.436 167.546C182.284 166.812 181.131 166.044 179.944 165.136C179.699 164.961 179.664 164.647 179.839 164.402C180.013 164.158 180.328 164.123 180.572 164.297C181.725 165.17 182.843 165.939 183.96 166.637C184.205 166.777 184.275 167.126 184.135 167.371C184.065 167.511 183.89 167.615 183.716 167.615ZM226.571 164.751C226.432 164.751 226.257 164.681 226.152 164.577C225.978 164.367 226.013 164.018 226.222 163.843C227.27 162.97 228.318 162.027 229.261 161.049C229.47 160.84 229.785 160.84 229.994 161.049C230.204 161.259 230.204 161.573 229.994 161.783C228.981 162.795 227.934 163.738 226.851 164.647C226.816 164.716 226.711 164.751 226.571 164.751ZM48.1636 162.9C47.954 162.9 47.7444 162.76 47.6746 162.551C47.1856 161.224 46.7315 159.862 46.3474 158.534C46.2775 158.255 46.4172 157.975 46.6966 157.871C46.976 157.801 47.2555 157.941 47.3602 158.22C47.7444 159.512 48.1636 160.874 48.6525 162.167C48.7573 162.446 48.6176 162.726 48.3382 162.83C48.2683 162.865 48.1985 162.9 48.1636 162.9ZM177.01 162.586C176.905 162.586 176.765 162.551 176.66 162.446C175.683 161.608 174.67 160.7 173.517 159.652C173.307 159.442 173.307 159.128 173.482 158.919C173.692 158.709 174.006 158.709 174.216 158.884C175.333 159.931 176.346 160.84 177.324 161.678C177.534 161.852 177.569 162.202 177.394 162.411C177.324 162.516 177.184 162.586 177.01 162.586ZM232.474 158.814C232.369 158.814 232.23 158.779 232.125 158.709C231.915 158.534 231.88 158.185 232.055 157.975C232.928 156.893 233.766 155.775 234.535 154.657C234.709 154.413 235.024 154.343 235.268 154.518C235.513 154.692 235.583 155.007 235.408 155.251C234.64 156.404 233.766 157.556 232.858 158.639C232.788 158.744 232.649 158.814 232.474 158.814ZM170.863 156.928C170.723 156.928 170.583 156.893 170.513 156.788C169.535 155.845 168.557 154.867 167.51 153.854C167.3 153.645 167.3 153.33 167.51 153.121C167.719 152.911 168.033 152.911 168.243 153.121C169.256 154.133 170.269 155.111 171.247 156.054C171.456 156.264 171.456 156.578 171.247 156.788C171.142 156.858 171.002 156.928 170.863 156.928ZM45.8234 154.832C45.579 154.832 45.3694 154.657 45.2995 154.413C45.0201 153.016 44.7756 151.619 44.601 150.257C44.5661 149.977 44.7756 149.698 45.055 149.663C45.3345 149.628 45.6139 149.837 45.6488 150.117C45.8234 151.479 46.0679 152.841 46.3474 154.203C46.4172 154.483 46.2426 154.762 45.9282 154.832C45.8933 154.832 45.8584 154.832 45.8234 154.832ZM237.154 151.863C237.084 151.863 236.98 151.828 236.91 151.793C236.665 151.654 236.561 151.339 236.7 151.095C237.364 149.872 237.958 148.615 238.447 147.358C238.551 147.078 238.866 146.973 239.145 147.078C239.425 147.183 239.529 147.497 239.425 147.777C238.901 149.069 238.307 150.361 237.608 151.619C237.538 151.793 237.364 151.863 237.154 151.863ZM164.89 151.06C164.75 151.06 164.611 151.025 164.541 150.92C163.563 149.977 162.585 148.999 161.537 148.021C161.327 147.812 161.327 147.497 161.537 147.288C161.747 147.078 162.061 147.078 162.271 147.288C163.318 148.266 164.331 149.244 165.274 150.187C165.484 150.396 165.484 150.711 165.274 150.92C165.169 151.025 165.03 151.06 164.89 151.06ZM44.7756 146.519C44.4962 146.519 44.2517 146.31 44.2517 146.03C44.2168 145.367 44.2168 144.703 44.2168 144.04C44.2168 143.271 44.2517 142.503 44.2867 141.769C44.2867 141.49 44.5661 141.245 44.8455 141.28C45.1249 141.28 45.3694 141.525 45.3345 141.839C45.2995 142.573 45.2646 143.306 45.2646 144.04C45.2646 144.668 45.2646 145.332 45.2995 145.961C45.2995 146.275 45.09 146.519 44.7756 146.519ZM158.813 145.262C158.673 145.262 158.568 145.227 158.463 145.122C157.416 144.144 156.403 143.201 155.39 142.293C155.18 142.084 155.145 141.769 155.355 141.56C155.564 141.35 155.879 141.315 156.088 141.525C157.101 142.433 158.149 143.376 159.197 144.354C159.406 144.563 159.406 144.878 159.232 145.087C159.092 145.227 158.952 145.262 158.813 145.262ZM240.263 144.109C240.228 144.109 240.193 144.109 240.123 144.109C239.844 144.04 239.669 143.76 239.739 143.481C240.088 142.084 240.333 140.756 240.437 139.429C240.472 139.15 240.717 138.94 240.996 138.94C241.276 138.975 241.485 139.22 241.485 139.499C241.38 140.861 241.136 142.258 240.752 143.725C240.717 143.935 240.507 144.109 240.263 144.109ZM152.596 139.674C152.491 139.674 152.351 139.639 152.246 139.534C151.199 138.626 150.116 137.718 149.068 136.845C148.858 136.67 148.824 136.321 148.998 136.111C149.173 135.902 149.522 135.867 149.732 136.041C150.814 136.914 151.862 137.857 152.945 138.766C153.155 138.94 153.189 139.289 153.015 139.499C152.875 139.639 152.735 139.674 152.596 139.674ZM45.2297 138.172C45.1948 138.172 45.1598 138.172 45.1598 138.172C44.8804 138.137 44.6709 137.857 44.7407 137.578C44.9503 136.146 45.2646 134.749 45.6488 133.422C45.7187 133.142 46.033 132.968 46.3124 133.072C46.5918 133.142 46.7665 133.457 46.6617 133.736C46.3124 135.028 45.9981 136.391 45.7885 137.753C45.6837 137.997 45.4742 138.172 45.2297 138.172ZM240.857 135.797C240.612 135.797 240.368 135.622 240.333 135.343C240.263 134.784 240.158 134.26 240.018 133.771C239.809 133.003 239.564 132.199 239.25 131.466C239.145 131.186 239.285 130.907 239.529 130.767C239.809 130.662 240.088 130.802 240.228 131.047C240.542 131.85 240.822 132.653 241.031 133.492C241.171 134.05 241.276 134.609 241.38 135.203C241.415 135.482 241.206 135.762 240.926 135.797C240.926 135.797 240.891 135.797 240.857 135.797ZM146.134 134.33C146.029 134.33 145.89 134.295 145.82 134.225C144.737 133.352 143.619 132.479 142.537 131.64C142.292 131.466 142.257 131.151 142.432 130.907C142.607 130.662 142.921 130.628 143.165 130.802C144.283 131.64 145.401 132.514 146.483 133.387C146.693 133.561 146.763 133.911 146.553 134.12C146.449 134.26 146.309 134.33 146.134 134.33ZM47.5349 130.139C47.465 130.139 47.3952 130.139 47.3253 130.104C47.0459 129.999 46.9411 129.684 47.0459 129.405C47.6397 128.043 48.3382 126.786 49.1066 125.668C49.2812 125.423 49.5956 125.354 49.8401 125.528C50.0846 125.703 50.1544 126.017 49.9798 126.262C49.2463 127.344 48.5827 128.567 47.9889 129.859C47.9191 130.034 47.7444 130.139 47.5349 130.139ZM139.498 129.23C139.393 129.23 139.288 129.196 139.184 129.126C138.555 128.672 137.926 128.218 137.298 127.763C136.809 127.414 136.285 127.065 135.796 126.716C135.551 126.541 135.516 126.227 135.656 125.982C135.831 125.738 136.145 125.703 136.389 125.843C136.878 126.192 137.402 126.541 137.891 126.925C138.52 127.379 139.184 127.868 139.777 128.322C140.022 128.497 140.057 128.811 139.882 129.056C139.812 129.161 139.673 129.23 139.498 129.23ZM237.748 128.113C237.573 128.113 237.434 128.043 237.329 127.903C236.561 126.82 235.687 125.773 234.674 124.795C234.465 124.585 234.465 124.271 234.674 124.061C234.884 123.852 235.198 123.852 235.408 124.061C236.456 125.074 237.399 126.192 238.167 127.344C238.342 127.589 238.272 127.903 238.027 128.078C237.958 128.078 237.853 128.113 237.748 128.113ZM132.617 124.445C132.513 124.445 132.408 124.41 132.338 124.376C131.185 123.607 129.998 122.874 128.81 122.14C128.566 122.001 128.496 121.651 128.636 121.407C128.775 121.162 129.125 121.092 129.369 121.232C130.557 121.966 131.744 122.699 132.932 123.467C133.176 123.642 133.246 123.956 133.071 124.201C132.967 124.341 132.792 124.445 132.617 124.445ZM52.2151 123.223C52.0754 123.223 51.9706 123.188 51.8658 123.083C51.6563 122.874 51.6563 122.559 51.8309 122.35C52.7739 121.372 53.8218 120.394 54.9394 119.451C55.149 119.276 55.4983 119.311 55.6729 119.521C55.8475 119.73 55.8126 120.08 55.603 120.254C54.5203 121.162 53.4725 122.105 52.5993 123.083C52.4596 123.188 52.3548 123.223 52.2151 123.223ZM231.845 122.21C231.741 122.21 231.636 122.175 231.531 122.105C230.448 121.337 229.261 120.603 228.038 119.94C227.794 119.8 227.689 119.486 227.829 119.241C227.968 118.997 228.283 118.892 228.527 119.032C229.82 119.73 231.042 120.464 232.16 121.267C232.404 121.442 232.439 121.756 232.299 122.001C232.16 122.14 231.985 122.21 231.845 122.21ZM125.457 120.08C125.387 120.08 125.283 120.045 125.213 120.01C123.99 119.311 122.768 118.648 121.545 118.019C121.301 117.879 121.196 117.565 121.336 117.32C121.476 117.076 121.79 116.971 122.034 117.111C123.257 117.739 124.514 118.438 125.737 119.102C125.981 119.241 126.086 119.556 125.946 119.8C125.807 120.01 125.632 120.08 125.457 120.08ZM224.476 118.263C224.406 118.263 224.336 118.263 224.266 118.228C223.009 117.739 221.682 117.285 220.354 116.901C220.075 116.831 219.9 116.517 220.005 116.238C220.075 115.958 220.389 115.783 220.669 115.888C222.031 116.272 223.393 116.727 224.685 117.25C224.965 117.355 225.069 117.67 224.965 117.914C224.86 118.159 224.685 118.263 224.476 118.263ZM58.6068 117.844C58.4321 117.844 58.2924 117.774 58.1877 117.6C58.013 117.355 58.0829 117.041 58.3274 116.866C59.445 116.098 60.6675 115.329 61.9249 114.631C62.1693 114.491 62.4837 114.561 62.6234 114.84C62.7631 115.085 62.6932 115.399 62.4138 115.539C61.1914 116.238 60.0039 116.971 58.8862 117.739C58.8163 117.809 58.7116 117.844 58.6068 117.844ZM118.018 116.203C117.948 116.203 117.878 116.203 117.808 116.168C116.551 115.574 115.259 114.98 114.001 114.421C113.722 114.317 113.617 114.002 113.722 113.723C113.827 113.443 114.141 113.339 114.42 113.443C115.678 114.002 116.97 114.596 118.262 115.19C118.507 115.329 118.647 115.644 118.507 115.888C118.402 116.098 118.227 116.203 118.018 116.203ZM216.408 115.958C216.373 115.958 216.338 115.958 216.303 115.958C214.941 115.714 213.578 115.504 212.216 115.364C211.937 115.329 211.727 115.085 211.727 114.806C211.762 114.526 212.007 114.317 212.286 114.317C213.683 114.456 215.08 114.631 216.477 114.91C216.757 114.98 216.966 115.225 216.897 115.539C216.897 115.783 216.652 115.958 216.408 115.958ZM206.209 115.26C205.929 115.26 205.685 115.05 205.685 114.771C205.685 114.491 205.894 114.247 206.174 114.212C206.803 114.177 207.431 114.177 208.06 114.142C208.374 114.142 208.584 114.386 208.584 114.666C208.584 114.945 208.339 115.19 208.06 115.19C207.466 115.19 206.838 115.225 206.209 115.26C206.244 115.26 206.244 115.26 206.209 115.26ZM65.8716 113.688C65.6621 113.688 65.4874 113.583 65.3826 113.408C65.2429 113.164 65.3826 112.85 65.6271 112.71C66.8845 112.116 68.1768 111.522 69.504 110.998C69.7835 110.894 70.0629 111.033 70.2026 111.278C70.3074 111.557 70.1677 111.837 69.9232 111.976C68.6309 112.5 67.3386 113.059 66.1161 113.653C66.0113 113.653 65.9415 113.688 65.8716 113.688ZM110.334 112.85C110.264 112.85 110.194 112.85 110.159 112.815C108.867 112.291 107.54 111.802 106.247 111.348C105.968 111.243 105.828 110.964 105.933 110.684C106.038 110.405 106.317 110.265 106.597 110.37C107.889 110.824 109.216 111.313 110.543 111.837C110.823 111.942 110.928 112.256 110.823 112.5C110.753 112.745 110.543 112.85 110.334 112.85ZM73.6254 110.544C73.4159 110.544 73.2063 110.405 73.1365 110.195C73.0317 109.916 73.2063 109.636 73.4857 109.532C74.8479 109.077 76.2101 108.693 77.5373 108.344C77.8167 108.274 78.0961 108.449 78.166 108.728C78.2358 109.008 78.0612 109.287 77.7818 109.357C76.4545 109.706 75.1273 110.09 73.8001 110.509C73.7652 110.544 73.6953 110.544 73.6254 110.544ZM102.44 110.09C102.405 110.09 102.336 110.09 102.301 110.055C100.938 109.636 99.5763 109.287 98.284 108.973C98.0046 108.903 97.8299 108.623 97.8998 108.344C97.9696 108.065 98.2491 107.89 98.5285 107.96C99.8208 108.274 101.218 108.658 102.615 109.077C102.894 109.147 103.034 109.462 102.964 109.741C102.859 109.951 102.65 110.09 102.44 110.09ZM81.7635 108.519C81.519 108.519 81.3094 108.344 81.2396 108.1C81.2046 107.82 81.3793 107.541 81.6587 107.506C83.0907 107.261 84.4878 107.087 85.8499 106.947C86.1294 106.912 86.4088 107.122 86.4088 107.436C86.4437 107.715 86.2341 107.995 85.9198 107.995C84.5926 108.1 83.1955 108.309 81.7984 108.519C81.8333 108.484 81.7984 108.519 81.7635 108.519ZM94.3023 108.134C94.2674 108.134 94.2324 108.134 94.2324 108.134C92.9401 107.925 91.578 107.82 90.111 107.785C89.8316 107.785 89.5871 107.541 89.5871 107.261C89.5871 106.982 89.8316 106.737 90.111 106.737C91.578 106.772 93.01 106.877 94.3722 107.087C94.6516 107.122 94.8611 107.401 94.8262 107.68C94.7564 107.96 94.5468 108.134 94.3023 108.134Z" fill="#293560"/>
<path d="M64.6841 24.484C64.5095 24.484 64.3698 24.4141 64.265 24.2744C64.0903 24.0299 64.1602 23.7156 64.4047 23.5409C75.3718 15.8919 87.6312 10.8973 100.834 8.66196C101.113 8.62703 101.393 8.80167 101.427 9.08109C101.462 9.3605 101.288 9.63992 101.008 9.67485C87.9456 11.8753 75.8608 16.8 64.9985 24.3792C64.8937 24.449 64.7889 24.484 64.6841 24.484Z" fill="#171F39"/>
<path d="M71.7054 28.5006C71.5307 28.5006 71.3561 28.4308 71.2513 28.2561C71.0767 28.0116 71.1465 27.6973 71.391 27.5227C87.2479 17.0096 107.68 12.9231 122.035 11.3863C122.315 11.3514 122.594 11.561 122.629 11.8404C122.664 12.1198 122.454 12.3992 122.175 12.4341C107.925 13.9709 87.6671 17.9875 71.9848 28.3958C71.9149 28.4657 71.8101 28.5006 71.7054 28.5006Z" fill="#171F39"/>
<path d="M11.9458 168.663C11.841 168.663 11.7363 168.628 11.6664 168.593C11.4219 168.419 11.3521 168.104 11.5267 167.86L13.0286 165.59C13.2032 165.345 13.5175 165.275 13.762 165.45C14.0065 165.624 14.0764 165.939 13.9017 166.183L12.3999 168.454C12.2602 168.593 12.1205 168.663 11.9458 168.663Z" fill="#171F39"/>
<path d="M8.45363 173.937C8.34885 173.937 8.24407 173.902 8.17422 173.867C7.92973 173.693 7.85987 173.378 8.03451 173.134L9.53638 170.863C9.71101 170.619 10.0254 170.549 10.2698 170.724C10.5143 170.898 10.5842 171.213 10.4096 171.457L8.90769 173.728C8.80291 173.867 8.62827 173.937 8.45363 173.937Z" fill="#171F39"/>
<path d="M9.43093 169.187C9.32615 169.187 9.22137 169.152 9.15151 169.117L6.88125 167.615C6.63676 167.441 6.5669 167.126 6.74154 166.882C6.91618 166.637 7.23052 166.568 7.47501 166.742L9.74527 168.244C9.98976 168.419 10.0596 168.733 9.88498 168.977C9.7802 169.117 9.60557 169.187 9.43093 169.187Z" fill="#171F39"/>
<path d="M14.7044 172.68C14.5996 172.68 14.4948 172.645 14.4249 172.61L12.1547 171.108C11.9102 170.933 11.8403 170.619 12.015 170.374C12.1896 170.13 12.504 170.06 12.7484 170.235L15.0187 171.737C15.2632 171.911 15.3331 172.226 15.1584 172.47C15.0536 172.575 14.879 172.68 14.7044 172.68Z" fill="#171F39"/>
<path d="M271.524 102.93C271.419 102.93 271.314 102.895 271.245 102.86C271 102.686 270.93 102.371 271.105 102.127L272.607 99.8566C272.781 99.6122 273.096 99.5423 273.34 99.7169C273.585 99.8916 273.654 100.206 273.48 100.45L271.978 102.721C271.873 102.86 271.699 102.93 271.524 102.93Z" fill="#171F39"/>
<path d="M268.067 108.239C267.962 108.239 267.857 108.204 267.788 108.169C267.543 107.995 267.473 107.68 267.648 107.436L269.15 105.166C269.324 104.921 269.639 104.851 269.883 105.026C270.128 105.201 270.197 105.515 270.023 105.759L268.521 108.03C268.381 108.134 268.207 108.239 268.067 108.239Z" fill="#171F39"/>
<path d="M269.044 103.454C268.939 103.454 268.835 103.419 268.765 103.384L266.495 101.882C266.25 101.708 266.18 101.393 266.355 101.149C266.529 100.904 266.844 100.835 267.088 101.009L269.359 102.511C269.603 102.686 269.673 103 269.498 103.245C269.359 103.384 269.219 103.454 269.044 103.454Z" fill="#171F39"/>
<path d="M274.318 106.947C274.213 106.947 274.108 106.912 274.038 106.877L271.768 105.375C271.523 105.201 271.454 104.886 271.628 104.642C271.803 104.397 272.117 104.327 272.362 104.502L274.632 106.004C274.876 106.178 274.946 106.493 274.772 106.737C274.667 106.842 274.492 106.947 274.318 106.947Z" fill="#171F39"/>
<path d="M8.9411 154.762C8.45212 154.762 7.92822 154.657 7.43924 154.483C6.39142 154.064 5.55317 153.26 5.09912 152.212C4.19101 150.082 5.13405 147.567 7.22967 146.624C8.24256 146.17 9.36023 146.135 10.408 146.554C11.4559 146.973 12.2941 147.777 12.7482 148.825C13.6563 150.955 12.7132 153.47 10.6176 154.413C10.0588 154.657 9.49994 154.762 8.9411 154.762ZM8.9411 147.358C8.52198 147.358 8.10285 147.462 7.68373 147.637C6.11201 148.336 5.37854 150.222 6.07708 151.828C6.42635 152.632 7.02011 153.225 7.82343 153.505C8.59183 153.819 9.43008 153.784 10.1636 153.435C11.7353 152.736 12.4687 150.85 11.7702 149.244C11.4209 148.44 10.8272 147.847 10.0238 147.567C9.67457 147.427 9.29037 147.358 8.9411 147.358Z" fill="#171F39"/>
<path d="M263.385 88.0164C262.966 88.0164 262.547 87.9466 262.128 87.772C261.22 87.4227 260.521 86.7591 260.137 85.851C259.368 84.0347 260.172 81.9042 261.953 81.1009C262.826 80.7167 263.769 80.6817 264.642 81.031C265.55 81.3803 266.249 82.0439 266.633 82.952C267.402 84.7682 266.598 86.8988 264.817 87.7021C264.363 87.9117 263.874 88.0164 263.385 88.0164ZM263.385 81.8693C263.036 81.8693 262.721 81.9391 262.372 82.0788C261.115 82.6377 260.521 84.1395 261.08 85.4318C261.359 86.0605 261.848 86.5495 262.477 86.794C263.106 87.0385 263.769 87.0036 264.363 86.7591C265.62 86.2002 266.214 84.6984 265.655 83.4061C265.376 82.7774 264.887 82.2884 264.258 82.0439C263.979 81.9042 263.699 81.8693 263.385 81.8693Z" fill="#171F39"/>
<path d="M55.8828 259.928H52.6346C51.3073 259.928 50.2246 263.106 50.2246 267.018C50.2246 270.93 51.3073 274.108 52.6346 274.108H55.8828C57.21 274.108 58.2928 270.93 58.2928 267.018C58.2928 263.106 57.21 259.928 55.8828 259.928Z" fill="#293560"/>
<path d="M81.2415 270.511V222.975L15.9277 231.392V267.612L81.2415 270.511Z" fill="#293560"/>
<path d="M72.8223 258.286L74.848 260.207L74.2892 273.095C74.2543 273.829 74.848 274.457 75.5815 274.457H87.1074V258.356L72.8223 258.286Z" fill="#293560"/>
<path d="M108.623 209.563H70.5176V258.67H108.623V209.563Z" fill="white"/>
<path d="M108.624 259.229H70.518C70.2386 259.229 69.9941 258.985 69.9941 258.705V209.563C69.9941 209.283 70.2386 209.039 70.518 209.039H108.624C108.903 209.039 109.147 209.283 109.147 209.563V258.67C109.147 258.985 108.903 259.229 108.624 259.229ZM71.042 258.181H108.1V210.087H71.042V258.181Z" fill="#171F39"/>
<path d="M108.624 259.229H102.546C102.267 259.229 102.022 258.985 102.022 258.705C102.022 258.426 102.267 258.181 102.546 258.181H108.1V210.087H71.042V258.67C71.042 258.95 70.7975 259.194 70.518 259.194C70.2386 259.194 69.9941 258.95 69.9941 258.67V209.563C69.9941 209.283 70.2386 209.039 70.518 209.039H108.624C108.903 209.039 109.147 209.283 109.147 209.563V258.67C109.147 258.985 108.903 259.229 108.624 259.229Z" fill="#171F39"/>
<path d="M84.5585 262.932H80.7864C79.2496 262.932 77.9922 266.599 77.9922 271.104C77.9922 275.61 79.2496 279.277 80.7864 279.277H84.5585C86.0953 279.277 87.3527 275.61 87.3527 271.104C87.3177 266.599 86.0953 262.932 84.5585 262.932Z" fill="#293560"/>
<path d="M80.7864 279.173C82.3295 279.173 83.5805 275.513 83.5805 271C83.5805 266.486 82.3295 262.827 80.7864 262.827C79.2432 262.827 77.9922 266.486 77.9922 271C77.9922 275.513 79.2432 279.173 80.7864 279.173Z" fill="#8A9CC0"/>
<path d="M72.7532 224.337L72.6484 258.461L73.9407 259.543C74.4297 259.928 74.6742 260.521 74.6393 261.15L74.1154 273.444C74.0804 273.968 74.4996 274.387 75.0235 274.422C75.4077 274.422 75.7919 274.422 75.7919 274.422C75.7919 266.738 77.2239 260.452 79.11 260.452C80.9611 260.452 82.4979 266.669 82.4979 274.353C82.4979 274.387 86.9686 274.422 86.9686 274.422V224.477L72.7532 224.337Z" fill="#8A9CC0"/>
<path d="M86.8991 274.946C86.8991 274.946 85.7814 274.946 84.6638 274.911C84.1049 274.911 83.5461 274.876 83.127 274.876C82.2538 274.842 81.9045 274.842 81.9045 274.318C81.9045 267.472 80.717 262.582 79.5644 261.255C79.3898 261.045 79.3898 260.696 79.5993 260.521C79.8089 260.347 80.1582 260.347 80.3328 260.556C81.8696 262.268 82.8825 267.577 82.9523 273.794C83.8255 273.829 85.6767 273.829 86.8991 273.864C87.1785 273.864 87.423 274.108 87.423 274.388C87.423 274.702 87.2135 274.946 86.8991 274.946Z" fill="#171F39"/>
<path d="M115.295 262.547H111.523C109.986 262.547 108.729 266.215 108.729 270.72C108.729 275.226 109.986 278.893 111.523 278.893H115.295C116.832 278.893 118.089 275.226 118.089 270.72C118.089 266.215 116.832 262.547 115.295 262.547Z" fill="#293560"/>
<path d="M111.523 278.928C113.066 278.928 114.317 275.238 114.317 270.685C114.317 266.133 113.066 262.443 111.523 262.443C109.98 262.443 108.729 266.133 108.729 270.685C108.729 275.238 109.98 278.928 111.523 278.928Z" fill="#8A9CC0"/>
<path d="M118.647 224.407H87.1426V274.423H121.301C122.314 274.423 123.152 273.584 123.152 272.571V256.54C123.152 252.069 122.768 247.633 121.965 243.268L118.647 224.407Z" fill="white"/>
<path d="M121.337 274.946H87.1782C86.8988 274.946 86.6543 274.702 86.6543 274.423V224.407C86.6543 224.127 86.8988 223.883 87.1782 223.883H118.682C118.927 223.883 119.137 224.058 119.206 224.302L122.559 243.128C123.328 247.529 123.747 252.034 123.747 256.505V272.536C123.712 273.864 122.629 274.946 121.337 274.946ZM87.6672 273.899H121.302C122.035 273.899 122.629 273.305 122.629 272.571V256.54C122.629 252.139 122.245 247.703 121.477 243.337L118.193 224.931H87.6672V273.899Z" fill="#171F39"/>
<path d="M81.8702 246.83L83.5118 247.109C84.0706 247.214 84.5596 246.795 84.5596 246.236V235.863C84.5596 235.164 84.0008 234.571 83.3022 234.571H80.997C80.4033 234.571 79.9492 235.06 79.9492 235.653V244.525C79.9492 245.677 80.7525 246.655 81.8702 246.83Z" fill="#8A9CC0"/>
<path d="M70.5175 258.705V209.563L12.748 216.548V258.74L70.5175 258.705Z" fill="#8A9CC0"/>
<path d="M12.7485 259.264C12.6088 259.264 12.4691 259.194 12.3643 259.124C12.2595 259.02 12.2246 258.88 12.2246 258.74V216.548C12.2246 216.269 12.4342 216.059 12.6787 216.024L70.4481 209.039C70.5878 209.004 70.7625 209.074 70.8673 209.179C70.972 209.283 71.0419 209.423 71.0419 209.563V258.67C71.0419 258.95 70.7974 259.194 70.518 259.194L12.7485 259.264ZM13.2724 217.002V258.216L69.9941 258.181V210.157L13.2724 217.002Z" fill="#171F39"/>
<path d="M114.386 224.302H72.8574L74.7086 215.535C75.0578 213.859 76.6296 212.671 78.4458 212.671H109.74C111.138 212.671 112.36 213.614 112.604 214.942L114.386 224.302Z" fill="#8A9CC0"/>
<path d="M112.605 214.942C112.36 213.649 111.138 212.671 109.741 212.671H78.446C77.6078 212.671 76.8045 212.951 76.1758 213.405L89.7624 224.302H114.421L112.605 214.942Z" fill="white"/>
<path d="M87.4582 223.01C87.3534 223.01 87.2137 222.975 87.1438 222.905L77.6437 215.291C77.4341 215.116 77.3642 214.767 77.5738 214.557C77.7484 214.348 78.0977 214.278 78.3073 214.487L87.8075 222.102C88.017 222.276 88.0869 222.625 87.8773 222.835C87.7725 222.94 87.6328 223.01 87.4582 223.01Z" fill="#171F39"/>
<path d="M114.386 224.826H72.8573C72.6827 224.826 72.543 224.756 72.4382 224.616C72.3334 224.477 72.2985 224.337 72.3334 224.162L74.1845 215.396C74.5687 213.51 76.3151 212.182 78.4107 212.112H109.74C111.417 212.112 112.849 213.23 113.128 214.802L114.91 224.162C114.945 224.302 114.91 224.477 114.805 224.581C114.7 224.756 114.56 224.826 114.386 224.826ZM73.486 223.778H113.757L112.115 215.046C111.906 213.999 110.928 213.23 109.74 213.23H78.4457C76.8739 213.265 75.5467 214.278 75.2324 215.675L73.486 223.778Z" fill="#171F39"/>
<path d="M91.6141 233.628H116.168C117.321 233.628 118.333 234.466 118.508 235.618L120.604 247.598C120.813 248.751 119.905 249.799 118.753 249.799H91.1252C90.0774 249.799 89.2391 248.961 89.2391 247.913V236.038C89.2042 234.71 90.2869 233.628 91.6141 233.628Z" fill="#8A9CC0"/>
<path d="M118.752 250.323H91.1248C89.7976 250.323 88.7148 249.24 88.7148 247.913V236.038C88.7148 234.431 90.0071 233.104 91.6138 233.104H116.168C117.6 233.104 118.787 234.117 119.032 235.514L121.127 247.494C121.267 248.192 121.057 248.926 120.603 249.45C120.114 250.008 119.451 250.323 118.752 250.323ZM91.6138 234.151C90.6009 234.151 89.7627 234.99 89.7627 236.038V247.913C89.7627 248.681 90.3564 249.275 91.1248 249.275H118.752C119.136 249.275 119.521 249.1 119.765 248.786C120.01 248.472 120.149 248.052 120.079 247.668L117.984 235.688C117.844 234.78 117.041 234.151 116.133 234.151H91.6138Z" fill="#171F39"/>
<path d="M107.784 245.049C106.352 243.582 104.396 242.744 102.336 242.744H89.168V247.878C89.168 248.926 90.0412 249.729 91.054 249.729H118.751C119.904 249.729 120.812 248.681 120.602 247.529L120.567 247.319H113.233C111.172 247.354 109.216 246.516 107.784 245.049Z" fill="white"/>
<path d="M118.752 250.323H91.1248C89.7976 250.323 88.7148 249.24 88.7148 247.913V236.038C88.7148 234.431 90.0071 233.104 91.6138 233.104H116.168C117.6 233.104 118.787 234.117 119.032 235.514L121.127 247.494C121.267 248.192 121.057 248.926 120.603 249.45C120.114 250.008 119.451 250.323 118.752 250.323ZM91.6138 234.151C90.6009 234.151 89.7627 234.99 89.7627 236.038V247.913C89.7627 248.681 90.3564 249.275 91.1248 249.275H118.752C119.136 249.275 119.521 249.1 119.765 248.786C120.01 248.472 120.149 248.052 120.079 247.668L117.984 235.688C117.844 234.78 117.041 234.151 116.133 234.151H91.6138Z" fill="#171F39"/>
<path d="M64.126 261.15H60.4587C58.9568 261.15 57.7344 264.748 57.7344 269.148C57.7344 273.549 58.9568 277.147 60.4587 277.147H64.126C65.6279 277.147 66.8504 273.549 66.8504 269.148C66.8504 264.748 65.6279 261.15 64.126 261.15Z" fill="#293560"/>
<path d="M60.4587 277.007C61.9633 277.007 63.183 273.442 63.183 269.044C63.183 264.646 61.9633 261.08 60.4587 261.08C58.9541 261.08 57.7344 264.646 57.7344 269.044C57.7344 273.442 58.9541 277.007 60.4587 277.007Z" fill="#8A9CC0"/>
<path d="M24.0656 260.137H20.9221C19.6298 260.137 18.582 263.106 18.582 266.843C18.582 270.545 19.6298 273.549 20.9221 273.549H24.0656C25.3579 273.549 26.4057 270.58 26.4057 266.843C26.4057 263.106 25.3579 260.137 24.0656 260.137Z" fill="#293560"/>
<path d="M20.9222 273.445C22.2146 273.445 23.2623 270.426 23.2623 266.704C23.2623 262.981 22.2146 259.963 20.9222 259.963C19.6297 259.963 18.582 262.981 18.582 266.704C18.582 270.426 19.6297 273.445 20.9222 273.445Z" fill="#8A9CC0"/>
<path d="M30.0382 260.521H26.8948C25.6025 260.521 24.5547 263.49 24.5547 267.227C24.5547 270.965 25.6025 273.933 26.8948 273.933H30.0382C31.3305 273.933 32.3784 270.965 32.3784 267.227C32.3784 263.49 31.2956 260.521 30.0382 260.521Z" fill="#293560"/>
<path d="M26.8948 273.864C28.1872 273.864 29.2349 270.846 29.2349 267.123C29.2349 263.4 28.1872 260.382 26.8948 260.382C25.6024 260.382 24.5547 263.4 24.5547 267.123C24.5547 270.846 25.6024 273.864 26.8948 273.864Z" fill="#8A9CC0"/>
<path d="M36.2539 260.521C36.219 260.521 36.2539 260.521 36.2539 260.521H33.0057C31.6784 260.521 30.5957 263.7 30.5957 267.612C30.5957 271.524 31.6784 274.702 33.0057 274.702H36.2539C37.5811 274.702 38.6639 271.524 38.6639 267.612C38.6639 263.735 37.5811 260.521 36.2539 260.521Z" fill="#293560"/>
<path d="M32.9705 274.597C34.3015 274.597 35.3805 271.423 35.3805 267.507C35.3805 263.591 34.3015 260.417 32.9705 260.417C31.6395 260.417 30.5605 263.591 30.5605 267.507C30.5605 271.423 31.6395 274.597 32.9705 274.597Z" fill="#8A9CC0"/>
<path d="M96.2586 268.939H91.8229C91.0545 268.939 90.4258 268.31 90.4258 267.542V265.062H93.9185C95.106 265.062 96.1538 265.83 96.573 266.948L96.9222 267.961C97.1318 268.45 96.7476 268.939 96.2586 268.939Z" fill="#8A9CC0"/>
<path d="M96.2591 269.463H91.8233C90.7755 269.463 89.9023 268.59 89.9023 267.542V265.062C89.9023 264.783 90.1468 264.538 90.4263 264.538H93.919C95.316 264.538 96.5734 265.446 97.0624 266.773L97.4117 267.786C97.5514 268.171 97.4815 268.59 97.237 268.939C97.0624 269.288 96.6782 269.463 96.2591 269.463ZM90.9851 265.586V267.542C90.9851 268.031 91.3693 268.415 91.8583 268.415H96.294C96.3988 268.415 96.4337 268.345 96.4686 268.31C96.5036 268.275 96.5385 268.205 96.5036 268.101L96.1543 267.088C95.84 266.18 94.9668 265.551 94.0238 265.551H90.9851V265.586Z" fill="#171F39"/>
<path d="M114.699 268.694H119.135C119.904 268.694 120.532 268.066 120.532 267.297V264.818H117.04C115.852 264.818 114.804 265.586 114.385 266.704L114.036 267.716C113.861 268.171 114.21 268.694 114.699 268.694Z" fill="#8A9CC0"/>
<path d="M119.136 269.218H114.7C114.281 269.218 113.897 269.009 113.687 268.694C113.443 268.345 113.373 267.926 113.513 267.542L113.862 266.529C114.316 265.202 115.573 264.294 117.005 264.294H120.498C120.777 264.294 121.022 264.538 121.022 264.817V267.297C121.057 268.345 120.184 269.218 119.136 269.218ZM117.005 265.306C116.027 265.306 115.189 265.935 114.875 266.843L114.525 267.856C114.491 267.961 114.525 268.031 114.56 268.066C114.595 268.101 114.63 268.171 114.735 268.171H119.171C119.66 268.171 120.044 267.786 120.044 267.297V265.341H117.005V265.306Z" fill="#171F39"/>
<path d="M111.557 271.558H99.8915C99.2978 271.558 98.7389 271.244 98.4246 270.72L97.9007 269.812C97.726 269.498 97.9356 269.114 98.2849 269.114H113.094C113.443 269.114 113.653 269.498 113.478 269.812L112.954 270.72C112.71 271.244 112.151 271.558 111.557 271.558Z" fill="#293560"/>
<path d="M80.8559 245.642H79.5636C78.5158 245.642 77.6426 244.804 77.6426 243.721V237.784C77.6426 236.981 78.3062 236.317 79.1095 236.317H80.8209C81.2051 236.317 81.4846 236.631 81.4846 236.981V244.944C81.5195 245.363 81.2401 245.642 80.8559 245.642Z" fill="white"/>
<path d="M80.8564 246.166H79.564C78.2368 246.166 77.1191 245.084 77.1191 243.721V237.784C77.1191 236.701 78.0272 235.793 79.11 235.793H80.8214C81.485 235.793 82.009 236.317 82.009 236.981V244.944C82.0439 245.642 81.52 246.166 80.8564 246.166ZM79.1449 236.876C78.621 236.876 78.2019 237.295 78.2019 237.819V243.756C78.2019 244.525 78.8306 245.153 79.599 245.153H80.8913C80.9611 245.153 81.031 245.084 81.031 245.014V237.05C81.031 236.981 80.9611 236.911 80.8913 236.911H79.1449V236.876Z" fill="#171F39"/>
<path d="M125.422 246.062H124.409C124.165 246.062 123.99 245.887 123.99 245.643V236.352C123.99 236.177 124.13 236.038 124.305 236.038H125.946C126.54 236.038 126.994 236.492 126.994 237.085V244.455C127.029 245.328 126.33 246.062 125.422 246.062Z" fill="white"/>
<path d="M125.423 246.586H124.41C123.886 246.586 123.467 246.166 123.467 245.643V236.352C123.467 235.898 123.851 235.514 124.305 235.514H125.947C126.82 235.514 127.518 236.212 127.518 237.085V244.455C127.553 245.608 126.61 246.586 125.423 246.586ZM124.515 245.538H125.423C126.016 245.538 126.505 245.049 126.505 244.455V237.085C126.505 236.806 126.261 236.561 125.982 236.561H124.515V245.538Z" fill="#171F39"/>
<path d="M120.709 254.549H89.7987C89.6241 254.549 89.4844 254.689 89.4844 254.863V256.889C89.4844 257.588 90.0432 258.146 90.7068 258.146H91.6499C92.1388 258.146 92.558 258.426 92.7675 258.88L93.7455 260.976C94.5837 262.792 96.3999 263.944 98.3908 263.944H113.06C115.051 263.944 116.867 262.792 117.705 260.976L118.683 258.88C118.893 258.426 119.312 258.146 119.801 258.146C120.5 258.146 121.024 257.588 121.024 256.889V254.863C121.059 254.689 120.884 254.549 120.709 254.549Z" fill="#8A9CC0"/>
<path d="M12.7485 259.264C12.6088 259.264 12.4691 259.194 12.3643 259.124C12.2595 259.02 12.2246 258.88 12.2246 258.74V216.548C12.2246 216.269 12.4342 216.059 12.6787 216.024L70.4481 209.039C70.5878 209.004 70.7625 209.074 70.8673 209.179C70.972 209.283 71.0419 209.423 71.0419 209.563V258.566C71.0419 258.845 70.7974 259.089 70.518 259.089L12.7485 259.264ZM13.2724 217.002V258.216L69.9941 258.077V210.157L13.2724 217.002Z" fill="#171F39"/>
<path d="M17.3247 255.562C17.0453 255.562 16.8008 255.317 16.8008 255.038V220.25C16.8008 219.971 17.0453 219.727 17.3247 219.727C17.6041 219.727 17.8486 219.971 17.8486 220.25V255.038C17.8486 255.317 17.6041 255.562 17.3247 255.562Z" fill="white"/>
<path d="M23.2622 255.562C22.9828 255.562 22.7383 255.317 22.7383 255.038V219.587C22.7383 219.307 22.9828 219.063 23.2622 219.063C23.5416 219.063 23.7861 219.307 23.7861 219.587V255.038C23.7861 255.317 23.5416 255.562 23.2622 255.562Z" fill="white"/>
<path d="M29.1997 255.562C28.9203 255.562 28.6758 255.317 28.6758 255.038V218.958C28.6758 218.679 28.9203 218.434 29.1997 218.434C29.4791 218.434 29.7236 218.679 29.7236 218.958V255.073C29.7236 255.317 29.4791 255.562 29.1997 255.562Z" fill="white"/>
<path d="M35.1372 255.562C34.8578 255.562 34.6133 255.317 34.6133 255.038V218.155C34.6133 217.875 34.8578 217.631 35.1372 217.631C35.4166 217.631 35.6611 217.875 35.6611 218.155V255.038C35.6611 255.317 35.4515 255.562 35.1372 255.562Z" fill="white"/>
<path d="M41.1098 255.562C40.8304 255.562 40.5859 255.317 40.5859 255.038V217.561C40.5859 217.282 40.8304 217.037 41.1098 217.037C41.3893 217.037 41.6338 217.282 41.6338 217.561V255.038C41.6338 255.317 41.3893 255.562 41.1098 255.562Z" fill="white"/>
<path d="M47.0473 255.562C46.7679 255.562 46.5234 255.317 46.5234 255.038V216.618C46.5234 216.339 46.7679 216.094 47.0473 216.094C47.3268 216.094 47.5713 216.339 47.5713 216.618V255.038C47.5713 255.317 47.3268 255.562 47.0473 255.562Z" fill="white"/>
<path d="M52.9848 255.562C52.7054 255.562 52.4609 255.317 52.4609 255.038V216.059C52.4609 215.78 52.7054 215.535 52.9848 215.535C53.2643 215.535 53.5088 215.78 53.5088 216.059V255.038C53.5088 255.317 53.2992 255.562 52.9848 255.562Z" fill="white"/>
<path d="M58.9575 255.562C58.6781 255.562 58.4336 255.317 58.4336 255.038V215.291C58.4336 215.011 58.6781 214.767 58.9575 214.767C59.2369 214.767 59.4814 215.011 59.4814 215.291V255.038C59.4814 255.317 59.2369 255.562 58.9575 255.562Z" fill="white"/>
<path d="M64.895 255.562C64.6156 255.562 64.3711 255.317 64.3711 255.038V214.627C64.3711 214.348 64.6156 214.103 64.895 214.103C65.1744 214.103 65.4189 214.348 65.4189 214.627V255.038C65.4189 255.317 65.1744 255.562 64.895 255.562Z" fill="white"/>
<path d="M257.447 269.568L258.879 279.697H262.023L262.197 269.742L257.447 269.568Z" fill="white"/>
<path d="M262.023 280.22H258.914C258.67 280.22 258.425 280.046 258.39 279.766L256.958 269.672C256.923 269.533 256.993 269.358 257.098 269.253C257.203 269.148 257.342 269.079 257.517 269.079L262.232 269.253C262.512 269.253 262.756 269.498 262.721 269.777L262.547 279.731C262.512 279.976 262.302 280.22 262.023 280.22ZM259.333 279.173H261.464L261.604 270.266L258.006 270.126L259.333 279.173Z" fill="#171F39"/>
<path d="M258.776 289.371C260.278 289.546 262.723 289.651 265.552 289.162C266.495 288.987 267.089 288.079 266.809 287.171C266.111 284.621 264.574 279.836 262.618 277.636L262.199 278.858L261.535 277.741C261.431 277.601 261.291 277.496 261.116 277.461L259.719 277.322C259.44 277.287 259.16 277.496 259.125 277.776L258.951 278.858L258.427 277.496L257.414 287.66C257.274 288.498 257.903 289.267 258.776 289.371Z" fill="#8A9CC0"/>
<path d="M261.325 290C260.312 290 259.439 289.93 258.741 289.86C257.588 289.721 256.75 288.708 256.855 287.555L257.867 277.391C257.902 277.147 258.077 276.972 258.321 276.937C258.531 276.902 258.706 277.007 258.845 277.182C259.055 276.902 259.404 276.763 259.788 276.798L261.186 276.937C261.535 276.972 261.849 277.182 262.024 277.461L262.129 277.636L262.198 277.461C262.268 277.287 262.408 277.147 262.583 277.112C262.757 277.077 262.967 277.147 263.072 277.287C265.062 279.522 266.634 284.342 267.368 287.031C267.542 287.59 267.437 288.219 267.123 288.743C266.809 289.267 266.285 289.616 265.691 289.686C264.05 289.93 262.583 290 261.325 290ZM258.706 279.312L257.867 287.66C257.798 288.254 258.217 288.778 258.81 288.813C260.312 288.987 262.687 289.057 265.447 288.603C265.761 288.533 266.005 288.393 266.18 288.114C266.355 287.87 266.39 287.555 266.32 287.241C265.656 284.936 264.399 280.954 262.827 278.649L262.722 278.963C262.652 279.173 262.478 279.277 262.268 279.312C262.059 279.347 261.884 279.243 261.779 279.068L261.116 277.95L261.081 277.915L259.684 277.776C259.649 277.776 259.649 277.776 259.649 277.811L259.474 278.858C259.439 279.103 259.23 279.277 259.02 279.277C258.845 279.347 258.776 279.347 258.706 279.312Z" fill="#171F39"/>
<path d="M262.303 288.289C260.138 288.289 258.461 287.869 258.357 287.869C258.077 287.8 257.903 287.52 257.972 287.241C258.042 286.961 258.322 286.787 258.601 286.857C258.636 286.857 262.268 287.73 265.621 286.857C265.901 286.787 266.18 286.961 266.25 287.241C266.32 287.52 266.145 287.8 265.866 287.869C264.678 288.184 263.421 288.289 262.303 288.289Z" fill="#171F39"/>
<path d="M263.561 284.342H260.208C259.928 284.342 259.684 284.097 259.684 283.818C259.684 283.539 259.928 283.294 260.208 283.294H263.561C263.84 283.294 264.084 283.539 264.084 283.818C264.084 284.097 263.875 284.342 263.561 284.342Z" fill="#171F39"/>
<path d="M231.008 270.476L229.716 282.281L224.756 283.294L225.035 269.498L231.008 270.476Z" fill="white"/>
<path d="M224.755 283.818C224.651 283.818 224.511 283.783 224.406 283.713C224.266 283.608 224.197 283.469 224.232 283.294L224.546 269.463C224.546 269.323 224.616 269.183 224.721 269.079C224.825 268.974 225 268.939 225.14 268.974L231.077 269.987C231.357 270.022 231.531 270.301 231.496 270.546L230.204 282.316C230.169 282.526 230.029 282.735 229.785 282.77L224.825 283.818C224.825 283.818 224.79 283.818 224.755 283.818ZM225.559 270.092L225.279 282.63L229.226 281.792L230.414 270.86L225.559 270.092Z" fill="#171F39"/>
<path d="M231.81 288.428C231.81 288.428 232.439 282.77 230.658 280.186L226.676 281.583V280.744C226.676 280.465 226.466 280.255 226.222 280.22L224.022 280.081C223.183 280.046 222.38 280.22 221.612 280.57C218.957 281.862 212.88 285.215 213.054 288.463C213.089 288.498 217.874 289.686 231.81 288.428Z" fill="#8A9CC0"/>
<path d="M220.565 289.511C215.221 289.511 213.09 289.022 212.95 288.987C212.741 288.917 212.566 288.743 212.566 288.498C212.357 285.075 218.015 281.792 221.403 280.116C222.241 279.697 223.149 279.522 224.057 279.557L226.258 279.697C226.782 279.731 227.201 280.186 227.201 280.744V280.849L230.484 279.697C230.693 279.627 230.973 279.697 231.078 279.906C232.929 282.63 232.335 288.289 232.3 288.533C232.265 288.778 232.09 288.987 231.811 288.987C227.061 289.371 223.359 289.511 220.565 289.511ZM213.614 288.044C215.011 288.289 220.18 288.917 231.322 287.939C231.427 286.682 231.601 282.91 230.449 280.814L226.886 282.072C226.712 282.141 226.537 282.107 226.397 282.002C226.258 281.897 226.188 281.757 226.188 281.583V280.744L224.022 280.605C223.289 280.57 222.555 280.709 221.892 281.059C216.897 283.504 213.893 286.088 213.614 288.044Z" fill="#171F39"/>
<path d="M225.036 287.765C219.098 287.765 214.558 286.857 214.488 286.857C214.209 286.787 214.034 286.507 214.069 286.228C214.139 285.948 214.418 285.774 214.698 285.809C214.767 285.809 222.486 287.346 230.869 286.368C231.148 286.333 231.428 286.542 231.463 286.822C231.498 287.101 231.288 287.381 231.009 287.415C228.948 287.695 226.922 287.765 225.036 287.765Z" fill="#171F39"/>
<path d="M220.321 284.796C220.146 284.796 220.006 284.726 219.902 284.586C219.727 284.342 219.797 284.027 220.007 283.853L223.814 281.094C224.058 280.919 224.372 280.989 224.547 281.198C224.722 281.443 224.652 281.757 224.442 281.932L220.635 284.691C220.53 284.761 220.426 284.796 220.321 284.796Z" fill="#171F39"/>
<path d="M229.471 194.02C229.471 194.02 222.346 239.216 223.883 271.768L231.777 271.978C231.777 271.978 240.264 226.083 244.49 217.875C244.49 217.875 255.981 259.718 256.435 271.628C256.435 271.628 261.535 272.152 263.595 271.419C264.678 259.928 265.027 250.148 265.062 242.674C265.202 221.298 263.176 211.589 262.058 206.978C261.046 202.752 259.928 199.329 259.125 196.989L256.435 189.305L229.471 194.02Z" fill="#293560"/>
<path d="M231.776 272.467C231.741 272.467 231.776 272.467 231.776 272.467L223.848 272.257C223.568 272.257 223.359 272.047 223.324 271.768C221.822 239.565 228.842 194.37 228.912 193.915C228.947 193.706 229.122 193.531 229.331 193.496L256.295 188.781C256.54 188.746 256.784 188.886 256.889 189.13L259.578 196.814C260.731 200.098 261.709 203.486 262.547 206.839C263.909 212.462 265.725 222.311 265.551 242.639C265.481 252.139 264.992 261.849 264.084 271.419C264.049 271.628 263.944 271.803 263.735 271.873C261.604 272.641 256.575 272.152 256.365 272.117C256.12 272.082 255.911 271.873 255.911 271.628C255.527 261.15 246.376 226.817 244.385 219.412C240.054 230.17 232.37 271.628 232.265 272.047C232.23 272.292 232.021 272.467 231.776 272.467ZM224.372 271.244L231.357 271.419C232.3 266.424 239.984 225.455 244.036 217.631C244.14 217.456 244.35 217.317 244.56 217.352C244.769 217.387 244.944 217.526 245.014 217.736C245.468 219.412 256.26 258.74 256.959 271.139C258.146 271.244 261.429 271.454 263.106 271C263.979 261.569 264.468 252.034 264.538 242.674C264.678 222.451 262.896 212.706 261.534 207.118C260.731 203.765 259.753 200.412 258.6 197.164L256.051 189.899L229.89 194.474C229.262 198.84 223.01 240.718 224.372 271.244Z" fill="#171F39"/>
<path d="M244.071 217.456C243.826 217.456 243.617 217.317 243.547 217.072L242.394 212.671L239.705 212.113C239.425 212.043 239.251 211.763 239.286 211.484C239.356 211.204 239.635 211.03 239.914 211.065L242.953 211.693C243.163 211.728 243.302 211.868 243.337 212.078L244.56 216.793C244.63 217.072 244.455 217.352 244.175 217.421C244.141 217.456 244.106 217.456 244.071 217.456Z" fill="#171F39"/>
<path d="M230.171 153.924C234.781 153.4 244.596 152.457 251.476 153.051C253.607 153.225 255.598 154.064 257.239 155.426C262.129 159.547 272.712 169.921 272.852 182.145L261.989 180.573C261.989 180.573 265.831 194.3 265.552 196.5C265.307 198.7 258.567 202.473 250.184 199.399C241.767 196.325 229.682 196.71 225.77 199.399L225.386 182.459H208.865C208.865 182.459 214.314 164.681 224.932 156.124C226.399 154.867 228.25 154.133 230.171 153.924Z" fill="#171F39"/>
<path d="M208.865 182.459C208.865 182.459 207.573 188.362 213.44 190.143C219.308 191.925 224.897 181.237 224.897 181.237L220.81 178.862L208.865 182.459Z" fill="white"/>
<path d="M214.802 190.842C214.313 190.842 213.824 190.772 213.3 190.632C207.048 188.746 208.341 182.39 208.375 182.32C208.41 182.145 208.55 181.97 208.725 181.936L220.67 178.338C220.81 178.303 220.949 178.303 221.089 178.373L225.175 180.748C225.42 180.888 225.49 181.202 225.385 181.447C225.14 181.866 220.39 190.842 214.802 190.842ZM209.319 182.844C209.144 183.996 208.934 188.222 213.58 189.619C218.33 191.052 223.08 183.333 224.163 181.412L220.705 179.421L209.319 182.844Z" fill="#171F39"/>
<path d="M246.97 195.906H218.085C217.352 195.906 216.723 195.417 216.548 194.684L210.716 171.178C210.471 170.165 211.24 169.187 212.252 169.187H241.137C241.871 169.187 242.499 169.676 242.674 170.41L248.507 193.916C248.751 194.928 247.983 195.906 246.97 195.906Z" fill="white"/>
<path d="M246.969 196.43H218.084C217.106 196.43 216.268 195.767 216.024 194.824L210.191 171.318C210.016 170.689 210.191 170.025 210.575 169.501C210.994 168.978 211.588 168.698 212.252 168.698H241.136C242.114 168.698 242.953 169.362 243.197 170.305L249.03 193.811C249.205 194.439 249.03 195.103 248.646 195.627C248.227 196.151 247.598 196.43 246.969 196.43ZM212.252 169.746C211.937 169.746 211.623 169.886 211.413 170.165C211.204 170.41 211.134 170.759 211.204 171.073L217.037 194.579C217.141 195.068 217.595 195.382 218.084 195.382H246.969C247.284 195.382 247.598 195.243 247.807 194.963C248.017 194.719 248.087 194.37 248.017 194.055L242.184 170.549C242.079 170.06 241.625 169.746 241.136 169.746H212.252Z" fill="#171F39"/>
<path d="M212.846 180.923L213.684 183.263L220.635 179.945C220.635 179.945 224.442 183.263 215.186 187.489C211.344 189.27 212.846 180.923 212.846 180.923Z" fill="white"/>
<path d="M214.242 188.257C213.753 188.257 213.404 188.083 213.16 187.908C211.378 186.511 212.217 181.412 212.321 180.818C212.356 180.573 212.566 180.399 212.81 180.399C213.055 180.364 213.264 180.503 213.334 180.748L213.998 182.564L220.424 179.491C220.599 179.386 220.844 179.421 220.983 179.56C221.018 179.595 222.136 180.573 221.926 182.215C221.647 184.206 219.447 186.162 215.43 187.978C214.976 188.187 214.557 188.257 214.242 188.257ZM213.125 183.193C213.02 184.869 213.16 186.581 213.823 187.105C213.928 187.175 214.207 187.419 215.011 187.035C219.586 184.939 220.739 183.193 220.913 182.075C221.018 181.412 220.739 180.888 220.564 180.608L213.963 183.752C213.823 183.822 213.684 183.822 213.544 183.752C213.404 183.682 213.299 183.577 213.264 183.437L213.125 183.193Z" fill="#171F39"/>
<path d="M253.677 168.943C253.677 168.943 266.67 176.242 269.325 178.513C272.014 180.818 274.913 182.529 271.141 187.524C267.369 192.518 251.267 172.505 251.267 172.505C251.267 172.505 248.194 173.029 247.111 168.803C247.111 168.803 241.907 168.978 241.697 167.336L249.067 166.009C250.01 165.834 250.988 166.148 251.651 166.847L253.677 168.943Z" fill="white"/>
<path d="M269.499 188.886C264.12 188.886 252.664 175.02 251.057 173.064C250.184 173.064 247.774 172.785 246.726 169.362C245.084 169.397 241.382 169.222 241.208 167.441C241.173 167.161 241.347 166.917 241.627 166.882L248.996 165.555C250.114 165.345 251.267 165.729 252.07 166.533L254.026 168.558C255.143 169.187 267.089 175.928 269.708 178.163C269.918 178.338 270.127 178.513 270.337 178.687C272.817 180.748 275.401 182.879 271.594 187.908C271.105 188.572 270.407 188.921 269.568 188.921C269.499 188.886 269.499 188.886 269.499 188.886ZM251.301 171.981C251.476 171.981 251.616 172.051 251.721 172.191C255.213 176.557 265.237 187.838 269.499 187.838H269.533C270.057 187.838 270.442 187.629 270.756 187.244C273.934 183.018 272.153 181.516 269.638 179.456C269.429 179.281 269.219 179.106 269.01 178.932C266.39 176.696 253.572 169.501 253.432 169.432C253.397 169.397 253.362 169.362 253.327 169.327L251.301 167.266C250.743 166.707 249.939 166.428 249.171 166.568L242.674 167.72C243.513 168.139 245.399 168.349 247.11 168.279C247.355 168.279 247.564 168.419 247.634 168.663C248.577 172.365 251.092 171.981 251.197 171.981C251.232 171.981 251.267 171.981 251.301 171.981Z" fill="#171F39"/>
<path d="M235.374 145.437C235.13 145.856 235.619 146.624 235.619 146.624C235.619 146.624 235.374 144.319 234.117 143.725C233.383 143.376 232.999 143.935 231.882 143.795C230.694 143.62 229.402 142.747 228.913 141.49C228.319 139.953 229.157 138.486 229.716 137.543C230.24 136.635 230.938 135.587 232.091 135.133C233.628 134.539 234.257 135.448 236.003 134.889C237.435 134.435 237.33 133.771 238.588 133.387C239.635 133.072 242.709 133.247 243.373 134.889C243.792 135.902 242.884 136.53 243.338 138.067C243.617 138.975 244.071 139.08 244.385 139.813C245.189 141.56 244.176 144.633 242.29 145.681C239.705 147.113 235.933 144.494 235.374 145.437Z" fill="#171F39"/>
<path d="M236.492 146.694L235.898 151.619C235.793 152.562 235.095 153.33 234.187 153.575L231.672 154.238L239.461 160.176L248.227 153.54L245.084 152.841C244.176 152.632 243.477 151.933 243.338 150.99L242.045 143.76L236.492 146.694Z" fill="white"/>
<path d="M239.425 160.665C239.32 160.665 239.215 160.63 239.111 160.56L231.322 154.622C231.147 154.518 231.077 154.308 231.112 154.099C231.147 153.889 231.287 153.749 231.496 153.679L234.011 153.016C234.71 152.841 235.234 152.247 235.338 151.514L235.932 146.589C235.967 146.415 236.037 146.275 236.212 146.205L241.73 143.236C241.87 143.166 242.044 143.166 242.219 143.236C242.359 143.306 242.464 143.446 242.498 143.62L243.791 150.85C243.931 151.549 244.454 152.108 245.153 152.282L248.296 152.981C248.506 153.016 248.646 153.19 248.681 153.365C248.716 153.575 248.646 153.784 248.471 153.889L239.704 160.525C239.669 160.63 239.565 160.665 239.425 160.665ZM232.824 154.448L239.425 159.477L246.969 153.749L244.943 153.295C243.826 153.051 242.987 152.178 242.778 151.06L241.59 144.529L236.945 147.008L236.386 151.654C236.247 152.806 235.408 153.749 234.291 154.029L232.824 154.448Z" fill="#171F39"/>
<path d="M241.381 144.703C241.381 144.703 243.337 143.97 242.603 142.363C241.87 140.756 240.682 141.944 240.682 141.944C240.682 141.944 239.565 137.997 237.259 139.569C234.954 141.141 232.754 141.699 232.754 141.699C232.754 141.699 233.557 145.681 235.024 148.301C235.897 149.907 237.015 150.99 238.342 150.466C241.94 149.034 241.381 144.703 241.381 144.703Z" fill="white"/>
<path d="M237.679 151.13C236.771 151.13 235.688 150.571 234.57 148.545C233.068 145.856 232.265 141.944 232.23 141.769C232.16 141.49 232.335 141.21 232.614 141.141C232.649 141.141 234.745 140.582 236.98 139.08C237.819 138.521 238.552 138.591 238.971 138.731C240.019 139.115 240.648 140.302 240.962 141.071C241.207 140.966 241.521 140.896 241.835 140.966C242.359 141.071 242.778 141.455 243.058 142.084C243.302 142.642 243.337 143.201 243.127 143.69C242.848 144.319 242.289 144.738 241.905 144.948C241.94 146.1 241.8 149.558 238.517 150.885C238.273 151.06 237.993 151.13 237.679 151.13ZM233.348 142.049C233.592 143.166 234.361 146.03 235.478 148.056C236.387 149.698 237.295 150.361 238.133 150.012C241.346 148.72 240.857 144.843 240.822 144.808C240.787 144.563 240.927 144.319 241.172 144.249C241.381 144.179 241.975 143.865 242.15 143.411C242.254 143.166 242.219 142.922 242.08 142.642C242.01 142.468 241.835 142.153 241.626 142.119C241.416 142.084 241.137 142.293 241.032 142.398C240.892 142.538 240.718 142.573 240.543 142.538C240.368 142.503 240.229 142.363 240.159 142.188C240.019 141.665 239.425 140.163 238.587 139.883C238.273 139.778 237.923 139.848 237.539 140.093C235.793 141.176 234.151 141.804 233.348 142.049Z" fill="#171F39"/>
</g>
<defs>
<clipPath id="clip0_313_6514">
<rect width="290" height="290" fill="white"/>
</clipPath>
</defs>
</svg>
