<svg width="519" height="434" viewBox="0 0 519 434" fill="none" xmlns="http://www.w3.org/2000/svg">
<g clip-path="url(#clip0_313_6157)">
<path d="M91.8549 280.419C110.442 323.964 151.406 364.618 202.837 350.705C232.613 342.755 263.291 326.132 295.232 329.926C314.722 332.275 333.129 339.503 351.896 344.562C412.17 360.643 466.307 321.976 485.436 267.591C494.278 242.657 494.459 214.47 483.631 190.259C458.908 135.15 397.733 145.449 350.814 125.213C326.632 114.733 307.864 95.2195 286.751 80.0422C238.027 44.9897 170.355 59.625 127.947 97.5684C83.1929 137.499 70.3803 201.461 84.0952 257.653C85.8998 265.061 88.6067 272.831 91.8549 280.419Z" fill="#8A9CC0"/>
<path d="M438.693 426.511C457.09 423.521 469.583 406.166 466.597 387.746C463.612 369.326 446.278 356.818 427.881 359.807C409.484 362.796 396.991 380.152 399.976 398.572C402.962 416.991 420.296 429.5 438.693 426.511Z" fill="#8A9CC0"/>
<path d="M34.7654 432.839L332.703 432.839V213.49L34.7654 213.49V432.839Z" fill="white"/>
<path d="M332.587 432.735C332.587 432.735 309.127 384.854 277.186 338.96C258.238 311.677 220.522 301.92 188.761 302.101L153.752 301.92C36.6339 301.92 90.5911 175.262 90.5911 175.262L44.0327 156.109C-74.168 365.34 87.7038 390.816 108.096 392.985L108.817 430.928L288.735 432.735H254.267H332.587Z" fill="#171F39"/>
<path d="M332.587 434H254.267C253.906 434 253.546 433.819 253.365 433.639L108.818 432.193C108.096 432.193 107.554 431.651 107.554 430.928L106.832 394.069C100.516 393.346 83.3728 390.636 64.4246 382.505C39.5213 371.664 21.4754 355.764 11.0087 334.986C-10.8268 292.345 -0.179706 231.997 42.95 155.568C43.3109 155.026 44.0327 154.845 44.5741 155.026L91.1325 174.359C91.4934 174.539 91.6739 174.72 91.8544 175.082C92.0348 175.443 92.0348 175.804 91.8544 175.985C91.6739 176.527 65.8683 238.14 89.6889 274.276C101.238 291.983 122.893 300.837 153.752 300.837C153.932 300.837 153.932 300.837 154.113 300.837L188.761 301.017C188.941 301.017 189.122 301.017 189.302 301.017C228.642 301.017 261.847 314.93 278.268 338.419C309.849 383.77 333.489 431.832 333.85 432.374C334.03 432.735 334.03 433.277 333.85 433.639C333.489 433.819 333.128 434 332.587 434ZM289.276 431.47H330.602C325.91 422.256 304.255 379.976 276.283 339.864C260.223 316.918 227.56 303.366 188.941 303.547L153.932 303.366C153.752 303.366 153.752 303.366 153.571 303.366C121.991 303.366 99.7946 293.971 87.7038 275.722C74.7108 256.208 75.974 229.828 79.2222 211.037C82.29 194.053 87.3429 180.141 88.967 176.166L44.7546 157.736C2.34672 232.9 -8.1199 292.164 13.3547 333.902C38.619 383.047 101.238 390.997 108.276 391.72C108.998 391.72 109.359 392.262 109.359 392.985L110.081 429.664L288.735 431.47C288.916 431.47 289.096 431.47 289.276 431.47Z" fill="#171F39"/>
<path d="M134.263 271.927C138.955 288.55 156.279 298.126 172.701 293.429C189.303 288.731 198.867 271.385 194.175 254.943C189.483 238.32 172.159 228.744 155.737 233.442C139.135 237.959 129.571 255.305 134.263 271.927Z" fill="#171F39"/>
<path d="M151.045 290.899C158.624 285.84 158.624 280.058 158.263 272.65L160.79 272.289C161.512 272.108 161.872 271.566 161.872 270.843C161.692 266.868 158.263 259.641 156.459 254.943C155.917 253.498 157.361 252.052 158.805 252.414C162.594 253.678 168.91 254.763 174.685 253.317C178.836 252.233 180.821 250.426 182.625 249.523C185.332 247.897 188.58 249.161 189.663 252.052C190.205 253.498 193.633 259.099 195.618 269.037C198.506 283.491 201.573 291.983 186.776 296.32L187.678 299.933C187.678 299.933 193.272 316.014 182.445 321.254C171.798 326.313 155.195 309.148 155.195 309.148L151.045 290.899Z" fill="white"/>
<path d="M178.295 323.241C167.648 323.241 155.016 310.413 154.474 309.69C154.294 309.51 154.294 309.329 154.113 309.148L149.782 291.08C149.602 290.357 149.963 289.634 150.685 289.454C151.406 289.273 152.128 289.634 152.128 290.357L156.459 308.064C158.444 310.052 173.062 324.145 182.084 319.628C191.649 315.111 186.596 300.114 186.596 299.933C186.596 299.933 186.596 299.933 186.596 299.753L185.694 296.139C185.513 295.416 185.874 294.874 186.596 294.694C199.228 291.08 197.784 284.756 195.258 272.289C195.078 271.205 194.717 270.121 194.536 268.856C192.551 259.099 189.122 248.8 188.942 248.619C188.761 247.897 189.122 247.174 189.664 246.993C190.386 246.813 191.107 247.174 191.288 247.716C191.288 247.897 194.897 258.196 196.882 268.314C197.063 269.398 197.423 270.663 197.604 271.747C200.13 283.672 201.935 292.345 188.22 296.681L188.761 299.03C189.122 300.295 194.175 316.375 182.987 321.796C181.724 323.061 180.099 323.241 178.295 323.241Z" fill="#171F39"/>
<path d="M187.317 274.999C186.775 274.999 186.414 274.638 186.053 274.277L181.001 262.171C180.82 261.448 181.001 260.725 181.722 260.545C182.444 260.364 183.166 260.545 183.347 261.267L188.399 273.373C188.58 274.096 188.399 274.819 187.678 274.999C187.678 274.999 187.497 274.999 187.317 274.999Z" fill="#171F39"/>
<path d="M171.257 267.591C171.618 268.675 172.52 269.217 173.603 268.856C174.686 268.495 175.227 267.591 174.866 266.507C174.505 265.423 173.603 264.881 172.52 265.242C171.618 265.604 170.896 266.688 171.257 267.591Z" fill="#171F39"/>
<path d="M186.234 263.435C186.595 264.519 187.498 265.061 188.58 264.7C189.663 264.338 190.204 263.435 189.844 262.351C189.483 261.267 188.58 260.725 187.498 261.086C186.415 261.267 185.873 262.351 186.234 263.435Z" fill="#171F39"/>
<path d="M108.997 390.094C108.276 390.094 107.734 389.552 107.734 388.829L105.93 345.284C105.93 344.562 106.471 344.02 107.193 344.02C107.915 344.02 108.456 344.562 108.456 345.284L110.261 388.829C110.261 389.371 109.719 390.094 108.997 390.094Z" fill="white"/>
<path d="M249.033 389.01C248.853 389.01 248.853 389.01 248.672 389.01C247.95 388.829 247.59 388.107 247.77 387.564C247.77 387.384 252.823 363.534 243.8 333.721C243.619 332.998 243.98 332.276 244.702 332.095C245.424 331.914 246.146 332.276 246.326 332.998C255.53 363.534 250.296 387.926 250.296 388.107C250.116 388.649 249.575 389.01 249.033 389.01Z" fill="white"/>
<path d="M189.905 255.88C196.995 252.94 200.362 244.801 197.425 237.702C194.488 230.603 186.36 227.232 179.27 230.173C172.179 233.113 168.812 241.252 171.749 248.351C174.686 255.45 182.815 258.821 189.905 255.88Z" fill="#171F39"/>
<path d="M183.707 255.666C175.226 255.666 168.549 248.8 168.549 240.489C168.549 231.997 175.406 225.312 183.707 225.312C192.189 225.312 198.866 232.177 198.866 240.489C198.866 248.8 192.008 255.666 183.707 255.666ZM183.707 227.66C176.669 227.66 171.075 233.442 171.075 240.308C171.075 247.355 176.85 252.956 183.707 252.956C190.745 252.956 196.339 247.174 196.339 240.308C196.339 233.442 190.745 227.66 183.707 227.66Z" fill="#171F39"/>
<path d="M167.829 258.918C167.829 264.519 163.317 269.036 157.723 269.036C152.129 269.036 147.617 264.519 147.617 258.918C147.617 253.317 152.129 248.8 157.723 248.8C163.317 248.8 167.829 253.317 167.829 258.918Z" fill="#171F39"/>
<path d="M149.241 277.709C150.504 282.046 155.015 284.575 159.527 283.491C163.858 282.227 166.384 277.709 165.302 273.192C164.038 268.856 159.527 266.326 155.015 267.411C150.504 268.675 147.978 273.373 149.241 277.709Z" fill="white"/>
<path d="M158.985 277.71C158.624 277.71 158.444 277.529 158.263 277.348L154.113 274.096C153.571 273.735 153.391 272.831 153.932 272.289C154.293 271.747 155.196 271.566 155.737 272.109L159.887 275.361C160.429 275.722 160.609 276.626 160.068 277.168C159.887 277.529 159.527 277.71 158.985 277.71Z" fill="#171F39"/>
<path d="M189.843 304.089C189.843 304.089 187.136 308.425 182.625 306.799C178.113 305.173 175.406 298.488 175.406 298.488L187.497 295.958L189.843 304.089Z" fill="#171F39"/>
<path d="M175.227 300.295C174.686 300.295 174.144 299.933 173.964 299.391C173.783 298.669 174.144 297.946 174.866 297.765L186.957 294.874C187.679 294.693 188.401 295.055 188.581 295.778C188.762 296.5 188.401 297.223 187.679 297.404L175.588 300.295C175.408 300.295 175.408 300.295 175.227 300.295Z" fill="#171F39"/>
<path d="M34.7653 432.765L332.703 432.765V389.581L34.7653 389.581V432.765Z" fill="white"/>
<path d="M332.586 390.997H34.648C33.9261 390.997 33.3848 390.455 33.3848 389.733C33.3848 389.01 33.9261 388.468 34.648 388.468H332.586C333.308 388.468 333.849 389.01 333.849 389.733C334.029 390.455 333.308 390.997 332.586 390.997Z" fill="#171F39"/>
<path d="M212.219 409.066C212.219 414.847 216.911 419.726 222.866 419.726C228.641 419.726 233.513 415.028 233.513 409.066C233.513 403.284 228.821 398.405 222.866 398.405C217.091 398.405 212.219 403.103 212.219 409.066Z" fill="#8A9CC0"/>
<path d="M133.9 409.066C133.9 414.847 138.592 419.726 144.547 419.726C150.322 419.726 155.195 415.028 155.195 409.066C155.195 403.284 150.503 398.405 144.547 398.405C138.592 398.405 133.9 403.103 133.9 409.066Z" fill="#171F39"/>
<path d="M173.061 409.066C173.061 414.847 177.752 419.726 183.708 419.726C189.482 419.726 194.355 415.028 194.355 409.066C194.355 403.284 189.663 398.405 183.708 398.405C177.752 398.405 173.061 403.103 173.061 409.066Z" fill="#293560"/>
<path d="M332.588 434H34.6499C33.9281 434 33.3867 433.457 33.3867 432.735V213.386C33.3867 212.663 33.9281 212.121 34.6499 212.121H332.588C333.31 212.121 333.851 212.663 333.851 213.386V432.735C334.031 433.457 333.31 434 332.588 434ZM35.9131 431.47H331.324V214.651H35.9131V431.47Z" fill="#171F39"/>
<path d="M219.814 240.91L517.752 240.91V21.5613L219.814 21.5613V240.91Z" fill="#293560"/>
<path d="M219.801 241.03H350.272H517.738L517.197 157.194C499.151 130.272 475.872 103.892 432.923 102.808C391.597 101.905 372.288 108.771 372.288 108.771C337.099 113.468 327.174 122.141 314 140.932C306.421 151.593 297.398 167.673 287.112 164.602C275.021 161.169 259.862 97.3877 259.862 97.3877L208.071 110.397C206.627 99.5559 210.056 146.895 219.62 197.667V241.03H219.801Z" fill="#171F39"/>
<path d="M406.576 126.297C430.216 121.238 439.6 110.939 443.028 103.531C439.78 103.17 436.532 102.808 432.923 102.808C391.598 101.905 375.356 108.048 375.356 108.048C365.251 109.494 354.243 112.023 347.746 114.191C347.746 114.011 367.055 134.609 406.576 126.297Z" fill="white"/>
<path d="M406.215 45.5322C405.673 44.8095 405.132 44.0867 404.59 43.5447C398.094 36.498 388.349 32.8844 378.243 34.5105C365.611 36.6787 356.227 46.4356 354.062 58.3607C354.062 58.3607 347.746 89.0767 354.784 94.8586C369.04 106.603 421.734 99.3756 427.689 81.8494C429.674 74.6221 411.989 52.3981 406.215 45.5322Z" fill="#171F39"/>
<path d="M517.737 242.295H219.799C219.077 242.295 218.536 241.753 218.536 241.031V198.028C214.024 173.817 210.956 151.231 209.332 136.596C208.43 129.369 207.708 122.322 207.347 116.721C206.625 108.59 206.806 108.59 207.347 108.048C207.708 107.687 208.249 107.687 208.61 107.867C209.152 108.048 209.332 108.409 209.513 109.132L260.041 96.4844C260.402 96.4844 260.763 96.4844 260.944 96.6651C261.304 96.8457 261.485 97.2071 261.485 97.3878C265.635 114.914 278.448 160.988 287.832 163.518C295.953 165.867 303.532 154.484 310.389 144.546C311.472 143.101 312.374 141.655 313.277 140.21C326.45 121.419 339.082 111.662 375.354 106.783C377.159 106.241 393.761 100.821 433.282 101.724C453.132 102.086 470.276 108.048 485.615 119.431C500.232 130.453 510.879 145.088 518.639 156.652C518.819 156.832 518.819 157.013 518.819 157.374L519.361 241.211C519.361 241.573 519.18 241.934 519 242.115C518.458 242.115 518.098 242.295 517.737 242.295ZM221.062 239.766H516.473L515.932 157.555C497.706 130.272 474.968 104.976 432.921 104.073C392.498 103.17 375.896 108.951 375.715 109.132H375.535C340.165 113.83 327.894 123.406 315.081 141.655C314.179 142.92 313.096 144.365 312.194 145.811C304.975 156.471 296.674 168.577 286.93 165.867C275.019 162.434 261.665 109.674 259.139 99.0139L209.332 111.662C210.054 121.599 213.844 159.001 221.062 197.667V197.847V239.766Z" fill="#171F39"/>
<path d="M409.281 108.952L405.131 96.3041C382.934 100.279 391.777 75.1642 391.777 75.1642C379.506 53.663 374.272 69.7438 356.407 54.5664L354.422 59.6255C354.783 81.3075 351.715 103.351 374.814 101.363L376.979 114.192L409.281 108.952Z" fill="white"/>
<path d="M407.657 105.338C407.116 105.338 406.575 104.977 406.394 104.435L403.507 95.4007C403.326 94.678 403.687 93.9552 404.409 93.7746C405.131 93.5939 405.853 93.9552 406.033 94.678L408.921 103.712C409.101 104.435 408.74 105.158 408.018 105.338C408.018 105.338 407.838 105.338 407.657 105.338Z" fill="#171F39"/>
<path d="M376.437 112.565C375.896 112.565 375.355 112.204 375.174 111.481L373.731 102.808C367.775 103.169 363.083 101.724 359.835 98.6523C353.158 92.3284 353.158 80.042 353.158 66.8522C353.158 64.5033 353.158 61.9737 353.158 59.6249V59.4442C353.158 59.2635 353.519 55.8305 355.324 52.2169C355.685 51.4941 356.406 51.3135 356.948 51.6748C357.67 52.0362 357.85 52.7589 357.489 53.301C356.046 56.3726 355.685 59.2635 355.504 59.6249C355.504 61.9737 355.504 64.5033 355.504 66.8522C355.504 79.3193 355.324 91.2444 361.279 96.6648C364.166 99.3751 368.497 100.459 374.452 99.9171C375.174 99.9171 375.716 100.278 375.896 101.001L377.52 110.758C377.701 111.481 377.159 112.023 376.437 112.204C376.618 112.565 376.437 112.565 376.437 112.565Z" fill="#171F39"/>
<path d="M374.814 102.628C374.272 102.628 373.731 102.266 373.551 101.544C373.37 100.821 373.912 100.279 374.633 100.098C380.769 99.0139 385.28 96.4844 385.461 96.4844C386.002 96.123 386.905 96.3037 387.265 97.0264C387.626 97.5685 387.446 98.4719 386.724 98.8333C386.544 99.0139 381.852 101.724 375.175 102.808C374.994 102.628 374.814 102.628 374.814 102.628Z" fill="#171F39"/>
<path d="M376.076 109.493C376.076 109.493 380.407 112.204 383.836 108.771C387.265 105.518 386.724 96.8457 386.724 96.8457L374.633 101.182L376.076 109.493Z" fill="#171F39"/>
<path d="M362.002 82.9333C361.28 82.9333 360.738 82.3912 360.738 81.6685L360.919 68.4786C360.919 67.7559 361.46 67.2139 362.182 67.2139C362.904 67.2139 363.445 67.7559 363.445 68.4786L363.265 81.6685C363.265 82.3912 362.543 82.9333 362.002 82.9333Z" fill="#171F39"/>
<path d="M350.271 205.076C350.091 205.076 349.91 205.076 349.73 204.895C341.97 201.101 336.556 193.873 335.113 185.381C333.308 174.721 338.18 164.241 347.203 158.64C347.745 158.279 348.647 158.459 349.008 159.002C349.369 159.544 349.188 160.447 348.647 160.808C340.346 165.867 336.195 175.444 337.639 185.02C338.902 192.609 343.775 199.294 350.812 202.727C351.534 203.088 351.715 203.811 351.354 204.353C351.173 204.895 350.632 205.076 350.271 205.076Z" fill="white"/>
<path d="M347.925 160.989C347.384 160.989 346.842 160.627 346.662 159.904L344.857 148.521C344.677 147.799 345.218 147.257 345.94 147.076C346.662 146.895 347.203 147.437 347.384 148.16L349.188 159.543C349.369 160.266 348.827 160.808 348.105 160.989C347.925 160.989 347.925 160.989 347.925 160.989Z" fill="white"/>
<path d="M350.272 242.296C349.55 242.296 349.009 241.754 349.009 241.031L348.828 203.811C348.828 203.088 349.369 202.546 350.091 202.546C350.813 202.546 351.355 203.088 351.355 203.811V241.031C351.535 241.754 350.994 242.296 350.272 242.296Z" fill="white"/>
<path d="M497.526 241.212C497.165 241.212 496.805 241.031 496.444 240.67L452.231 178.696C451.87 178.154 451.87 177.25 452.592 176.889C453.134 176.527 454.036 176.527 454.397 177.25L498.609 239.224C498.97 239.766 498.97 240.67 498.248 241.031C498.068 241.212 497.707 241.212 497.526 241.212Z" fill="white"/>
<path d="M355.865 71.1887C355.865 72.2728 356.768 73.1762 357.85 73.1762C358.933 73.1762 359.835 72.2728 359.835 71.1887C359.835 70.1046 358.933 69.2012 357.85 69.2012C356.768 69.2012 355.865 70.1046 355.865 71.1887Z" fill="#171F39"/>
<path d="M372.467 71.1889C373.564 71.1889 374.452 70.299 374.452 69.2014C374.452 68.1037 373.564 67.2139 372.467 67.2139C371.371 67.2139 370.482 68.1037 370.482 69.2014C370.482 70.299 371.371 71.1889 372.467 71.1889Z" fill="#171F39"/>
<path d="M365.069 87.6313C364.528 87.6313 363.986 87.2699 363.806 86.7279C363.625 86.0051 363.986 85.2824 364.708 85.1017C365.791 84.7403 366.874 82.7528 367.234 81.8494C367.415 81.1267 368.137 80.946 368.859 81.1267C369.58 81.3074 369.761 82.0301 369.58 82.7528C369.4 83.1142 367.956 86.7279 365.61 87.4506C365.43 87.6313 365.249 87.6313 365.069 87.6313Z" fill="#171F39"/>
<path d="M386.364 63.2389C382.755 65.9492 382.033 71.189 384.92 74.8026C387.627 78.4163 392.86 79.139 396.47 76.2481C400.079 73.5378 400.801 68.298 397.913 64.6844C395.026 61.0707 389.973 60.348 386.364 63.2389Z" fill="white"/>
<path d="M391.055 73.1767C390.875 73.1767 390.875 73.1767 390.694 73.1767C389.973 72.996 389.612 72.2733 389.792 71.5506L391.236 66.4914C391.416 65.7687 392.138 65.4074 392.86 65.588C393.582 65.7687 393.943 66.4915 393.762 67.2142L392.318 72.2733C392.138 72.8153 391.597 73.1767 391.055 73.1767Z" fill="#171F39"/>
<path d="M219.814 241.018L517.752 241.018V197.834L219.814 197.834V241.018Z" fill="white"/>
<path d="M517.738 199.113H219.8C219.078 199.113 218.537 198.571 218.537 197.848C218.537 197.125 219.078 196.583 219.8 196.583H517.738C518.46 196.583 519.001 197.125 519.001 197.848C519.001 198.571 518.46 199.113 517.738 199.113Z" fill="#171F39"/>
<path d="M517.738 242.295H219.8C219.078 242.295 218.537 241.753 218.537 241.031V21.6818C218.537 20.959 219.078 20.417 219.8 20.417H517.738C518.46 20.417 519.001 20.959 519.001 21.6818V241.031C519.001 241.753 518.46 242.295 517.738 242.295ZM221.064 239.766H516.475V22.9466H221.064V239.766Z" fill="#171F39"/>
<path d="M142.27 83.5192L270.576 83.5928L270.623 1.38213L142.317 1.30858L142.27 83.5192Z" fill="white"/>
<path d="M270.509 84.7402H142.203C141.842 84.7402 141.481 84.5595 141.3 84.3789C141.12 84.1982 140.939 83.8368 140.939 83.4754V1.26478C140.939 0.542048 141.481 0 142.203 0H270.509C270.87 0 271.231 0.180683 271.411 0.361366C271.592 0.542048 271.772 0.903414 271.772 1.26478V83.4754C271.772 84.1982 271.231 84.7402 270.509 84.7402ZM143.466 82.2107H269.246V2.52956H143.466V82.2107Z" fill="#171F39"/>
<path d="M206.446 55.6502C206.085 55.6502 205.905 55.4695 205.724 55.2888L141.481 2.16807C140.939 1.80671 140.939 0.903292 141.3 0.361243C141.661 -0.180805 142.564 -0.180805 143.105 0.18056L206.446 52.7592L269.787 0.361243C270.329 -0.000122294 271.05 -0.000122264 271.592 0.541926C271.953 1.08397 271.953 1.80671 271.411 2.34875L207.168 55.4695C206.987 55.6502 206.627 55.6502 206.446 55.6502Z" fill="#171F39"/>
<path d="M142.202 84.7401C141.841 84.7401 141.48 84.5594 141.3 84.3787C140.758 83.8366 140.939 83.1139 141.48 82.5719L189.121 40.6535C189.663 40.1114 190.384 40.2921 190.926 40.8341C191.467 41.3762 191.287 42.0989 190.745 42.641L143.104 84.3787C142.743 84.5594 142.563 84.7401 142.202 84.7401Z" fill="#171F39"/>
<path d="M270.509 84.7398C270.148 84.7398 269.968 84.5591 269.607 84.3784L222.327 42.6407C221.785 42.0987 221.785 41.3759 222.146 40.8339C222.687 40.2919 223.409 40.2919 223.951 40.6532L271.231 82.3909C271.772 82.933 271.772 83.6557 271.411 84.1978C271.231 84.7398 270.87 84.7398 270.509 84.7398Z" fill="#171F39"/>
<path d="M239.47 135.512C253.546 133.164 263.11 119.974 261.306 105.88L260.223 97.569C258.96 89.619 256.974 80.9462 236.583 83.4758C236.583 83.4758 232.071 76.2485 227.379 67.395C219.8 52.7597 201.754 52.579 210.236 69.7439L206.446 61.2518C201.213 47.1586 193.814 50.0495 189.844 52.037C183.889 55.1086 188.4 65.4075 188.4 65.4075C188.4 65.4075 183.167 49.5074 171.978 55.47C165.843 58.7223 172.339 67.0337 179.738 83.4758H168.369C168.369 83.4758 181.362 94.4974 184.25 97.027C187.137 99.5566 206.626 99.5566 206.626 99.5566L209.153 114.011C211.318 128.285 225.033 138.042 239.47 135.512Z" fill="white"/>
<path d="M234.959 137.319C229.185 137.319 223.771 135.512 218.898 132.26C212.763 127.924 208.793 121.6 207.53 114.192L205.184 100.821C200.311 100.821 185.874 100.46 183.168 97.9302C180.461 95.4006 167.468 84.5596 167.287 84.379C166.926 84.0176 166.746 83.4756 166.926 82.9335C167.107 82.3915 167.648 82.0301 168.189 82.0301H177.573C176.13 79.1392 174.866 76.4289 173.603 74.08C168.37 63.6004 165.302 57.2765 171.077 54.2049C174.325 52.5788 177.393 52.2174 180.28 53.4822C182.265 54.3856 184.07 55.8311 185.333 57.4572C185.514 54.747 186.416 52.2174 189.123 50.772C191.649 49.5072 195.078 48.2424 198.867 49.6879C202.116 50.9526 204.823 54.2049 206.988 59.4447C207.71 57.2765 209.154 56.3731 209.876 56.0118C214.748 53.4822 223.59 57.2765 228.463 66.6721C232.252 73.8994 235.862 80.0426 237.125 82.0301C258.419 79.5005 260.224 90.1608 261.306 97.2074L262.389 105.519C264.374 120.516 254.268 134.067 239.471 136.596C238.027 137.138 236.403 137.319 234.959 137.319ZM239.11 134.247L239.29 135.512L239.11 134.247C252.644 131.899 261.667 119.612 259.863 106.061L258.78 97.7495C257.697 90.5222 256.253 82.2108 236.583 84.7403C236.042 84.7403 235.681 84.5596 235.32 84.1983C235.32 84.1983 230.628 76.7903 226.117 67.9368C221.786 59.6254 214.207 56.5538 210.958 58.3606C208.793 59.4447 208.432 62.697 210.236 67.2141L211.139 69.3823C211.5 70.105 211.139 70.8278 210.597 71.0084C210.056 71.3698 209.154 71.0084 208.973 70.4664C208.612 69.7437 208.251 69.0209 208.071 68.2982L205.364 61.9743C203.379 56.7345 200.853 53.4822 198.146 52.3981C195.439 51.314 192.732 52.3981 190.566 53.4822C186.777 55.4697 188.401 61.4323 189.303 63.9618C189.664 64.6845 189.845 65.2266 189.845 65.2266C190.025 65.9493 189.664 66.4914 189.123 66.8527C188.401 67.0334 187.86 66.8527 187.499 66.13C187.499 66.13 187.318 65.588 186.957 64.8652C186.055 62.697 183.528 57.8186 179.739 56.1924C177.573 55.289 175.227 55.4697 172.701 56.9152C169.272 58.722 171.257 63.2391 176.31 73.3573C177.754 76.2482 179.378 79.5005 181.002 83.2949C181.183 83.6562 181.183 84.1983 181.002 84.5596C180.822 84.921 180.28 85.1017 179.919 85.1017H171.979C175.949 88.5347 183.168 94.4972 185.153 96.304C186.596 97.7495 196.882 98.4722 206.086 98.4722C206.266 98.4722 206.266 98.4722 206.627 98.4722C207.169 98.4722 207.71 98.8336 207.89 99.5563L210.417 114.011C211.5 120.696 215.109 126.478 220.703 130.453C225.936 133.886 232.613 135.512 239.11 134.247Z" fill="#171F39"/>
<path d="M397.371 217.181C397.371 222.963 402.063 227.841 408.018 227.841C413.793 227.841 418.665 223.143 418.665 217.181C418.665 211.399 413.973 206.521 408.018 206.521C402.063 206.521 397.371 211.218 397.371 217.181Z" fill="#8A9CC0"/>
<path d="M318.871 217.181C318.871 222.963 323.563 227.841 329.518 227.841C335.293 227.841 340.165 223.143 340.165 217.181C340.165 211.399 335.473 206.521 329.518 206.521C323.744 206.521 318.871 211.218 318.871 217.181Z" fill="#171F39"/>
<path d="M358.211 217.181C358.211 222.963 362.903 227.841 368.858 227.841C374.813 227.841 379.505 223.143 379.505 217.181C379.505 211.399 374.813 206.521 368.858 206.521C362.903 206.521 358.211 211.218 358.211 217.181Z" fill="#293560"/>
<path d="M224.131 100.821H206.265C205.543 100.821 205.002 100.279 205.002 99.5558C205.002 98.8331 205.543 98.291 206.265 98.291H224.131C224.852 98.291 225.394 98.8331 225.394 99.5558C225.394 100.279 224.852 100.821 224.131 100.821Z" fill="#171F39"/>
<path d="M217.092 87.0887C216.551 87.0887 216.19 86.7274 216.01 86.366L202.114 54.0238C201.753 53.301 202.114 52.5783 202.836 52.3976C203.558 52.0363 204.28 52.3976 204.46 53.1204L218.356 85.2819C218.716 86.0046 218.356 86.7274 217.634 86.908C217.453 86.908 217.273 87.0887 217.092 87.0887Z" fill="#171F39"/>
<path d="M199.408 92.5099C198.867 92.5099 198.506 92.1485 198.325 91.7872L187.317 66.1302C186.956 65.4075 187.317 64.6848 188.039 64.5041C188.761 64.1427 189.483 64.5041 189.663 65.2268L200.671 90.8838C201.032 91.6065 200.671 92.3292 199.949 92.5099C199.769 92.3292 199.589 92.5099 199.408 92.5099Z" fill="#171F39"/>
<path d="M186.054 283.31C184.43 283.31 182.806 282.588 181.543 281.504C180.28 280.239 179.738 278.793 179.738 276.986C179.738 276.264 180.28 275.722 181.002 275.722H191.107C191.829 275.722 192.37 276.264 192.37 276.986C192.37 278.613 191.649 280.239 190.566 281.504C189.483 282.588 187.859 283.31 186.054 283.31ZM182.445 278.251C182.626 278.793 182.987 279.335 183.347 279.697C184.069 280.419 184.972 280.781 186.054 280.781C187.137 280.781 188.039 280.419 188.761 279.697C189.122 279.335 189.483 278.793 189.664 278.251H182.445Z" fill="#171F39"/>
<path d="M386.545 287.105C386.184 287.105 385.823 286.924 385.642 286.744C385.101 286.201 385.101 285.479 385.642 284.937L403.327 267.23C403.869 266.688 404.591 266.688 405.132 267.23C405.673 267.772 405.673 268.495 405.132 269.037L387.447 286.744C387.266 286.924 386.906 287.105 386.545 287.105Z" fill="#171F39"/>
<path d="M404.23 287.105C403.869 287.105 403.508 286.924 403.327 286.744L385.642 269.037C385.101 268.495 385.101 267.772 385.642 267.23C386.184 266.688 386.906 266.688 387.447 267.23L405.132 284.937C405.673 285.479 405.673 286.201 405.132 286.744C404.771 286.924 404.591 287.105 404.23 287.105Z" fill="#171F39"/>
<path d="M182.806 91.4257C182.265 91.4257 181.904 91.245 181.724 90.7029L178.475 84.1984C178.114 83.4756 178.475 82.7529 179.017 82.5722C179.558 82.2109 180.46 82.5722 180.641 83.1143L183.889 89.6188C184.25 90.3416 183.889 91.0643 183.348 91.245C183.167 91.4257 182.987 91.4257 182.806 91.4257Z" fill="#171F39"/>
<path d="M254.809 389.733C254.809 389.733 268.884 363.172 281.156 370.399C281.156 370.399 288.735 362.992 297.216 369.135C297.216 369.135 306.059 363.172 313.458 369.857C313.458 369.857 318.872 364.618 325.188 368.593C331.684 372.568 335.654 385.396 337.639 391.72C339.624 398.225 338.542 407.259 332.406 407.439C326.27 407.62 324.105 403.284 324.105 403.284C324.105 403.284 323.744 409.788 317.067 411.053C310.39 412.318 307.503 405.813 307.503 405.813C307.503 405.813 310.029 412.679 301.547 413.944C293.066 415.209 289.818 405.091 289.818 405.091C289.818 405.091 290.179 412.679 281.697 412.137C273.215 411.595 267.982 389.371 267.982 389.371L254.809 389.733Z" fill="white"/>
<path d="M300.103 415.39C295.411 415.39 292.163 412.137 290.178 409.066C289.817 409.788 289.276 410.511 288.734 411.234C287.11 412.86 284.764 413.583 281.696 413.402C273.395 412.86 268.342 395.515 267.079 390.817L254.808 390.997C254.267 390.997 253.906 390.817 253.725 390.455C253.545 390.094 253.545 389.552 253.725 389.191C254.086 388.468 263.289 371.303 273.756 368.231C276.283 367.509 278.809 367.689 281.155 368.774C283.32 367.147 289.997 362.811 297.577 367.509C299.923 366.244 307.321 362.992 313.638 368.051C316.164 366.244 321.036 364.256 326.089 367.509C332.405 371.484 336.375 382.325 339.082 391.359C340.345 395.695 340.526 402.2 337.819 405.994C336.556 407.801 334.751 408.704 332.586 408.704C328.796 408.885 326.27 407.44 324.826 405.994C323.924 408.524 321.578 411.415 317.247 412.318C313.638 413.041 310.75 411.595 308.765 409.788C308.585 410.331 308.404 410.873 308.043 411.415C306.78 413.402 304.615 414.667 301.547 415.209C301.186 415.209 300.645 415.39 300.103 415.39ZM289.817 403.826C290.358 403.826 290.9 404.187 291.08 404.729C291.261 405.091 294.148 413.944 301.547 412.679C303.893 412.318 305.517 411.415 306.239 410.15C307.321 408.343 306.6 406.175 306.6 406.175C306.419 405.452 306.6 404.729 307.321 404.549C308.043 404.368 308.765 404.549 308.946 405.271C309.126 405.452 311.472 410.873 317.066 409.788C322.66 408.704 323.202 403.465 323.202 403.103C323.202 402.561 323.743 402.019 324.285 402.019C324.826 401.838 325.367 402.2 325.728 402.742C325.728 402.923 327.713 406.536 332.947 406.356C334.21 406.356 335.293 405.813 336.195 404.549C338 402.019 338.36 396.779 336.917 392.262C335.293 387.203 331.323 373.652 325.006 369.677C319.412 366.244 314.901 370.58 314.72 370.761C314.179 371.303 313.457 371.303 312.916 370.761C306.419 364.979 298.659 370.038 298.299 370.219C297.938 370.58 297.216 370.58 296.855 370.219C289.276 364.798 282.599 371.122 282.418 371.303C282.057 371.664 281.335 371.845 280.974 371.484C278.989 370.4 277.004 370.038 274.839 370.761C267.44 372.929 260.222 383.951 257.515 388.468L268.523 388.287C269.064 388.287 269.606 388.649 269.786 389.191C271.23 395.153 276.102 410.511 282.238 410.873C284.584 411.053 286.208 410.511 287.291 409.427C288.915 407.801 288.915 405.091 288.915 405.091C288.915 404.368 289.276 403.826 289.997 403.826C289.637 403.826 289.817 403.826 289.817 403.826Z" fill="#171F39"/>
<path d="M324.287 404.368C323.746 404.368 323.204 404.007 323.024 403.465L312.196 369.858C312.016 369.135 312.377 368.412 313.099 368.232C313.821 368.051 314.542 368.412 314.723 369.135L325.55 402.742C325.731 403.465 325.37 404.187 324.648 404.368C324.648 404.368 324.468 404.368 324.287 404.368Z" fill="#171F39"/>
<path d="M307.866 407.44C307.324 407.44 306.783 407.078 306.602 406.536L296.136 369.316C295.955 368.593 296.316 367.87 297.038 367.69C297.76 367.509 298.482 367.87 298.662 368.593L309.129 405.814C309.309 406.536 308.948 407.259 308.227 407.44C308.046 407.44 307.866 407.44 307.866 407.44Z" fill="#171F39"/>
<path d="M290.18 407.078C289.638 407.078 289.097 406.717 288.917 406.175L279.894 370.761C279.713 370.038 280.074 369.316 280.796 369.135C281.518 368.954 282.24 369.316 282.42 370.038L291.443 405.452C291.623 406.175 291.263 406.898 290.541 407.078C290.541 407.078 290.36 407.078 290.18 407.078Z" fill="#171F39"/>
<path d="M125.058 126.839C118.201 127.381 108.275 133.886 108.275 133.886C108.275 133.886 112.967 123.948 115.313 118.708C117.659 113.468 128.306 93.4127 122.351 89.6184C116.215 85.824 110.621 96.1229 110.621 96.1229C110.621 96.1229 115.313 79.1388 107.193 76.4285C100.876 74.441 98.1696 83.8365 96.7259 88.3536C99.2523 78.416 95.8236 76.0671 92.7558 75.1637C89.5076 74.2603 85.7179 78.0547 84.4547 82.2104C83.011 86.7274 73.9881 114.914 73.9881 114.914C77.9582 92.3286 76.3341 89.4377 71.6421 89.257C66.9502 89.0763 64.9651 97.3877 64.4238 99.5559C63.7019 101.543 57.9272 119.792 57.9272 120.334C57.9272 120.515 50.5284 139.667 44.2124 156.29C39.1595 169.48 45.8365 184.115 59.01 188.994C71.1007 193.511 84.6352 188.271 90.5903 176.707L92.5754 172.913C101.057 169.842 113.148 153.941 116.396 149.786C119.644 145.449 134.622 143.281 136.788 137.499C138.953 131.537 132.096 126.297 125.058 126.839Z" fill="white"/>
<path d="M67.8527 191.885C64.7849 191.885 61.5366 191.343 58.4688 190.078C51.7919 187.549 46.5585 182.671 43.6712 176.166C40.7839 169.661 40.6034 162.434 43.1298 155.749C51.9723 132.441 56.6643 120.335 56.8447 119.793L57.0252 118.889C60.8148 106.964 62.9803 100.279 63.3412 99.0144C63.3412 98.8337 63.5217 98.4723 63.5217 98.2917C64.424 95.22 66.77 87.9927 71.6423 87.9927H71.8228C73.086 87.9927 74.7101 88.3541 75.9734 89.7996C77.2366 91.4257 77.9584 93.9553 77.417 100.641C79.9435 92.8712 82.6503 84.3791 83.3722 82.2109C84.8159 77.5131 89.1469 73.1767 93.2974 74.2608C96.3652 74.9836 98.3503 77.1518 98.8917 80.2234C99.9744 78.2359 101.238 76.6097 103.042 75.7063C104.486 74.9836 106.11 74.8029 107.915 75.3449C113.87 77.3324 113.87 85.4632 113.148 91.0643C114.592 89.6189 116.216 88.3541 118.201 87.812C120.005 87.27 121.81 87.6314 123.254 88.5348C129.028 92.1484 123.615 104.796 118.02 116.36C117.479 117.444 117.118 118.347 116.757 119.07C115.313 122.322 113.148 127.201 111.524 130.453C115.133 128.466 120.727 125.755 125.239 125.394C129.75 125.033 134.623 126.84 136.968 130.272C138.593 132.621 139.134 135.151 138.051 137.68C136.608 141.475 131.194 143.824 125.78 145.811C122.351 147.257 118.742 148.702 117.479 150.328L117.298 150.509C113.509 155.387 102.32 170.203 93.2974 173.456L91.4928 176.889C86.8009 186.465 77.5975 191.885 67.8527 191.885ZM71.4619 90.5223C68.3941 90.5223 66.409 96.6655 65.6872 99.0144C65.5067 99.3757 65.5067 99.5564 65.5067 99.9178C65.1458 100.821 63.8826 104.796 59.1907 119.793L58.8298 120.696C58.8298 120.877 58.6493 121.058 45.1149 156.652C42.7689 162.615 42.9494 169.3 45.6563 175.082C48.3631 181.044 53.0551 185.381 59.1907 187.73C70.74 192.066 83.5526 187.007 89.1469 175.985L91.1319 172.191C91.3124 171.83 91.4928 171.649 91.8538 171.468C97.2675 169.661 105.208 162.073 115.133 149.064L115.313 148.883C116.938 146.715 120.727 145.269 124.697 143.643C129.209 141.836 134.442 139.668 135.525 136.958C136.427 134.79 135.525 132.983 134.623 131.899C132.637 129.369 128.848 127.743 125.058 128.104C118.562 128.646 108.997 134.97 108.817 134.97C108.276 135.332 107.734 135.332 107.193 134.79C106.832 134.428 106.651 133.705 106.832 133.344C106.832 133.163 111.524 123.407 113.87 118.167C114.231 117.444 114.592 116.541 115.133 115.276C118.02 109.313 125.6 93.2325 121.269 90.703C120.186 90.1609 119.284 89.9802 118.201 90.1609C114.411 91.0643 111.343 96.6655 111.343 96.6655C110.982 97.2076 110.261 97.3882 109.719 97.2076C109.178 97.0269 108.817 96.3041 108.997 95.7621C110.261 91.4257 112.065 79.5006 106.471 77.5131C105.388 77.1518 104.486 77.1518 103.584 77.6938C100.516 79.32 98.5307 85.2825 97.6284 88.5348V88.7155C97.448 89.4382 96.7261 89.7996 96.0043 89.6189C95.2825 89.4382 94.9216 88.7155 95.102 87.9927C97.6284 77.8745 93.4779 76.7904 92.0342 76.429C89.6882 75.887 86.44 78.7779 85.1768 82.5722C83.9136 86.728 75.0711 113.83 74.7102 114.914C74.5297 115.637 73.8078 115.999 73.2665 115.818C72.5446 115.637 72.1837 115.095 72.3642 114.372C74.8906 100.279 75.2515 93.0519 73.6274 91.0643C73.4469 90.703 72.7251 90.5223 71.4619 90.5223C71.6423 90.5223 71.6423 90.5223 71.4619 90.5223Z" fill="#171F39"/>
<path d="M71.6429 142.739C71.4624 142.739 71.2819 142.739 70.921 142.558C70.3797 142.197 70.0187 141.474 70.3797 140.752C74.3498 133.886 79.7635 129.549 86.0796 128.104C97.629 125.394 108.276 132.621 108.817 132.982C109.359 133.344 109.539 134.247 109.178 134.789C108.817 135.331 107.915 135.512 107.374 135.15C107.193 135.15 97.0876 128.284 86.621 130.633C80.8463 131.898 76.1543 135.873 72.5452 142.197C72.5452 142.378 72.0038 142.739 71.6429 142.739Z" fill="#171F39"/>
<path d="M87.524 118.166C87.3436 118.166 87.3436 118.166 87.1631 118.166C86.4413 117.986 86.0804 117.263 86.2608 116.54L95.4642 88.1731C95.6447 87.4504 96.3665 87.089 97.0884 87.2697C97.8102 87.4504 98.1711 88.1731 97.9907 88.8958L88.7873 117.263C88.4263 117.805 88.0654 118.166 87.524 118.166Z" fill="#171F39"/>
<path d="M99.7951 123.225C99.6146 123.225 99.4342 123.225 99.2537 123.045C98.5319 122.683 98.3514 121.961 98.5319 121.418L109.359 95.7615C109.72 95.0388 110.442 94.8581 110.984 95.0388C111.705 95.4002 111.886 96.1229 111.705 96.6649L100.878 122.322C100.697 122.864 100.156 123.225 99.7951 123.225Z" fill="#171F39"/>
</g>
<defs>
<clipPath id="clip0_313_6157">
<rect width="519" height="434" fill="white"/>
</clipPath>
</defs>
</svg>
